<?xml version="1.0" standalone="no"?>
<!DOCTYPE svg PUBLIC "-//W3C//DTD SVG 1.1//EN" "http://www.w3.org/Graphics/SVG/1.1/DTD/svg11.dtd" >
<svg>
<metadata>
Created by FontForge 20090914 at Thu May 24 12:02:27 2018
 By www-data
Copyright &#194;&#169; 1989, 1995, 2002 Adobe Systems Incorporated.  All Rights Reserved. &#194;&#169; 1981, 1995, 2002 Heidelberger Druckmaschinen AG. All rights reserved.
</metadata>
<defs>
<font id="AvenirLTStd-Light" horiz-adv-x="520" >
  <font-face 
    font-family="Avenir LT Std 35 Light"
    font-weight="300"
    font-stretch="normal"
    units-per-em="1000"
    panose-1="2 11 4 2 2 2 3 2 2 4"
    ascent="756"
    descent="-244"
    x-height="462"
    cap-height="708"
    bbox="-167 -250 1000 931.999"
    underline-thickness="50"
    underline-position="-50"
    unicode-range="U+0020-U+FB02"
  />
<missing-glyph horiz-adv-x="500" 
d="M0 0v700h500v-700h-500zM250 395l170 255h-340zM280 350l170 -255v510zM80 50h340l-170 255zM50 605v-510l170 255z" />
    <glyph glyph-name="fi" unicode="fi" horiz-adv-x="519" 
d="M369 0v462h60v-462h-60zM354 645c0 12.667 4.33301 23.334 13 32.001s19.334 13 32.001 13s23.334 -4.33301 32.001 -13s13 -19.334 13 -32.001s-4.33301 -23.334 -13 -32.001s-19.334 -13 -32.001 -13s-23.334 4.33301 -32.001 13s-13 19.334 -13 32.001zM114 0v408h-96
v54h96v151c0 54 14 93.333 42 118s60 37 96 37c28 0 51 -4 69 -12l-12 -52c-13.333 6.66699 -31.333 10 -54 10c-54 0 -81 -41 -81 -123v-129h108v-54h-108v-408h-60z" />
    <glyph glyph-name="fl" unicode="fl" horiz-adv-x="519" 
d="M114 0v408h-96v54h96v151c0 54 14 93.333 42 118s60 37 96 37c28 0 51 -4 69 -12l-12 -52c-13.333 6.66699 -31.333 10 -54 10c-54 0 -81 -41 -81 -123v-129h108v-54h-108v-408h-60zM369 0v756h60v-756h-60z" />
    <glyph glyph-name=".notdef" horiz-adv-x="500" 
d="M0 0v700h500v-700h-500zM250 395l170 255h-340zM280 350l170 -255v510zM80 50h340l-170 255zM50 605v-510l170 255z" />
    <glyph glyph-name="space" unicode=" " horiz-adv-x="260" 
 />
    <glyph glyph-name="exclam" unicode="!" horiz-adv-x="370" 
d="M215 708v-522h-60v522h60zM137 42c0 13.333 4.66699 24.666 14 33.999s20.666 14 33.999 14s24.666 -4.66699 33.999 -14s14 -20.666 14 -33.999s-4.66699 -24.666 -14 -33.999s-20.666 -14 -33.999 -14s-24.666 4.66699 -33.999 14s-14 20.666 -14 33.999z" />
    <glyph glyph-name="quotedbl" unicode="&#x22;" 
d="M161 480v228h60v-228h-60zM299 480v228h60v-228h-60z" />
    <glyph glyph-name="numbersign" unicode="#" 
d="M91 0l30 229h-108v48h115l22 156h-108v48h115l30 227h52l-31 -227h139l31 227h52l-31 -227h108v-48h-115l-21 -156h108v-48h-115l-30 -229h-52l30 229h-139l-30 -229h-52zM319 277l21 156h-138l-21 -156h138z" />
    <glyph glyph-name="dollar" unicode="$" 
d="M281 314v-272c38 1.33301 69.5 15.5 94.5 42.5s37.5 60.5 37.5 100.5c0 53.333 -29.667 91 -89 113zM233 400l-0.000976562 266c-33.333 -6 -61.666 -21.167 -84.999 -45.5s-35 -54.5 -35 -90.5c0 -32.667 8.66699 -58.5 26 -77.5s43 -34.5 77 -46.5zM232.999 -79v67.002
c-37.333 0 -74.333 9.16699 -111 27.5s-66.334 44.166 -89.001 77.499l57 39c16 -26.667 36.667 -48 62 -64s52.333 -24.667 81 -26v290l-71 26c-43.333 16 -73.333 40.167 -90 72.5s-25 64.166 -25 95.499c0 52.667 19 97 57 133s81 56.333 129 61v67h48v-67
c81.333 0 143 -29.667 185 -89l-55 -40c-15.333 23.333 -34.666 41.666 -57.999 54.999s-47.333 20 -72 20v-282l70 -24c35.333 -12.667 65.5 -33.667 90.5 -63s37.5 -68 37.5 -116c0 -54.667 -19.5 -99.667 -58.5 -135s-85.5 -54.666 -139.5 -57.999v-67h-48z" />
    <glyph glyph-name="percent" unicode="%" horiz-adv-x="815" 
d="M38 548c0 47.333 16.833 87.833 50.5 121.5s74.167 50.5 121.5 50.5s87.833 -16.833 121.5 -50.5s50.5 -74.167 50.5 -121.5s-16.833 -87.833 -50.5 -121.5s-74.167 -50.5 -121.5 -50.5s-87.833 16.833 -121.5 50.5s-50.5 74.167 -50.5 121.5zM92 548
c0 -33.333 11.5 -61.333 34.5 -84s50.833 -34 83.5 -34s60.5 11.333 83.5 34s34.5 50.667 34.5 84s-11.5 61.333 -34.5 84s-50.833 34 -83.5 34s-60.5 -11.333 -83.5 -34s-34.5 -50.667 -34.5 -84zM433 160c0 47.333 16.833 87.833 50.5 121.5s74.167 50.5 121.5 50.5
s87.833 -16.833 121.5 -50.5s50.5 -74.167 50.5 -121.5s-16.833 -87.833 -50.5 -121.5s-74.167 -50.5 -121.5 -50.5s-87.833 16.833 -121.5 50.5s-50.5 74.167 -50.5 121.5zM487 160c0 -33.333 11.5 -61.333 34.5 -84s50.833 -34 83.5 -34s60.5 11.333 83.5 34
s34.5 50.667 34.5 84s-11.5 61.333 -34.5 84s-50.833 34 -83.5 34s-60.5 -11.333 -83.5 -34s-34.5 -50.667 -34.5 -84zM158 -6l456 748l46 -28l-457 -748z" />
    <glyph glyph-name="ampersand" unicode="&#x26;" horiz-adv-x="704" 
d="M315 388l172 -182.001l102 184h68l-128 -226l161 -169h-89l-106 114c-30.667 -41.333 -63.334 -72.833 -98.001 -94.5s-75.334 -32.5 -122.001 -32.5c-61.333 0 -112.666 19 -153.999 57s-62 87.667 -62 149c0 26 4 49.5 12 70.5s21.333 40.333 40 58
s34.834 31.334 48.501 41.001s34.167 22.834 61.5 39.501l-41.5 52c-9.66699 12.667 -19.5 30.167 -29.5 52.5s-15 43.5 -15 63.5c0 49.333 17.333 88.5 52 117.5s76.667 43.5 126 43.5c43.333 0 80.833 -14 112.5 -42s47.5 -64 47.5 -108c0 -24 -4 -45.667 -12 -65
s-21 -36.833 -39 -52.5s-33.667 -27.834 -47 -36.501s-33.333 -20 -60 -34zM308 665.999c-30 0 -55.333 -9.33203 -76 -27.999s-31 -42.667 -31 -72c0 -15.333 4.83301 -32.5 14.5 -51.5s18.667 -33.667 27 -44l34.5 -41.5c19.333 10 34.333 18.167 45 24.5
s23.834 15.666 39.501 27.999s27.167 25.833 34.5 40.5s11 31 11 49c0 28 -9.33301 50.833 -28 68.5s-42.334 26.5 -71.001 26.5zM455 151l-196.002 204c-16.667 -10 -29.5 -18 -38.5 -24s-20.667 -14.667 -35 -26s-25.166 -22 -32.499 -32s-13.833 -22.333 -19.5 -37
s-8.5 -30 -8.5 -46c0 -44 15.333 -79.667 46 -107s68.667 -41 114 -41c64.667 0 121.334 36.333 170.001 109z" />
    <glyph glyph-name="quotesingle" unicode="'" horiz-adv-x="260" 
d="M100 480v228h60v-228h-60z" />
    <glyph glyph-name="parenleft" unicode="(" horiz-adv-x="260" 
d="M197 732l51 -31.998c-42 -52.667 -74.167 -116.334 -96.5 -191.001s-33.5 -148.334 -33.5 -221.001c0 -138.667 43.333 -276.667 130 -414l-47 -30c-46 63.333 -81.333 134 -106 212s-37 155.333 -37 232c0 79.333 12.167 157.833 36.5 235.5s58.5 147.167 102.5 208.5z
" />
    <glyph glyph-name="parenright" unicode=")" horiz-adv-x="260" 
d="M63 -156l-51 31.998c42 52.667 74.167 116.334 96.5 191.001s33.5 148.334 33.5 221.001c0 138.667 -43.333 276.667 -130 414l47 30c46 -63.333 81.333 -134 106 -212s37 -155.333 37 -232c0 -79.333 -12.167 -157.833 -36.5 -235.5s-58.5 -147.167 -102.5 -208.5z" />
    <glyph glyph-name="asterisk" unicode="*" horiz-adv-x="444" 
d="M247 708v-152l144 48l15 -48l-144 -47l91 -122l-37 -29l-94 125l-89 -125l-40 29l91 122l-146 50l14 45l147 -48v152h48z" />
    <glyph glyph-name="plus" unicode="+" horiz-adv-x="666" 
d="M78 279v48h231v231h48v-231h231v-48h-231v-231h-48v231h-231z" />
    <glyph glyph-name="comma" unicode="," horiz-adv-x="260" 
d="M50 -138l66 228h70l-77 -228h-59z" />
    <glyph glyph-name="hyphen" unicode="-" horiz-adv-x="333" 
d="M43 210v54h247v-54h-247z" />
    <glyph glyph-name="period" unicode="." horiz-adv-x="260" 
d="M82 42c0 13.333 4.66699 24.666 14 33.999s20.666 14 33.999 14s24.666 -4.66699 33.999 -14s14 -20.666 14 -33.999s-4.66699 -24.666 -14 -33.999s-20.666 -14 -33.999 -14s-24.666 4.66699 -33.999 14s-14 20.666 -14 33.999z" />
    <glyph glyph-name="slash" unicode="/" horiz-adv-x="370" 
d="M9 -18l304 762l52 -18l-303 -762z" />
    <glyph glyph-name="zero" unicode="0" 
d="M26 354c0 34.667 1.66699 67.334 5 98.001s10.166 63 20.499 97s23.666 63 39.999 87s39 44 68 60s62.5 24 100.5 24s71.5 -8 100.5 -24s51.667 -36 68 -60s29.666 -53 39.999 -87s17.166 -66.333 20.499 -97s5 -63.334 5 -98.001s-1.66699 -67.334 -5 -98.001
s-10.166 -63 -20.499 -97s-23.666 -63 -39.999 -87s-39 -44 -68 -60s-62.5 -24 -100.5 -24s-71.5 8 -100.5 24s-51.667 36 -68 60s-29.666 53 -39.999 87s-17.166 66.333 -20.499 97s-5 63.334 -5 98.001zM92 354c0 -26 1 -51 3 -75s6.5 -51.167 13.5 -81.5
s16.167 -56.333 27.5 -78s27.666 -40 48.999 -55s46.333 -22.5 75 -22.5s53.667 7.5 75 22.5s37.666 33.333 48.999 55s20.5 47.667 27.5 78s11.5 57.5 13.5 81.5s3 49 3 75s-1 51 -3 75s-6.5 51.167 -13.5 81.5s-16.167 56.333 -27.5 78s-27.666 40 -48.999 55
s-46.333 22.5 -75 22.5s-53.667 -7.5 -75 -22.5s-37.666 -33.333 -48.999 -55s-20.5 -47.667 -27.5 -78s-11.5 -57.5 -13.5 -81.5s-3 -49 -3 -75z" />
    <glyph glyph-name="one" unicode="1" 
d="M261 0v624h-1l-128 -105l-37 46l175 143h51v-708h-60z" />
    <glyph glyph-name="two" unicode="2" 
d="M41 0l-0.00390625 70.001l266 281c20.667 22 36.834 40 48.501 54s23.334 33.167 35.001 57.5s17.5 48.166 17.5 71.499c0 40 -13.167 72 -39.5 96s-60.166 36 -101.499 36c-36 0 -66.833 -10.667 -92.5 -32s-42.167 -49.333 -49.5 -84l-70 7
c11.333 53.333 36 93.833 74 121.5s85 41.5 141 41.5c56.667 0 104.834 -16.333 144.501 -49s59.5 -76.667 59.5 -132c0 -26 -3.66699 -50.833 -11 -74.5s-19.333 -47 -36 -70s-31.167 -41.5 -43.5 -55.5s-30.833 -33.333 -55.5 -58l-221 -227h372v-54h-438z" />
    <glyph glyph-name="three" unicode="3" 
d="M41 127l65 21.001c13.333 -35.333 31.833 -61.833 55.5 -79.5s54.834 -26.5 93.501 -26.5c50.667 0 89.667 14.5 117 43.5s41 65.833 41 110.5c0 48.667 -18.5 85.167 -55.5 109.5s-80.833 36.5 -131.5 36.5h-26v60h30c43.333 0 80.5 11.167 111.5 33.5
s46.5 55.833 46.5 100.5c0 38 -12 69.167 -36 93.5s-55.667 36.5 -95 36.5c-28.667 0 -54.834 -7.33301 -78.501 -22s-42.167 -35 -55.5 -61l-57 32c37.333 70 101 105 191 105c57.333 0 104.5 -15.667 141.5 -47s55.5 -76.333 55.5 -135c0 -39.333 -11 -73.833 -33 -103.5
s-53 -49.834 -93 -60.501v-2c44.667 -8 81 -28.833 109 -62.5s42 -73.167 42 -118.5c0 -58.667 -19 -107.167 -57 -145.5s-92 -57.5 -162 -57.5c-110 0 -183 46.333 -219 139z" />
    <glyph glyph-name="four" unicode="4" 
d="M329 0v174h-306v71l283 463h83v-480h108v-54h-108v-174h-60zM329 228v414h-2l-250 -414h252z" />
    <glyph glyph-name="five" unicode="5" 
d="M451 708l0.000976562 -54.001h-292l-3 -225c26 13.333 60.333 20 103 20c66 0 119.167 -22.667 159.5 -68s60.5 -100.666 60.5 -165.999c0 -71.333 -23.167 -127 -69.5 -167s-98.5 -60 -156.5 -60c-99.333 0 -170 40 -212 120l62 31c12 -27.333 32.167 -50.333 60.5 -69
s58.166 -28 89.499 -28c38 0 74.167 15.167 108.5 45.5s51.5 71.5 51.5 123.5c0 51.333 -17.167 94.833 -51.5 130.5s-76.5 53.5 -126.5 53.5c-47.333 0 -94 -16 -140 -48l6 361h350z" />
    <glyph glyph-name="six" unicode="6" 
d="M361 708l-193 -311.999h2c24 20 59 30 105 30c62.667 0 114.5 -21 155.5 -63s61.5 -93.667 61.5 -155c0 -64 -21.833 -116.667 -65.5 -158s-99.167 -62 -166.5 -62s-122.833 20.667 -166.5 62s-65.5 94 -65.5 158c0 22.667 4 46.5 12 71.5s15.333 43.667 22 56
s17 30.166 31 53.499l192 319h76zM260 374.001c-46 0 -85.167 -16.167 -117.5 -48.5s-48.5 -71.5 -48.5 -117.5c0 -49.333 15.333 -89.333 46 -120s70.667 -46 120 -46s89.333 15.333 120 46s46 70.667 46 120c0 46 -16.167 85.167 -48.5 117.5s-71.5 48.5 -117.5 48.5z" />
    <glyph glyph-name="seven" unicode="7" 
d="M443 708v-54l-282 -654h-67l287 654h-340v54h402z" />
    <glyph glyph-name="eight" unicode="8" 
d="M66 536c0 54.667 18.333 99 55 133s83 51 139 51s102.333 -17 139 -51s55 -78.333 55 -133c0 -34 -10.5 -66.167 -31.5 -96.5s-48.167 -50.166 -81.5 -59.499v-1c43.333 -9.33301 77.166 -31 101.499 -65s36.5 -73 36.5 -117c0 -62.667 -20.667 -113.167 -62 -151.5
s-93.666 -57.5 -156.999 -57.5s-115.666 19.167 -156.999 57.5s-62 88.833 -62 151.5c0 44 12.167 83 36.5 117s58.166 55.667 101.499 65v1c-33.333 9.33301 -60.5 29.166 -81.5 59.499s-31.5 62.5 -31.5 96.5zM132 536c0 -36 12 -66.667 36 -92s54.667 -38 92 -38
s68 12.667 92 38s36 56 36 92c0 38.667 -12.167 70 -36.5 94s-54.833 36 -91.5 36s-67.167 -12 -91.5 -36s-36.5 -55.333 -36.5 -94zM107 197c0 -43.333 14.167 -80 42.5 -110s65.166 -45 110.499 -45s82.166 15 110.499 45s42.5 66.667 42.5 110
c0 46 -14.667 83.333 -44 112s-65.666 43 -108.999 43s-79.666 -14.333 -108.999 -43s-44 -66 -44 -112z" />
    <glyph glyph-name="nine" unicode="9" 
d="M159 0l193 311.999h-2c-24 -20 -59 -30 -105 -30c-62.667 0 -114.5 21 -155.5 63s-61.5 93.667 -61.5 155c0 64 21.833 116.667 65.5 158s99.167 62 166.5 62s122.833 -20.667 166.5 -62s65.5 -94 65.5 -158c0 -22.667 -4 -46.5 -12 -71.5s-15.333 -43.667 -22 -56
s-17 -30.166 -31 -53.499l-192 -319h-76zM260 333.999c46 0 85.167 16.167 117.5 48.5s48.5 71.5 48.5 117.5c0 49.333 -15.333 89.333 -46 120s-70.667 46 -120 46s-89.333 -15.333 -120 -46s-46 -70.667 -46 -120c0 -46 16.167 -85.167 48.5 -117.5
s71.5 -48.5 117.5 -48.5z" />
    <glyph glyph-name="colon" unicode=":" horiz-adv-x="260" 
d="M82 420c0 13.333 4.66699 24.666 14 33.999s20.666 14 33.999 14s24.666 -4.66699 33.999 -14s14 -20.666 14 -33.999s-4.66699 -24.666 -14 -33.999s-20.666 -14 -33.999 -14s-24.666 4.66699 -33.999 14s-14 20.666 -14 33.999zM82 42
c0 13.333 4.66699 24.666 14 33.999s20.666 14 33.999 14s24.666 -4.66699 33.999 -14s14 -20.666 14 -33.999s-4.66699 -24.666 -14 -33.999s-20.666 -14 -33.999 -14s-24.666 4.66699 -33.999 14s-14 20.666 -14 33.999z" />
    <glyph glyph-name="semicolon" unicode=";" horiz-adv-x="260" 
d="M50 -138l66 228h70l-77 -228h-59zM82 420c0 13.333 4.66699 24.666 14 33.999s20.666 14 33.999 14s24.666 -4.66699 33.999 -14s14 -20.666 14 -33.999s-4.66699 -24.666 -14 -33.999s-20.666 -14 -33.999 -14s-24.666 4.66699 -33.999 14s-14 20.666 -14 33.999z" />
    <glyph glyph-name="less" unicode="&#x3c;" horiz-adv-x="666" 
d="M584 561v-50l-448 -208l448 -208v-50l-502 234v48z" />
    <glyph glyph-name="equal" unicode="=" horiz-adv-x="666" 
d="M78 351v48h510v-48h-510zM78 207v48h510v-48h-510z" />
    <glyph glyph-name="greater" unicode="&#x3e;" horiz-adv-x="666" 
d="M82 45v50l448 208l-448 208v50l502 -234v-48z" />
    <glyph glyph-name="question" unicode="?" horiz-adv-x="463" 
d="M204 186l-0.000976562 84c0 24.667 5.33301 47 16 67s23.667 37.333 39 52l46 44c15.333 14.667 28.333 32 39 52s16 42 16 66c0 36 -10.5 65.167 -31.5 87.5s-49.5 33.5 -85.5 33.5c-34 0 -62.5 -10.5 -85.5 -31.5s-38.167 -49.167 -45.5 -84.5l-65 8
c8.66699 50 30.834 89.5 66.501 118.5s78.5 43.5 128.5 43.5c54 0 98.167 -15.333 132.5 -46s51.5 -72.667 51.5 -126c0 -30.667 -5.5 -57.834 -16.5 -81.501s-24.5 -43.167 -40.5 -58.5l-48 -44c-16 -14 -29.5 -31.167 -40.5 -51.5s-16.5 -43.166 -16.5 -68.499v-64h-60z
M186.999 42c0 13.333 4.66699 24.666 14 33.999s20.666 14 33.999 14s24.666 -4.66699 33.999 -14s14 -20.666 14 -33.999s-4.66699 -24.666 -14 -33.999s-20.666 -14 -33.999 -14s-24.666 4.66699 -33.999 14s-14 20.666 -14 33.999z" />
    <glyph glyph-name="at" unicode="@" horiz-adv-x="800" 
d="M254 280c0 -28 7.66797 -50.832 23.001 -68.499s35.666 -26.5 60.999 -26.5c44 0 83.167 25.833 117.5 77.5s51.5 101.5 51.5 149.5c0 68 -27 102 -81 102c-32 0 -61.5 -13 -88.5 -39s-47.667 -56.833 -62 -92.5s-21.5 -69.834 -21.5 -102.501zM622.001 549.001
l-96.999 -290.002c-7.33301 -22 -11 -38 -11 -48c0 -17.333 8.66699 -26 26 -26c35.333 0 71.166 26.333 107.499 79s54.5 106.667 54.5 162c0 72.667 -28.333 132.834 -85 180.501s-123.667 71.5 -201 71.5c-89.333 0 -164.666 -32.167 -225.999 -96.5
s-92 -139.833 -92 -226.5c0 -89.333 31.333 -165.833 94 -229.5s138 -95.5 226 -95.5c49.333 0 97.5 12.333 144.5 37s83.5 56.334 109.5 95.001h58c-30 -54.667 -73.667 -98.334 -131 -131.001s-117.666 -49 -180.999 -49c-107.333 0 -196.5 36 -267.5 108
s-106.5 160.333 -106.5 265c0 104 35.833 191.833 107.5 263.5s159.167 107.5 262.5 107.5c97.333 0 178.666 -28.667 243.999 -86s98 -128.666 98 -213.999c0 -80.667 -24.333 -150 -73 -208s-102.334 -87 -161.001 -87c-18 0 -32.833 5.83301 -44.5 17.5
s-17.5 28.167 -17.5 49.5h-2c-14.667 -18 -33.834 -33.667 -57.501 -47s-47.5 -20 -71.5 -20c-43.333 0 -76.666 14 -99.999 42s-35 63 -35 105c0 74.667 22 141.667 66 201s100.667 89 170 89c54.667 0 90 -27.667 106 -83h2l24 64h60z" />
    <glyph glyph-name="A" unicode="A" horiz-adv-x="685" 
d="M5 0l309 708h68l298 -708h-74l-77 188h-375l-80 -188h-69zM505 248l-160 388l-165 -388h325z" />
    <glyph glyph-name="B" unicode="B" horiz-adv-x="630" 
d="M97 0v708.001h204c30.667 0 58 -2.33301 82 -7s47.833 -13.334 71.5 -26.001s42 -32 55 -58s19.5 -58 19.5 -96c0 -37.333 -11 -69.166 -33 -95.499s-53.333 -43.5 -94 -51.5v-2c46.667 -3.33301 84.667 -20.833 114 -52.5s44 -72.167 44 -121.5
c0 -38.667 -7.5 -71.667 -22.5 -99s-35.167 -47.833 -60.5 -61.5s-50.5 -23.334 -75.5 -29.001s-51.167 -8.5 -78.5 -8.5h-226zM163 648.001v-246h137c32 0 59.5 4 82.5 12s40 18.5 51 31.5s18.667 25.667 23 38s6.5 24.833 6.5 37.5c0 84.667 -51.333 127 -154 127h-146z
M163 342.001l-0.000976562 -282h151c36.667 0 67.667 4.5 93 13.5s43.833 21 55.5 36s19.834 29.5 24.501 43.5s7 28.333 7 43c0 48.667 -16.667 85.167 -50 109.5s-73.333 36.5 -120 36.5h-161z" />
    <glyph glyph-name="C" unicode="C" horiz-adv-x="704" 
d="M626 152l54 -41.001c-62.667 -86 -150.334 -129 -263.001 -129c-107.333 0 -195.166 34.833 -263.499 104.5s-102.5 158.834 -102.5 267.501s34.167 197.834 102.5 267.501s156.166 104.5 263.499 104.5c104.667 0 186 -37 244 -111l-54 -45
c-21.333 31.333 -49 55.166 -83 71.499s-69.667 24.5 -107 24.5c-90.667 0 -163.334 -29.5 -218.001 -88.5s-82 -133.5 -82 -223.5s27.333 -164.5 82 -223.5s127.334 -88.5 218.001 -88.5c38.667 0 77.334 9.33301 116.001 28s69.667 46 93 82z" />
    <glyph glyph-name="D" unicode="D" horiz-adv-x="741" 
d="M88 0v707.998h219c50 0 95.5 -5.83301 136.5 -17.5s74.5 -26.167 100.5 -43.5s48.667 -38.166 68 -62.499s33.833 -47.333 43.5 -69s17.334 -44.667 23.001 -69s9 -43 10 -56s1.5 -25.167 1.5 -36.5s-0.5 -23.5 -1.5 -36.5s-4.33301 -31.667 -10 -56
s-13.334 -47.333 -23.001 -69s-24.167 -44.667 -43.5 -69s-42 -45.166 -68 -62.499s-59.5 -31.833 -100.5 -43.5s-86.5 -17.5 -136.5 -17.5h-219zM154 647.998v-587.998h136c99.333 0 179.833 24.667 241.5 74s92.5 122.666 92.5 219.999s-30.833 170.666 -92.5 219.999
s-142.167 74 -241.5 74h-136z" />
    <glyph glyph-name="E" unicode="E" horiz-adv-x="593" 
d="M97 0v708h433v-60h-367v-252h344v-60h-344v-276h383v-60h-449z" />
    <glyph glyph-name="F" unicode="F" horiz-adv-x="556" 
d="M97 0v708h424v-60h-358v-252h333v-60h-333v-336h-66z" />
    <glyph glyph-name="G" unicode="G" horiz-adv-x="778" 
d="M681 382v-336.002c-74.667 -42.667 -162.667 -64 -264 -64c-107.333 0 -195.166 34.833 -263.499 104.5s-102.5 158.834 -102.5 267.501s34.167 197.834 102.5 267.501s156.166 104.5 263.499 104.5c105.333 0 190.333 -32.667 255 -98l-48 -50
c-21.333 26 -51.5 47.167 -90.5 63.5s-77.833 24.5 -116.5 24.5c-90.667 0 -163.334 -29.5 -218.001 -88.5s-82 -133.5 -82 -223.5s27.333 -164.5 82 -223.5s127.334 -88.5 218.001 -88.5c84.667 0 150.667 14 198 42v238h-170v60h236z" />
    <glyph glyph-name="H" unicode="H" horiz-adv-x="722" 
d="M97 0v708h66v-312h396v312h66v-708h-66v336h-396v-336h-66z" />
    <glyph glyph-name="I" unicode="I" horiz-adv-x="260" 
d="M97 0v708h66v-708h-66z" />
    <glyph glyph-name="J" unicode="J" horiz-adv-x="482" 
d="M385 708v-499.997c0 -21.333 -0.833008 -40.333 -2.5 -57s-6.16699 -36.334 -13.5 -59.001s-17.5 -41.334 -30.5 -56.001s-32.167 -27.334 -57.5 -38.001s-55.333 -16 -90 -16c-50 0 -90.5 12.833 -121.5 38.5s-51.833 61.167 -62.5 106.5l66 12
c16 -64.667 55.333 -97 118 -97c85.333 0 128 50 128 150v516h66z" />
    <glyph glyph-name="K" unicode="K" horiz-adv-x="611" 
d="M97 0v708h66v-312h6l343 312h91l-358 -324l378 -384h-95l-359 366h-6v-366h-66z" />
    <glyph glyph-name="L" unicode="L" horiz-adv-x="500" 
d="M97 0v708h66v-648h330v-60h-396z" />
    <glyph glyph-name="M" unicode="M" horiz-adv-x="889" 
d="M90 0v708h99l258 -594l258 594h94v-708h-66v624h-2l-270 -624h-29l-274 624h-2v-624h-66z" />
    <glyph glyph-name="N" unicode="N" horiz-adv-x="778" 
d="M97 0v708h85l431 -620h2v620h66v-708h-85l-431 620h-2v-620h-66z" />
    <glyph glyph-name="O" unicode="O" horiz-adv-x="834" 
d="M51 354c0 108.667 34.167 197.834 102.5 267.501s156.166 104.5 263.499 104.5s195.166 -34.833 263.499 -104.5s102.5 -158.834 102.5 -267.501s-34.167 -197.834 -102.5 -267.501s-156.166 -104.5 -263.499 -104.5s-195.166 34.833 -263.499 104.5
s-102.5 158.834 -102.5 267.501zM117 354c0 -90 27.333 -164.5 82 -223.5s127.334 -88.5 218.001 -88.5s163.334 29.5 218.001 88.5s82 133.5 82 223.5s-27.333 164.5 -82 223.5s-127.334 88.5 -218.001 88.5s-163.334 -29.5 -218.001 -88.5s-82 -133.5 -82 -223.5z" />
    <glyph glyph-name="P" unicode="P" horiz-adv-x="574" 
d="M97 0v708h204c27.333 0 53.5 -3 78.5 -9s49.167 -15.5 72.5 -28.5s42 -32.333 56 -58s21 -56.167 21 -91.5c0 -60.667 -20.5 -106.667 -61.5 -138s-91.5 -47 -151.5 -47h-153v-336h-66zM163 648l-0.000976562 -252h150c42.667 0 78.334 10 107.001 30s43 51.667 43 95
c0 42.667 -15 74.5 -45 95.5s-66.333 31.5 -109 31.5h-146z" />
    <glyph glyph-name="Q" unicode="Q" horiz-adv-x="834" 
d="M813 60l-0.00195312 -60h-390c-101.333 0 -188.666 34 -261.999 102s-110 155 -110 261c0 104.667 33 191.334 99 260.001s152.667 103 260 103s194 -34.333 260 -103s99 -155.334 99 -260.001c0 -64.667 -16.167 -126 -48.5 -184s-75.166 -97 -128.499 -117v-2h221z
M116.998 363c0 -84.667 28.666 -156.332 85.999 -214.999s130 -88 218 -88c86.667 0 155.334 29.667 206.001 89s76 130.666 76 213.999c0 88 -26.333 160.5 -79 217.5s-124 85.5 -214 85.5s-161.333 -28.5 -214 -85.5s-79 -129.5 -79 -217.5z" />
    <glyph glyph-name="R" unicode="R" horiz-adv-x="593" 
d="M163 648v-252h140c32.667 0 60.667 4.16699 84 12.5s40.5 19.333 51.5 33s18.833 27 23.5 40s7 26.5 7 40.5s-2.33301 27.5 -7 40.5s-12.5 26.333 -23.5 40s-28.167 24.667 -51.5 33s-51.333 12.5 -84 12.5h-140zM97 0v708h186c168 0 252 -62 252 -186
c0 -106 -60.333 -166.667 -181 -182l206 -340h-75l-199 336h-123v-336h-66z" />
    <glyph glyph-name="S" unicode="S" horiz-adv-x="556" 
d="M53 89l63.001 42.001c35.333 -59.333 89.333 -89 162 -89c45.333 0 83.166 12.667 113.499 38s45.5 59 45.5 101c0 30.667 -9 56 -27 76s-40.5 34.333 -67.5 43s-56.333 18.667 -88 30s-61 23.166 -88 35.499s-49.5 32.666 -67.5 60.999s-27 63.5 -27 105.5
c0 60 22 107.333 66 142s97.667 52 161 52c83.333 0 147.666 -29.667 192.999 -89l-57 -41c-33.333 46.667 -79.333 70 -138 70c-45.333 0 -83.166 -11.667 -113.499 -35s-45.5 -56.333 -45.5 -99c0 -28.667 6.66699 -52.667 20 -72s30.833 -34.166 52.5 -44.499
s45.334 -19.333 71.001 -27s51.5 -16 77.5 -25s49.833 -20.167 71.5 -33.5s39.167 -32.5 52.5 -57.5s20 -55.5 20 -91.5c0 -61.333 -21.5 -109.833 -64.5 -145.5s-94.833 -53.5 -155.5 -53.5c-102.667 0 -179.334 35.667 -230.001 107z" />
    <glyph glyph-name="T" unicode="T" horiz-adv-x="574" 
d="M254 0v648h-242v60h550v-60h-242v-648h-66z" />
    <glyph glyph-name="U" unicode="U" horiz-adv-x="684" 
d="M600 708v-437c0 -39.333 -4.5 -75.666 -13.5 -108.999s-23.167 -63.833 -42.5 -91.5s-46.166 -49.334 -80.499 -65.001s-74.833 -23.5 -121.5 -23.5s-87.167 7.83301 -121.5 23.5s-61.166 37.334 -80.499 65.001s-33.5 58.167 -42.5 91.5s-13.5 69.666 -13.5 108.999v437
h66v-420c0 -22.667 1.33301 -44.167 4 -64.5s8.16699 -42 16.5 -65s19.166 -42.667 32.499 -59s32 -30 56 -41s51.667 -16.5 83 -16.5s59 5.5 83 16.5s42.667 24.667 56 41s24.166 36 32.499 59s13.833 44.667 16.5 65s4 41.833 4 64.5v420h66z" />
    <glyph glyph-name="V" unicode="V" horiz-adv-x="593" 
d="M261 0l-264 708h71l228 -621l230 621h70l-269 -708h-66z" />
    <glyph glyph-name="W" unicode="W" horiz-adv-x="944" 
d="M211 0l-206 708h68l176 -627h2l179 627h84l179 -627h2l176 627h68l-206 -708h-81l-179 630h-2l-179 -630h-81z" />
    <glyph glyph-name="X" unicode="X" horiz-adv-x="611" 
d="M1 0l266 372l-242 336h78l204 -288l201 288h79l-240 -336l263 -372h-82l-224 320l-224 -320h-79z" />
    <glyph glyph-name="Y" unicode="Y" horiz-adv-x="574" 
d="M254 0v305l-260 403h79l214 -336l219 336h74l-260 -403v-305h-66z" />
    <glyph glyph-name="Z" unicode="Z" horiz-adv-x="556" 
d="M23 0v52l414 596h-408v60h493v-54l-417 -594h428v-60h-510z" />
    <glyph glyph-name="bracketleft" unicode="[" horiz-adv-x="260" 
d="M224 732v-48h-90v-792h90v-48h-150v888h150z" />
    <glyph glyph-name="backslash" unicode="\" horiz-adv-x="370" 
d="M57 744l304 -762l-53 -18l-303 762z" />
    <glyph glyph-name="bracketright" unicode="]" horiz-adv-x="260" 
d="M36 -156v48h90v792h-90v48h150v-888h-150z" />
    <glyph glyph-name="asciicircum" unicode="^" horiz-adv-x="666" 
d="M82 256l228 452h46l228 -452h-56l-195 398l-194 -398h-57z" />
    <glyph glyph-name="underscore" unicode="_" horiz-adv-x="500" 
d="M0 -125v50h500v-50h-500z" />
    <glyph glyph-name="grave" unicode="`" horiz-adv-x="240" 
d="M74 708l104 -144h-50l-134 144h80z" />
    <glyph glyph-name="a" unicode="a" horiz-adv-x="519" 
d="M439 307l0.00195312 -113c0 -84 3 -148.667 9 -194h-56c-4 22.667 -6 47.667 -6 75h-2c-33.333 -58 -87.333 -87 -162 -87c-44.667 0 -83 11.5 -115 34.5s-48 57.167 -48 102.5c0 103.333 85.333 155 256 155h70v28c0 38 -11.833 66.167 -35.5 84.5
s-55.167 27.5 -94.5 27.5c-53.333 0 -100.333 -17.333 -141 -52l-35 41c21.333 20 48.166 35.833 80.499 47.5s64.166 17.5 95.499 17.5c58 0 103.167 -13.667 135.5 -41s48.5 -69.333 48.5 -126zM385.002 232l-65.999 0.000976562
c-56.667 0 -104.167 -8.16699 -142.5 -24.5s-57.5 -42.833 -57.5 -79.5c0 -26.667 10.667 -47.667 32 -63s45.666 -23 72.999 -23c58.667 0 100.167 15.167 124.5 45.5s36.5 68.166 36.5 113.499v31z" />
    <glyph glyph-name="b" unicode="b" horiz-adv-x="611" 
d="M67 0v756.002h60v-375h2c17.333 30 43.166 53 77.499 69s70.166 24 107.499 24c70.667 0 128.834 -22.833 174.501 -68.5s68.5 -103.834 68.5 -174.501s-22.833 -128.834 -68.5 -174.501s-103.834 -68.5 -174.501 -68.5c-37.333 0 -73.166 8 -107.499 24
s-60.166 39 -77.499 69h-2v-81h-60zM121 231.002c0 -52 18.667 -96.498 56 -133.498s83 -55.5 137 -55.5c55.333 0 99.666 18.167 132.999 54.5s50 81.166 50 134.499s-16.667 98.166 -50 134.499s-77.666 54.5 -132.999 54.5c-54 0 -99.667 -18.5 -137 -55.5
s-56 -81.5 -56 -133.5z" />
    <glyph glyph-name="c" unicode="c" horiz-adv-x="481" 
d="M421 106l46.002 -38.0039c-44.667 -53.333 -101.334 -80 -170.001 -80c-70.667 0 -128.834 22.833 -174.501 68.5s-68.5 103.834 -68.5 174.501s22.833 128.834 68.5 174.501s103.834 68.5 174.501 68.5c67.333 0 124.666 -26.667 171.999 -80l-48 -36
c-38 41.333 -79.333 62 -124 62c-55.333 0 -99.666 -18.167 -132.999 -54.5s-50 -81.166 -50 -134.499s16.667 -98.166 50 -134.499s77.666 -54.5 132.999 -54.5c48 0 89.333 21.333 124 64z" />
    <glyph glyph-name="d" unicode="d" horiz-adv-x="611" 
d="M484 0v80.998h-2c-17.333 -30 -43.166 -53 -77.499 -69s-70.166 -24 -107.499 -24c-70.667 0 -128.834 22.833 -174.501 68.5s-68.5 103.834 -68.5 174.501s22.833 128.834 68.5 174.501s103.834 68.5 174.501 68.5c37.333 0 73.166 -8 107.499 -24
s60.166 -39 77.499 -69h2v375h60v-756h-60zM490 230.998c0 52 -18.667 96.498 -56 133.498s-83 55.5 -137 55.5c-55.333 0 -99.666 -18.167 -132.999 -54.5s-50 -81.166 -50 -134.499s16.667 -98.166 50 -134.499s77.666 -54.5 132.999 -54.5c54 0 99.667 18.5 137 55.5
s56 81.5 56 133.5z" />
    <glyph glyph-name="e" unicode="e" horiz-adv-x="556" 
d="M444 124l44.0029 -37.001c-44 -66 -110.667 -99 -200 -99c-70 0 -126.5 22.667 -169.5 68s-64.5 104 -64.5 176c0 69.333 21.667 127 65 173s98.666 69 165.999 69s120.333 -21.5 159 -64.5s58 -93.5 58 -151.5v-42h-388c0 -11.333 1.5 -23.833 4.5 -37.5
s8.66699 -28.667 17 -45s18.666 -31.166 30.999 -44.499s29.166 -24.5 50.499 -33.5s45.333 -13.5 72 -13.5c30.667 0 60.5 7.5 89.5 22.5s50.833 34.833 65.5 59.5zM114.003 269.999l328.002 0.000976562c0 41.333 -15.667 76.666 -47 105.999s-69 44 -113 44
c-30 0 -56.833 -6.5 -80.5 -19.5s-41.334 -28.667 -53.001 -47s-20.334 -34.833 -26.001 -49.5s-8.5 -26 -8.5 -34z" />
    <glyph glyph-name="f" unicode="f" horiz-adv-x="296" 
d="M114 0v408h-96v54h96v151c0 54 14 93.333 42 118s60 37 96 37c28 0 51 -4 69 -12l-12 -52c-13.333 6.66699 -31.333 10 -54 10c-54 0 -81 -41 -81 -123v-129h108v-54h-108v-408h-60z" />
    <glyph glyph-name="g" unicode="g" horiz-adv-x="611" 
d="M544 462l-0.000976562 -431.998c0 -44 -5.66699 -82.667 -17 -116s-25.333 -59.5 -42 -78.5s-36.667 -34.5 -60 -46.5s-45 -19.833 -65 -23.5s-40.667 -5.5 -62 -5.5c-46.667 0 -90.667 8.66699 -132 26s-73.666 41 -96.999 71l47 44c41.333 -58 102 -87 182 -87
c124 0 186 70.667 186 212v64h-2c-38 -60 -96.333 -90 -175 -90c-68 0 -126.167 23.167 -174.5 69.5s-72.5 102.166 -72.5 167.499s24.167 121.166 72.5 167.499s106.5 69.5 174.5 69.5c78.667 0 137 -30 175 -90h2v78h60zM485.999 237.002
c0 50.667 -17.833 93.834 -53.5 129.501s-78.834 53.5 -129.501 53.5s-93.834 -17.833 -129.501 -53.5s-53.5 -78.834 -53.5 -129.501s17.833 -93.834 53.5 -129.501s78.834 -53.5 129.501 -53.5s93.834 17.833 129.501 53.5s53.5 78.834 53.5 129.501z" />
    <glyph glyph-name="h" unicode="h" horiz-adv-x="556" 
d="M80 0v756h60v-375h2c12.667 26.667 33.167 48.834 61.5 66.501s60.5 26.5 96.5 26.5c117.333 0 176 -66.333 176 -199v-275h-60v272c0 98.667 -38.667 148 -116 148c-46.667 0 -85 -16.333 -115 -49s-45 -79.334 -45 -140.001v-231h-60z" />
    <glyph glyph-name="i" unicode="i" horiz-adv-x="240" 
d="M90 0v462h60v-462h-60zM75 645c0 12.667 4.33301 23.334 13 32.001s19.334 13 32.001 13s23.334 -4.33301 32.001 -13s13 -19.334 13 -32.001s-4.33301 -23.334 -13 -32.001s-19.334 -13 -32.001 -13s-23.334 4.33301 -32.001 13s-13 19.334 -13 32.001z" />
    <glyph glyph-name="j" unicode="j" horiz-adv-x="240" 
d="M150 462v-543c0 -52 -9.5 -91.5 -28.5 -118.5s-53.5 -40.5 -103.5 -40.5c-16 0 -32 3 -48 9l9 53c14 -5.33301 26.667 -8 38 -8c29.333 0 48.833 8.83301 58.5 26.5s14.5 42.167 14.5 73.5v548h60zM75 645c0 12.667 4.33301 23.334 13 32.001s19.334 13 32.001 13
s23.334 -4.33301 32.001 -13s13 -19.334 13 -32.001s-4.33301 -23.334 -13 -32.001s-19.334 -13 -32.001 -13s-23.334 4.33301 -32.001 13s-13 19.334 -13 32.001z" />
    <glyph glyph-name="k" unicode="k" horiz-adv-x="481" 
d="M80 0v756h60v-504l228 209h88l-238 -211l266 -250h-91l-253 244v-244h-60z" />
    <glyph glyph-name="l" unicode="l" horiz-adv-x="240" 
d="M90 0v756h60v-756h-60z" />
    <glyph glyph-name="m" unicode="m" horiz-adv-x="852" 
d="M80 0v332c0 12 -0.833008 34.833 -2.5 68.5s-2.5 54.167 -2.5 61.5h60c1.33301 -48.667 2.66602 -75.667 3.99902 -81h3c12.667 26.667 33.167 48.834 61.5 66.501s60.5 26.5 96.5 26.5c32 0 60.5 -8.33301 85.5 -25s42.833 -41.667 53.5 -75
c14 32.667 35.167 57.5 63.5 74.5s59.5 25.5 93.5 25.5c117.333 0 176 -66.333 176 -199v-275h-60v272c0 98.667 -38.667 148 -116 148c-26 0 -48.667 -5.16699 -68 -15.5s-34 -23.833 -44 -40.5s-17.167 -33.667 -21.5 -51s-6.5 -35 -6.5 -53v-260h-60v278
c0 44 -8.16699 78.667 -24.5 104s-40.166 38 -71.499 38c-46.667 0 -85 -16.333 -115 -49s-45 -79.334 -45 -140.001v-231h-60z" />
    <glyph glyph-name="n" unicode="n" horiz-adv-x="556" 
d="M80 0l0.000976562 332c0 12 -0.833008 34.833 -2.5 68.5s-2.5 54.167 -2.5 61.5h60c1.33301 -48.667 2.66602 -75.667 3.99902 -81h3c12.667 26.667 33.167 48.834 61.5 66.501s60.5 26.5 96.5 26.5c117.333 0 176 -66.333 176 -199v-275h-60v272
c0 98.667 -38.667 148 -116 148c-46.667 0 -85 -16.333 -115 -49s-45 -79.334 -45 -140.001v-231h-60z" />
    <glyph glyph-name="o" unicode="o" horiz-adv-x="594" 
d="M54 231c0 70.667 22.833 128.834 68.5 174.501s103.834 68.5 174.501 68.5s128.834 -22.833 174.501 -68.5s68.5 -103.834 68.5 -174.501s-22.833 -128.834 -68.5 -174.501s-103.834 -68.5 -174.501 -68.5s-128.834 22.833 -174.501 68.5s-68.5 103.834 -68.5 174.501z
M114 231c0 -53.333 16.667 -98.166 50 -134.499s77.666 -54.5 132.999 -54.5s99.666 18.167 132.999 54.5s50 81.166 50 134.499s-16.667 98.166 -50 134.499s-77.666 54.5 -132.999 54.5s-99.666 -18.167 -132.999 -54.5s-50 -81.166 -50 -134.499z" />
    <glyph glyph-name="p" unicode="p" horiz-adv-x="611" 
d="M67 -228v690.002h60v-81h2c17.333 30 43.166 53 77.499 69s70.166 24 107.499 24c70.667 0 128.834 -22.833 174.501 -68.5s68.5 -103.834 68.5 -174.501s-22.833 -128.834 -68.5 -174.501s-103.834 -68.5 -174.501 -68.5c-37.333 0 -73.166 8 -107.499 24
s-60.166 39 -77.499 69h-2v-309h-60zM121 231.002c0 -52 18.667 -96.498 56 -133.498s83 -55.5 137 -55.5c55.333 0 99.666 18.167 132.999 54.5s50 81.166 50 134.499s-16.667 98.166 -50 134.499s-77.666 54.5 -132.999 54.5c-54 0 -99.667 -18.5 -137 -55.5
s-56 -81.5 -56 -133.5z" />
    <glyph glyph-name="q" unicode="q" horiz-adv-x="611" 
d="M484 -228v308.998h-2c-17.333 -30 -43.166 -53 -77.499 -69s-70.166 -24 -107.499 -24c-70.667 0 -128.834 22.833 -174.501 68.5s-68.5 103.834 -68.5 174.501s22.833 128.834 68.5 174.501s103.834 68.5 174.501 68.5c37.333 0 73.166 -8 107.499 -24
s60.166 -39 77.499 -69h2v81h60v-690h-60zM490 230.998c0 52 -18.667 96.498 -56 133.498s-83 55.5 -137 55.5c-55.333 0 -99.666 -18.167 -132.999 -54.5s-50 -81.166 -50 -134.499s16.667 -98.166 50 -134.499s77.666 -54.5 132.999 -54.5c54 0 99.667 18.5 137 55.5
s56 81.5 56 133.5z" />
    <glyph glyph-name="r" unicode="r" horiz-adv-x="333" 
d="M80 0l0.000976562 332c0 12 -0.833008 34.833 -2.5 68.5s-2.5 54.167 -2.5 61.5h60c1.33301 -48.667 2.66602 -75.667 3.99902 -81c34.667 62 83.667 93 147 93c10 0 21.667 -1.66699 35 -5l-7 -59c-8 2.66699 -15.667 4 -23 4c-50 0 -87.667 -15 -113 -45
s-38 -69 -38 -117v-252h-60z" />
    <glyph glyph-name="s" unicode="s" horiz-adv-x="426" 
d="M28 82l53.001 36.0039c12 -24 30.333 -42.667 55 -56s51 -20 79 -20s52.667 7.83301 74 23.5s32 36.167 32 61.5c0 23.333 -9.33301 41.166 -28 53.499s-41.5 21.166 -68.5 26.499s-54 11.5 -81 18.5s-49.833 19.833 -68.5 38.5s-28 44.334 -28 77.001
c0 42 15.833 74.667 47.5 98s68.5 35 110.5 35c79.333 0 133.666 -29 162.999 -87l-54 -32c-24 43.333 -60.333 65 -109 65c-24 0 -46.333 -6.66699 -67 -20s-31 -31.333 -31 -54s9.33301 -39.834 28 -51.501s41.5 -20 68.5 -25s54 -10.833 81 -17.5
s49.833 -19.834 68.5 -39.501s28 -46.834 28 -81.501c0 -45.333 -16.167 -80.5 -48.5 -105.5s-71.833 -37.5 -118.5 -37.5c-88.667 0 -150.667 31.333 -186 94z" />
    <glyph glyph-name="t" unicode="t" horiz-adv-x="333" 
d="M306 462l-0.000976562 -54h-132v-301c0 -20.667 5.66699 -36.667 17 -48s27 -17 47 -17c20.667 0 43.334 5.33301 68.001 16l5 -54c-29.333 -10.667 -55.333 -16 -78 -16c-40.667 0 -70.667 11 -90 33s-29 50.667 -29 86v301h-100v54h100v133h60v-133h132z" />
    <glyph glyph-name="u" unicode="u" horiz-adv-x="556" 
d="M471 462l-0.000976562 -332c0 -12 0.833008 -34.833 2.5 -68.5s2.5 -54.167 2.5 -61.5h-60c-1.33301 48.667 -2.66602 75.667 -3.99902 81h-3c-12.667 -26.667 -33.167 -48.834 -61.5 -66.501s-60.5 -26.5 -96.5 -26.5c-117.333 0 -176 66.333 -176 199v275h60v-272
c0 -98.667 38.667 -148 116 -148c46.667 0 85 16.333 115 49s45 79.334 45 140.001v231h60z" />
    <glyph glyph-name="v" unicode="v" horiz-adv-x="463" 
d="M204 0l-189 462h68l154 -397l150 397h61l-182 -462h-62z" />
    <glyph glyph-name="w" unicode="w" horiz-adv-x="704" 
d="M160 0l-145 462h66l112 -387h2l129 387h57l137 -387h2l109 387h60l-136 -462h-62l-138 378h-2l-129 -378h-62z" />
    <glyph glyph-name="x" unicode="x" horiz-adv-x="481" 
d="M6 0l192 250l-165 212h77l128 -175l127 175h75l-163 -212l198 -250h-78l-161 209l-158 -209h-72z" />
    <glyph glyph-name="y" unicode="y" horiz-adv-x="463" 
d="M448 462l-237.998 -605c-25.333 -64.667 -67.666 -97 -126.999 -97c-16.667 0 -36.334 3 -59.001 9l6 56c24.667 -7.33301 42.667 -11 54 -11c19.333 0 34.666 7 45.999 21s21.666 32.667 30.999 56l42 107l-188 464h67l153 -389l149 389h64z" />
    <glyph glyph-name="z" unicode="z" horiz-adv-x="426" 
d="M27 0v36l277 372h-263v54h346v-36l-276 -372h288v-54h-372z" />
    <glyph glyph-name="braceleft" unicode="{" horiz-adv-x="333" 
d="M274 732l0.00292969 -48.0029h-23c-19.333 0 -33.333 -9.33301 -42 -28s-13 -42 -13 -70v-141c0 -31.333 -5.16699 -59.666 -15.5 -84.999s-20.333 -42.666 -30 -51.999s-17.834 -15.666 -24.501 -18.999v-2c7.33301 -4 15.666 -10.667 24.999 -20
s19.166 -26.5 29.499 -51.5s15.5 -53.167 15.5 -84.5v-142c0 -27.333 4.33301 -50.333 13 -69s22.667 -28 42 -28h23v-48h-50c-28 0 -49.667 10.833 -65 32.5s-23 51.167 -23 88.5v146c0 102 -23.333 153 -70 153v48c46.667 0 70 51.333 70 154v145
c0 38 7.66699 67.667 23 89s37 32 65 32h50z" />
    <glyph glyph-name="bar" unicode="|" horiz-adv-x="222" 
d="M87 750h48v-1000h-48v1000z" />
    <glyph glyph-name="braceright" unicode="}" horiz-adv-x="333" 
d="M59 -156l-0.00292969 48.0029h23c19.333 0 33.333 9.33301 42 28s13 42 13 70v141c0 31.333 5.16699 59.666 15.5 84.999s20.333 42.666 30 51.999s17.834 15.666 24.501 18.999v2c-7.33301 4 -15.666 10.667 -24.999 20s-19.166 26.5 -29.499 51.5
s-15.5 53.167 -15.5 84.5v142c0 27.333 -4.33301 50.333 -13 69s-22.667 28 -42 28h-23v48h50c28 0 49.667 -10.833 65 -32.5s23 -51.167 23 -88.5v-146c0 -102 23.333 -153 70 -153v-48c-46.667 0 -70 -51.333 -70 -154v-145c0 -38 -7.66699 -67.667 -23 -89
s-37 -32 -65 -32h-50z" />
    <glyph glyph-name="asciitilde" unicode="~" horiz-adv-x="666" 
d="M529 364l34.001 -32c-28.667 -60 -70.334 -90 -125.001 -90c-21.333 0 -59.666 12 -114.999 36c-48 21.333 -80.667 32 -98 32c-18 0 -33.667 -5.83301 -47 -17.5s-27 -28.5 -41 -50.5l-34 32c31.333 60 73 90 125 90c21.333 0 59.666 -12 114.999 -36
c48 -21.333 80.667 -32 98 -32c18 0 33.667 5.83301 47 17.5s27 28.5 41 50.5z" />
    <glyph glyph-name="uni00A0" unicode="&#xa0;" horiz-adv-x="260" 
 />
    <glyph glyph-name="exclamdown" unicode="&#xa1;" horiz-adv-x="370" 
d="M155 -222v522h60v-522h-60zM233 444c0 -13.333 -4.66699 -24.666 -14 -33.999s-20.666 -14 -33.999 -14s-24.666 4.66699 -33.999 14s-14 20.666 -14 33.999s4.66699 24.666 14 33.999s20.666 14 33.999 14s24.666 -4.66699 33.999 -14s14 -20.666 14 -33.999z" />
    <glyph glyph-name="cent" unicode="&#xa2;" 
d="M256 47l0.00195312 370c-44.667 -6.66699 -79.834 -27.5 -105.501 -62.5s-38.5 -75.5 -38.5 -121.5c0 -44.667 13.167 -84.667 39.5 -120s61.166 -57.333 104.499 -66zM304.002 418v-376c44.667 2 83.334 23.333 116.001 64l46 -38c-42 -51.333 -96 -78 -162 -80v-69h-48
v72c-60.667 8.66699 -109.834 35.5 -147.501 80.5s-56.5 98.833 -56.5 161.5c0 62 19 115 57 159s87 70.333 147 79v72h48v-71c63.333 -0.666992 118 -26.667 164 -78l-48 -36c-33.333 36.667 -72 56.667 -116 60z" />
    <glyph glyph-name="sterling" unicode="&#xa3;" 
d="M58 0l-0.00292969 54h105v288h-95v54h95v117c0 24 3.83301 47.5 11.5 70.5s19.334 45 35.001 66s37.667 38 66 51s60.833 19.5 97.5 19.5c52.667 0 100.334 -18.667 143.001 -56l-40 -48c-33.333 33.333 -68.666 50 -105.999 50c-46 0 -81 -15.333 -105 -46
s-36 -64 -36 -100v-124h165v-54h-165v-288h245v-54h-416z" />
    <glyph glyph-name="currency" unicode="&#xa4;" 
d="M14 142l57 55c-40 43.333 -60 95.666 -60 156.999s20 113.666 60 156.999l-57 55l34 37l57 -56c46 35.333 97.667 53 155 53s109 -17.667 155 -53l57 56l34 -37l-57 -55c40 -43.333 60 -95.666 60 -156.999s-20 -113.666 -60 -156.999l57 -55l-34 -37l-57 56
c-46 -35.333 -97.667 -53 -155 -53s-109 17.667 -155 53l-57 -56zM71 354c0 -52.667 18.6689 -97.834 56.002 -135.501s81.666 -56.5 132.999 -56.5s95.666 18.833 132.999 56.5s56 82.834 56 135.501c0 53.333 -18.5 98.666 -55.5 135.999s-81.5 56 -133.5 56
s-96.5 -18.667 -133.5 -56s-55.5 -82.666 -55.5 -135.999z" />
    <glyph glyph-name="yen" unicode="&#xa5;" 
d="M227 0v180h-170v48h170v77l-9 16h-161v48h134l-191 339h68l192 -344l195 344h65l-191 -339h134v-48h-161l-9 -16v-77h170v-48h-170v-180h-66z" />
    <glyph glyph-name="brokenbar" unicode="&#xa6;" horiz-adv-x="222" 
d="M87 675h48v-350h-48v350zM87 175h48v-350h-48v350z" />
    <glyph glyph-name="section" unicode="&#xa7;" 
d="M212 227l102 -51.999c20 10.667 37.667 24.5 53 41.5s23 35.167 23 54.5c0 39.333 -24.667 72 -74 98l-75 41c-64.667 -21.333 -97 -53 -97 -95c0 -16 3.5 -29.833 10.5 -41.5s14.5 -20.334 22.5 -26.001s19.667 -12.5 35 -20.5zM64 -23.999l60.998 30
c22.667 -60 66 -90 130 -90c32.667 0 61 8.66699 85 26s36 41 36 71c0 24.667 -10.167 46.167 -30.5 64.5s-45.166 33.833 -74.499 46.5s-58.666 26.334 -87.999 41.001s-54.166 34.5 -74.499 59.5s-30.5 54.5 -30.5 88.5c0 56 35.333 99 106 129
c-54.667 33.333 -82 75.666 -82 126.999c0 48.667 18.5 87 55.5 115s80.5 42 130.5 42c36 0 68.667 -7.66699 98 -23s50 -39 62 -71l-58 -34c-19.333 45.333 -54.333 68 -105 68c-32 0 -59.5 -8.5 -82.5 -25.5s-34.5 -40.833 -34.5 -71.5
c0 -23.333 9.83301 -43.833 29.5 -61.5s43.667 -32.834 72 -45.501s56.666 -26.167 84.999 -40.5s52.333 -33.666 72 -57.999s29.5 -52.833 29.5 -85.5c0 -55.333 -29.667 -99.333 -89 -132c50 -29.333 75 -70.333 75 -123c0 -51.333 -18.333 -92 -55 -122
s-80.334 -45 -131.001 -45c-44 0 -83.167 10 -117.5 30s-59.166 50 -74.499 90z" />
    <glyph glyph-name="dieresis" unicode="&#xa8;" horiz-adv-x="240" 
d="M-23 652c0 13.333 4.66699 24.666 14 33.999s20.666 14 33.999 14s24.666 -4.66699 33.999 -14s14 -20.666 14 -33.999s-4.66699 -24.666 -14 -33.999s-20.666 -14 -33.999 -14s-24.666 4.66699 -33.999 14s-14 20.666 -14 33.999zM167 652
c0 13.333 4.66699 24.666 14 33.999s20.666 14 33.999 14s24.666 -4.66699 33.999 -14s14 -20.666 14 -33.999s-4.66699 -24.666 -14 -33.999s-20.666 -14 -33.999 -14s-24.666 4.66699 -33.999 14s-14 20.666 -14 33.999z" />
    <glyph glyph-name="copyright" unicode="&#xa9;" horiz-adv-x="800" 
d="M594 431h-53.9971c-6.66699 28.667 -21.334 53 -44.001 73s-51.334 30.333 -86.001 31c-49.333 0 -88.5 -17.333 -117.5 -52s-43.5 -77.667 -43.5 -129s14.5 -94.333 43.5 -129s68.167 -52 117.5 -52c34.667 0 63.667 10 87 30s37.666 44.667 42.999 74h54
c-6 -48 -26.167 -85.333 -60.5 -112s-75.833 -40 -124.5 -40c-66.667 0 -119 21.333 -157 64s-57 97.667 -57 165s19 122.333 57 165s90.333 64 157 64c48.667 0 90.167 -13.333 124.5 -40s54.5 -64 60.5 -112zM28.0029 354c0 102.667 36.333 190.334 109 263.001
s160.334 109 263.001 109s190.334 -36.333 263.001 -109s109 -160.334 109 -263.001s-36.333 -190.334 -109 -263.001s-160.334 -109 -263.001 -109s-190.334 36.333 -263.001 109s-109 160.334 -109 263.001zM82.0029 354c0 -88 31 -163 93 -225s137 -93 225 -93
s163 31 225 93s93 137 93 225s-31 163 -93 225s-137 93 -225 93s-163 -31 -225 -93s-93 -137 -93 -225z" />
    <glyph glyph-name="ordfeminine" unicode="&#xaa;" horiz-adv-x="337" 
d="M186 602l63.999 0.000976562v9c-1.33301 22.667 -7.83301 39.5 -19.5 50.5s-32.834 16.5 -63.501 16.5c-34 0 -65.333 -11.667 -94 -35l-26 38c32 26 75.667 39 131 39c40.667 0 70.834 -8.33301 90.501 -25s29.5 -44.667 29.5 -84v-80c0 -46 1.66699 -79.667 5 -101h-49
c-1.33301 4 -2.66602 19.333 -3.99902 46h-2c-21.333 -34.667 -56 -52 -104 -52c-31.333 0 -57.5 6.66699 -78.5 20s-31.5 33.666 -31.5 60.999c0 64.667 50.667 97 152 97zM249.999 560.001l-38.001 0.000976562c-86.667 0 -130 -17.667 -130 -53
c0 -11.333 7.33301 -21 22 -29s31.334 -12 50.001 -12c32 0 56 9.16699 72 27.5s24 38.166 24 59.499v7z" />
    <glyph glyph-name="guillemotleft" unicode="&#xab;" horiz-adv-x="481" 
d="M200 34l-137 203l137 203l42 -29l-116 -174l118 -176zM366 34l-137 203l137 203l42 -29l-116 -174l118 -176z" />
    <glyph glyph-name="logicalnot" unicode="&#xac;" horiz-adv-x="666" 
d="M540 134v217h-462v48h510v-265h-48z" />
    <glyph glyph-name="uni00AD" unicode="&#xad;" horiz-adv-x="333" 
d="M43 210v54h247v-54h-247z" />
    <glyph glyph-name="registered" unicode="&#xae;" horiz-adv-x="800" 
d="M319 329l0.000976562 -187.999h-54v429h165c47.333 0 81.666 -10 102.999 -30s32 -49.667 32 -89c0 -68.667 -36 -109.334 -108 -122.001l128 -188h-61l-128 188h-77zM319.001 522.001v-145h69c18.667 0 33.667 0.666992 45 2s23.833 4.16602 37.5 8.49902
s23.834 11.833 30.501 22.5s10 24.334 10 41.001c0 25.333 -9.33301 43.5 -28 54.5s-41.334 16.5 -68.001 16.5h-96zM28.001 354.001c0 102.667 36.333 190.334 109 263.001s160.334 109 263.001 109s190.334 -36.333 263.001 -109s109 -160.334 109 -263.001
s-36.333 -190.334 -109 -263.001s-160.334 -109 -263.001 -109s-190.334 36.333 -263.001 109s-109 160.334 -109 263.001zM82.001 354.001c0 -88 31 -163 93 -225s137 -93 225 -93s163 31 225 93s93 137 93 225s-31 163 -93 225s-137 93 -225 93s-163 -31 -225 -93
s-93 -137 -93 -225z" />
    <glyph glyph-name="macron" unicode="&#xaf;" horiz-adv-x="240" 
d="M252 654v-48h-264v48h264z" />
    <glyph glyph-name="degree" unicode="&#xb0;" horiz-adv-x="400" 
d="M200 432c-40 0 -74 14 -102 42s-42 62.333 -42 103c0 40 14 73.833 42 101.5s62 41.5 102 41.5s74 -13.833 102 -41.5s42 -61.5 42 -101.5c0 -40.667 -14 -75 -42 -103s-62 -42 -102 -42zM200 480c26.667 0 49.334 9.33301 68.001 28s28 41.334 28 68.001
s-9.33301 49.334 -28 68.001s-41.334 28 -68.001 28s-49.334 -9.33301 -68.001 -28s-28 -41.334 -28 -68.001s9.33301 -49.334 28 -68.001s41.334 -28 68.001 -28z" />
    <glyph glyph-name="plusminus" unicode="&#xb1;" horiz-adv-x="666" 
d="M78 327v48h228v183h48v-183h234v-48h-234v-183h-48v183h-228zM82 48v48h502v-48h-502z" />
    <glyph glyph-name="twosuperior" unicode="&#xb2;" horiz-adv-x="338" 
d="M23 289l0.000976562 42.999l172 168c15.333 15.333 26.666 27 33.999 35s14.333 18.667 21 32s10 27.333 10 42c0 18.667 -7.5 33.834 -22.5 45.501s-35.5 17.5 -61.5 17.5c-44 0 -72.667 -19.667 -86 -59l-51 4c8 35.333 25.667 61.333 53 78s56 25 86 25
c39.333 0 71.833 -9.83301 97.5 -29.5s38.5 -46.167 38.5 -79.5c0 -20 -5 -40 -15 -60s-20.167 -35.5 -30.5 -46.5s-25.833 -26.5 -46.5 -46.5l-127 -121h220v-48h-292z" />
    <glyph glyph-name="threesuperior" unicode="&#xb3;" horiz-adv-x="338" 
d="M127 488v48.002h23c24.667 0 46.667 6.16699 66 18.5s29 31.166 29 56.499c0 17.333 -7 31.833 -21 43.5s-32.667 17.5 -56 17.5c-38.667 0 -68 -16.667 -88 -50l-39 25c30.667 48.667 73 73 127 73c37.333 0 68.5 -10 93.5 -30s37.5 -46 37.5 -78
c0 -22.667 -7.66699 -42.834 -23 -60.501s-35 -30.5 -59 -38.5v-2c28.667 -4 51.5 -16 68.5 -36s25.5 -43.667 25.5 -71c0 -36.667 -13.667 -66 -41 -88s-62 -33 -104 -33c-70 0 -116.333 29.667 -139 89l47 18c15.333 -39.333 46 -59 92 -59c22.667 0 43.5 7.66699 62.5 23
s28.5 33 28.5 53c0 54 -37.667 81 -113 81h-17z" />
    <glyph glyph-name="acute" unicode="&#xb4;" horiz-adv-x="240" 
d="M62 564l104 144h80l-134 -144h-50z" />
    <glyph glyph-name="mu" unicode="&#xb5;" horiz-adv-x="556" 
d="M471 462l-0.000976562 -332c0 -12 0.833008 -34.833 2.5 -68.5s2.5 -54.167 2.5 -61.5h-60c-1.33301 48.667 -2.66602 75.667 -3.99902 81h-3c-12.667 -26.667 -33.167 -48.834 -61.5 -66.501s-60.5 -26.5 -96.5 -26.5c-49.333 0 -88.333 12.667 -117 38v-254h-59v690h60
v-272c0 -98.667 38.667 -148 116 -148c46.667 0 85 16.333 115 49s45 79.334 45 140.001v231h60z" />
    <glyph glyph-name="paragraph" unicode="&#xb6;" horiz-adv-x="600" 
d="M267 -126v449c-58 0 -107 18.5 -147 55.5s-60 81.5 -60 133.5c0 62.667 19.5 111 58.5 145s93.833 51 164.5 51h227v-834h-60v786h-123v-786h-60z" />
    <glyph glyph-name="periodcentered" unicode="&#xb7;" horiz-adv-x="260" 
d="M82 318c0 13.333 4.66699 24.666 14 33.999s20.666 14 33.999 14s24.666 -4.66699 33.999 -14s14 -20.666 14 -33.999s-4.66699 -24.666 -14 -33.999s-20.666 -14 -33.999 -14s-24.666 4.66699 -33.999 14s-14 20.666 -14 33.999z" />
    <glyph glyph-name="cedilla" unicode="&#xb8;" horiz-adv-x="240" 
d="M171 0l-46.999 -63.999l2 -2c8.66699 4.66699 19 7 31 7c23.333 0 43 -6.33301 59 -19s24 -30.334 24 -53.001c0 -28 -11.333 -49.167 -34 -63.5s-48.667 -21.5 -78 -21.5c-33.333 0 -65 7 -95 21l14 32c22 -11.333 47.333 -17 76 -17c15.333 0 29.666 3.66699 42.999 11
s20 18 20 32s-5.66699 24.5 -17 31.5s-24.333 10.5 -39 10.5c-15.333 0 -30 -2.66699 -44 -8l-16 15l63 88h38z" />
    <glyph glyph-name="onesuperior" unicode="&#xb9;" horiz-adv-x="338" 
d="M177 289v371l-85 -66l-25 34l110 86h54v-425h-54z" />
    <glyph glyph-name="ordmasculine" unicode="&#xba;" horiz-adv-x="386" 
d="M34 572c0 44 14.5 79.667 43.5 107s67.167 41 114.5 41c46.667 0 85 -13.5 115 -40.5s45 -62.833 45 -107.5c0 -43.333 -15.167 -78.833 -45.5 -106.5s-68.5 -41.5 -114.5 -41.5c-47.333 0 -85.5 13.667 -114.5 41s-43.5 63 -43.5 107zM82 572
c0 -28.667 10.333 -53.5 31 -74.5s47 -31.5 79 -31.5s58.667 10.333 80 31s32 45.667 32 75c0 30.667 -10.333 56 -31 76s-47.667 30 -81 30c-31.333 0 -57.5 -10.5 -78.5 -31.5s-31.5 -45.833 -31.5 -74.5z" />
    <glyph glyph-name="guillemotright" unicode="&#xbb;" horiz-adv-x="481" 
d="M115 440l137 -203l-137 -203l-42 29l116 174l-118 176zM281 440l137 -203l-137 -203l-42 29l116 174l-118 176z" />
    <glyph glyph-name="onequarter" unicode="&#xbc;" horiz-adv-x="778" 
d="M624 0v102h-190v45l185 277h59v-274h64v-48h-64v-102h-54zM624 150v202h-2l-134 -202h136zM146 289v371l-85 -66l-25 34l110 86h54v-425h-54zM115 -6l456 748l46 -28l-457 -748z" />
    <glyph glyph-name="onehalf" unicode="&#xbd;" horiz-adv-x="778" 
d="M138 289v371l-85 -66l-25 34l110 86h54v-425h-54zM106 -6l456 748l46 -28l-457 -748zM458 0l0.000976562 42.999l172 168c15.333 15.333 26.666 27 33.999 35s14.333 18.667 21 32s10 27.333 10 42c0 18.667 -7.5 33.834 -22.5 45.501s-35.5 17.5 -61.5 17.5
c-44 0 -72.667 -19.667 -86 -59l-51 4c8 35.333 25.667 61.333 53 78s56 25 86 25c39.333 0 71.833 -9.83301 97.5 -29.5s38.5 -46.167 38.5 -79.5c0 -20 -5 -40 -15 -60s-20.167 -35.5 -30.5 -46.5s-25.833 -26.5 -46.5 -46.5l-127 -121h220v-48h-292z" />
    <glyph glyph-name="threequarters" unicode="&#xbe;" horiz-adv-x="778" 
d="M640 0v102h-190v45l185 277h59v-274h64v-48h-64v-102h-54zM638 150v202h-2l-134 -202h136zM121 488v48.001h23c63.333 4.66699 95 29.667 95 75c0 17.333 -7 31.833 -21 43.5s-32.667 17.5 -56 17.5c-38.667 0 -68 -16.667 -88 -50l-39 25c30.667 48.667 73 73 127 73
c37.333 0 68.5 -10 93.5 -30s37.5 -46 37.5 -78c0 -22.667 -7.66699 -42.834 -23 -60.501s-35 -30.5 -59 -38.5v-2c28.667 -4 51.5 -16 68.5 -36s25.5 -43.667 25.5 -71c0 -36.667 -13.667 -66 -41 -88s-62 -33 -104 -33c-70 0 -116.667 29.667 -140 89l48 18
c15.333 -39.333 46 -59 92 -59c22.667 0 43.5 7.66699 62.5 23s28.5 33 28.5 53c0 54 -37.667 81 -113 81h-17zM166 -5.99902l456 748l46 -28l-457 -748z" />
    <glyph glyph-name="questiondown" unicode="&#xbf;" horiz-adv-x="463" 
d="M259 300l0.000976562 -84c0 -24.667 -5.33301 -47 -16 -67s-23.667 -37.333 -39 -52l-46 -44c-15.333 -14.667 -28.333 -32 -39 -52s-16 -42 -16 -66c0 -36 10.5 -65.167 31.5 -87.5s49.5 -33.5 85.5 -33.5c34 0 62.5 10.5 85.5 31.5s38.167 49.167 45.5 84.5l65 -8
c-8.66699 -50 -30.834 -89.5 -66.501 -118.5s-78.5 -43.5 -128.5 -43.5c-54 0 -98.167 15.333 -132.5 46s-51.5 72.667 -51.5 126c0 30.667 5.5 57.834 16.5 81.501s24.5 43.167 40.5 58.5l48 44c16 14 29.5 31.167 40.5 51.5s16.5 43.166 16.5 68.499v64h60zM276.001 444
c0 -13.333 -4.66699 -24.666 -14 -33.999s-20.666 -14 -33.999 -14s-24.666 4.66699 -33.999 14s-14 20.666 -14 33.999s4.66699 24.666 14 33.999s20.666 14 33.999 14s24.666 -4.66699 33.999 -14s14 -20.666 14 -33.999z" />
    <glyph glyph-name="Agrave" unicode="&#xc0;" horiz-adv-x="685" 
d="M5 0l309 708h68l298 -708h-74l-77 188h-375l-80 -188h-69zM505 248l-160 388l-165 -388h325zM297 896l104 -144h-50l-134 144h80z" />
    <glyph glyph-name="Aacute" unicode="&#xc1;" horiz-adv-x="685" 
d="M5 0l309 708h68l298 -708h-74l-77 188h-375l-80 -188h-69zM505 248l-160 388l-165 -388h325zM285 752l104 144h80l-134 -144h-50z" />
    <glyph glyph-name="Acircumflex" unicode="&#xc2;" horiz-adv-x="685" 
d="M5 0l309 708h68l298 -708h-74l-77 188h-375l-80 -188h-69zM505 248l-160 388l-165 -388h325zM200 752l108 144h70l108 -144h-65l-81 108l-81 -108h-59z" />
    <glyph glyph-name="Atilde" unicode="&#xc3;" horiz-adv-x="685" 
d="M5 0l309 708h68l298 -708h-74l-77 188h-375l-80 -188h-69zM505 248l-160 388l-165 -388h325zM223 769l-36 -0.000976562c3.33301 26.667 12.333 49.334 27 68.001c17.333 22.667 38.333 34 63 34c18 0 43 -8.33301 75 -25c30.667 -15.333 51.667 -23 63 -23
c25.333 0 41.333 16 48 48h36c-3.33301 -28 -11.333 -51 -24 -69c-15.333 -22 -35.333 -33 -60 -33c-15.333 0 -40.333 8 -75 24s-56.667 24 -66 24c-26 0 -43 -16 -51 -48z" />
    <glyph glyph-name="Adieresis" unicode="&#xc4;" horiz-adv-x="685" 
d="M5 0l309 708h68l298 -708h-74l-77 188h-375l-80 -188h-69zM505 248l-160 388l-165 -388h325zM200 840c0 13.333 4.66699 24.666 14 33.999s20.666 14 33.999 14s24.666 -4.66699 33.999 -14s14 -20.666 14 -33.999s-4.66699 -24.666 -14 -33.999s-20.666 -14 -33.999 -14
s-24.666 4.66699 -33.999 14s-14 20.666 -14 33.999zM390 840c0 13.333 4.66699 24.666 14 33.999s20.666 14 33.999 14s24.666 -4.66699 33.999 -14s14 -20.666 14 -33.999s-4.66699 -24.666 -14 -33.999s-20.666 -14 -33.999 -14s-24.666 4.66699 -33.999 14
s-14 20.666 -14 33.999z" />
    <glyph glyph-name="Aring" unicode="&#xc5;" horiz-adv-x="685" 
d="M5 0l309 708h68l298 -708h-74l-77 188h-375l-80 -188h-69zM505 248l-160 388l-165 -388h325zM250 837c0 26 9.16699 48.332 27.5 66.999s40.5 28 66.5 28c25.333 0 47 -9.66699 65 -29s27 -41.666 27 -66.999c0 -24.667 -9 -46.5 -27 -65.5s-39.667 -28.5 -65 -28.5
c-26 0 -48.167 9.33301 -66.5 28s-27.5 41 -27.5 67zM400 836.999c0 16.667 -5.33301 30.668 -16 42.001s-24.334 17 -41.001 17c-16 0 -29.5 -5.83301 -40.5 -17.5s-16.5 -25.834 -16.5 -42.501s5.5 -30.5 16.5 -41.5s24.5 -16.5 40.5 -16.5
c16.667 0 30.334 5.66699 41.001 17s16 25.333 16 42z" />
    <glyph glyph-name="AE" unicode="&#xc6;" horiz-adv-x="926" 
d="M-5 0l461 708h403v-60h-293v-252h276v-60h-276v-276h301v-60h-367v188h-312l-123 -188h-70zM500 248v400h-12l-261 -400h273z" />
    <glyph glyph-name="Ccedilla" unicode="&#xc7;" horiz-adv-x="704" 
d="M626 152l54.002 -40.998c-62.667 -86 -150.334 -129 -263.001 -129c-12 0 -21 0.333008 -27 1l-34 -47l2 -2c8.66699 4.66699 19 7 31 7c23.333 0 43 -6.33301 59 -19s24 -30.334 24 -53.001c0 -28 -11.333 -49.167 -34 -63.5s-48.667 -21.5 -78 -21.5
c-33.333 0 -65 7 -95 21l14 32c22 -11.333 47.333 -17 76 -17c15.333 0 29.666 3.66699 42.999 11s20 18 20 32s-5.66699 24.5 -17 31.5s-24.333 10.5 -39 10.5c-15.333 0 -30 -2.66699 -44 -8l-16 15l54 75c-91.333 12.667 -165 52.667 -221 120s-84 149.666 -84 246.999
c0 108.667 34.167 197.834 102.5 267.501s156.166 104.5 263.499 104.5c104.667 0 186 -37 244 -111l-54 -45c-21.333 31.333 -49 55.166 -83 71.499s-69.667 24.5 -107 24.5c-90.667 0 -163.334 -29.5 -218.001 -88.5s-82 -133.5 -82 -223.5s27.333 -164.5 82 -223.5
s127.334 -88.5 218.001 -88.5c38.667 0 77.334 9.33301 116.001 28s69.667 46 93 82z" />
    <glyph glyph-name="Egrave" unicode="&#xc8;" horiz-adv-x="593" 
d="M97 0v708h433v-60h-367v-252h344v-60h-344v-276h383v-60h-449zM251 896l104 -144h-50l-134 144h80z" />
    <glyph glyph-name="Eacute" unicode="&#xc9;" horiz-adv-x="593" 
d="M97 0v708h433v-60h-367v-252h344v-60h-344v-276h383v-60h-449zM239 752l104 144h80l-134 -144h-50z" />
    <glyph glyph-name="Ecircumflex" unicode="&#xca;" horiz-adv-x="593" 
d="M97 0v708h433v-60h-367v-252h344v-60h-344v-276h383v-60h-449zM154 752l108 144h70l108 -144h-65l-81 108l-81 -108h-59z" />
    <glyph glyph-name="Edieresis" unicode="&#xcb;" horiz-adv-x="593" 
d="M97 0v708h433v-60h-367v-252h344v-60h-344v-276h383v-60h-449zM154 840c0 13.333 4.66699 24.666 14 33.999s20.666 14 33.999 14s24.666 -4.66699 33.999 -14s14 -20.666 14 -33.999s-4.66699 -24.666 -14 -33.999s-20.666 -14 -33.999 -14s-24.666 4.66699 -33.999 14
s-14 20.666 -14 33.999zM344 840c0 13.333 4.66699 24.666 14 33.999s20.666 14 33.999 14s24.666 -4.66699 33.999 -14s14 -20.666 14 -33.999s-4.66699 -24.666 -14 -33.999s-20.666 -14 -33.999 -14s-24.666 4.66699 -33.999 14s-14 20.666 -14 33.999z" />
    <glyph glyph-name="Igrave" unicode="&#xcc;" horiz-adv-x="260" 
d="M97 0v708h66v-708h-66zM84 896l104 -144h-50l-134 144h80z" />
    <glyph glyph-name="Iacute" unicode="&#xcd;" horiz-adv-x="260" 
d="M97 0v708h66v-708h-66zM72 752l104 144h80l-134 -144h-50z" />
    <glyph glyph-name="Icircumflex" unicode="&#xce;" horiz-adv-x="260" 
d="M97 0v708h66v-708h-66zM-13 752l108 144h70l108 -144h-65l-81 108l-81 -108h-59z" />
    <glyph glyph-name="Idieresis" unicode="&#xcf;" horiz-adv-x="260" 
d="M97 0v708h66v-708h-66zM-13 840c0 13.333 4.66699 24.666 14 33.999s20.666 14 33.999 14s24.666 -4.66699 33.999 -14s14 -20.666 14 -33.999s-4.66699 -24.666 -14 -33.999s-20.666 -14 -33.999 -14s-24.666 4.66699 -33.999 14s-14 20.666 -14 33.999zM177 840
c0 13.333 4.66699 24.666 14 33.999s20.666 14 33.999 14s24.666 -4.66699 33.999 -14s14 -20.666 14 -33.999s-4.66699 -24.666 -14 -33.999s-20.666 -14 -33.999 -14s-24.666 4.66699 -33.999 14s-14 20.666 -14 33.999z" />
    <glyph glyph-name="Eth" unicode="&#xd0;" horiz-adv-x="741" 
d="M154 648v-251.998h258v-54h-258v-282h136c99.333 0 179.833 24.667 241.5 74s92.5 122.666 92.5 219.999s-30.833 170.666 -92.5 219.999s-142.167 74 -241.5 74h-136zM88 0.00195312v341.998h-78v54h78v312h219c50 0 95.5 -5.83301 136.5 -17.5
s74.5 -26.167 100.5 -43.5s48.667 -38.166 68 -62.499s33.833 -47.333 43.5 -69s17.334 -44.667 23.001 -69s9 -43 10 -56s1.5 -25.167 1.5 -36.5s-0.5 -23.5 -1.5 -36.5s-4.33301 -31.667 -10 -56s-13.334 -47.333 -23.001 -69s-24.167 -44.667 -43.5 -69
s-42 -45.166 -68 -62.499s-59.5 -31.833 -100.5 -43.5s-86.5 -17.5 -136.5 -17.5h-219z" />
    <glyph glyph-name="Ntilde" unicode="&#xd1;" horiz-adv-x="778" 
d="M97 0v708h85l431 -620h2v620h66v-708h-85l-431 620h-2v-620h-66zM269 769l-36 -0.000976562c3.33301 26.667 12.333 49.334 27 68.001c17.333 22.667 38.333 34 63 34c18 0 43 -8.33301 75 -25c30.667 -15.333 51.667 -23 63 -23c25.333 0 41.333 16 48 48h36
c-3.33301 -28 -11.333 -51 -24 -69c-15.333 -22 -35.333 -33 -60 -33c-15.333 0 -40.333 8 -75 24s-56.667 24 -66 24c-26 0 -43 -16 -51 -48z" />
    <glyph glyph-name="Ograve" unicode="&#xd2;" horiz-adv-x="834" 
d="M51 354c0 108.667 34.167 197.834 102.5 267.501s156.166 104.5 263.499 104.5s195.166 -34.833 263.499 -104.5s102.5 -158.834 102.5 -267.501s-34.167 -197.834 -102.5 -267.501s-156.166 -104.5 -263.499 -104.5s-195.166 34.833 -263.499 104.5
s-102.5 158.834 -102.5 267.501zM117 354c0 -90 27.333 -164.5 82 -223.5s127.334 -88.5 218.001 -88.5s163.334 29.5 218.001 88.5s82 133.5 82 223.5s-27.333 164.5 -82 223.5s-127.334 88.5 -218.001 88.5s-163.334 -29.5 -218.001 -88.5s-82 -133.5 -82 -223.5zM371 896
l104 -144h-50l-134 144h80z" />
    <glyph glyph-name="Oacute" unicode="&#xd3;" horiz-adv-x="834" 
d="M51 354c0 108.667 34.167 197.834 102.5 267.501s156.166 104.5 263.499 104.5s195.166 -34.833 263.499 -104.5s102.5 -158.834 102.5 -267.501s-34.167 -197.834 -102.5 -267.501s-156.166 -104.5 -263.499 -104.5s-195.166 34.833 -263.499 104.5
s-102.5 158.834 -102.5 267.501zM117 354c0 -90 27.333 -164.5 82 -223.5s127.334 -88.5 218.001 -88.5s163.334 29.5 218.001 88.5s82 133.5 82 223.5s-27.333 164.5 -82 223.5s-127.334 88.5 -218.001 88.5s-163.334 -29.5 -218.001 -88.5s-82 -133.5 -82 -223.5zM359 752
l104 144h80l-134 -144h-50z" />
    <glyph glyph-name="Ocircumflex" unicode="&#xd4;" horiz-adv-x="834" 
d="M51 354c0 108.667 34.167 197.834 102.5 267.501s156.166 104.5 263.499 104.5s195.166 -34.833 263.499 -104.5s102.5 -158.834 102.5 -267.501s-34.167 -197.834 -102.5 -267.501s-156.166 -104.5 -263.499 -104.5s-195.166 34.833 -263.499 104.5
s-102.5 158.834 -102.5 267.501zM117 354c0 -90 27.333 -164.5 82 -223.5s127.334 -88.5 218.001 -88.5s163.334 29.5 218.001 88.5s82 133.5 82 223.5s-27.333 164.5 -82 223.5s-127.334 88.5 -218.001 88.5s-163.334 -29.5 -218.001 -88.5s-82 -133.5 -82 -223.5zM274 752
l108 144h70l108 -144h-65l-81 108l-81 -108h-59z" />
    <glyph glyph-name="Otilde" unicode="&#xd5;" horiz-adv-x="834" 
d="M51 354c0 108.667 34.167 197.834 102.5 267.501s156.166 104.5 263.499 104.5s195.166 -34.833 263.499 -104.5s102.5 -158.834 102.5 -267.501s-34.167 -197.834 -102.5 -267.501s-156.166 -104.5 -263.499 -104.5s-195.166 34.833 -263.499 104.5
s-102.5 158.834 -102.5 267.501zM117 354c0 -90 27.333 -164.5 82 -223.5s127.334 -88.5 218.001 -88.5s163.334 29.5 218.001 88.5s82 133.5 82 223.5s-27.333 164.5 -82 223.5s-127.334 88.5 -218.001 88.5s-163.334 -29.5 -218.001 -88.5s-82 -133.5 -82 -223.5zM297 769
l-36 -0.000976562c3.33301 26.667 12.333 49.334 27 68.001c17.333 22.667 38.333 34 63 34c18 0 43 -8.33301 75 -25c30.667 -15.333 51.667 -23 63 -23c25.333 0 41.333 16 48 48h36c-3.33301 -28 -11.333 -51 -24 -69c-15.333 -22 -35.333 -33 -60 -33
c-15.333 0 -40.333 8 -75 24s-56.667 24 -66 24c-26 0 -43 -16 -51 -48z" />
    <glyph glyph-name="Odieresis" unicode="&#xd6;" horiz-adv-x="834" 
d="M51 354c0 108.667 34.167 197.834 102.5 267.501s156.166 104.5 263.499 104.5s195.166 -34.833 263.499 -104.5s102.5 -158.834 102.5 -267.501s-34.167 -197.834 -102.5 -267.501s-156.166 -104.5 -263.499 -104.5s-195.166 34.833 -263.499 104.5
s-102.5 158.834 -102.5 267.501zM117 354c0 -90 27.333 -164.5 82 -223.5s127.334 -88.5 218.001 -88.5s163.334 29.5 218.001 88.5s82 133.5 82 223.5s-27.333 164.5 -82 223.5s-127.334 88.5 -218.001 88.5s-163.334 -29.5 -218.001 -88.5s-82 -133.5 -82 -223.5zM274 840
c0 13.333 4.66699 24.666 14 33.999s20.666 14 33.999 14s24.666 -4.66699 33.999 -14s14 -20.666 14 -33.999s-4.66699 -24.666 -14 -33.999s-20.666 -14 -33.999 -14s-24.666 4.66699 -33.999 14s-14 20.666 -14 33.999zM464 840c0 13.333 4.66699 24.666 14 33.999
s20.666 14 33.999 14s24.666 -4.66699 33.999 -14s14 -20.666 14 -33.999s-4.66699 -24.666 -14 -33.999s-20.666 -14 -33.999 -14s-24.666 4.66699 -33.999 14s-14 20.666 -14 33.999z" />
    <glyph glyph-name="multiply" unicode="&#xd7;" horiz-adv-x="666" 
d="M136 535l198 -198l199 198l33 -34l-199 -198l198 -198l-34 -34l-197 199l-199 -199l-35 34l200 198l-198 198z" />
    <glyph glyph-name="Oslash" unicode="&#xd8;" horiz-adv-x="834" 
d="M68 15l76.002 82c-62 68 -93 153.667 -93 257c0 108.667 34.167 197.834 102.5 267.501s156.166 104.5 263.499 104.5c91.333 0 169.666 -26.333 234.999 -79l74 81l34 -31l-75 -81c65.333 -68.667 98 -156 98 -262c0 -108.667 -34.167 -197.834 -102.5 -267.501
s-156.166 -104.5 -263.499 -104.5c-94.667 0 -174.334 27.667 -239.001 83l-75 -81zM188.002 144l421.001 457c-52.667 43.333 -116.667 65 -192 65c-90.667 0 -163.334 -29.5 -218.001 -88.5s-82 -133.5 -82 -223.5c0 -84.667 23.667 -154.667 71 -210zM642.003 569
l-422.001 -458c52 -46 117.667 -69 197 -69c90.667 0 163.334 29.5 218.001 88.5s82 133.5 82 223.5c0 87.333 -25 159 -75 215z" />
    <glyph glyph-name="Ugrave" unicode="&#xd9;" horiz-adv-x="684" 
d="M600 708v-437c0 -39.333 -4.5 -75.666 -13.5 -108.999s-23.167 -63.833 -42.5 -91.5s-46.166 -49.334 -80.499 -65.001s-74.833 -23.5 -121.5 -23.5s-87.167 7.83301 -121.5 23.5s-61.166 37.334 -80.499 65.001s-33.5 58.167 -42.5 91.5s-13.5 69.666 -13.5 108.999v437
h66v-420c0 -22.667 1.33301 -44.167 4 -64.5s8.16699 -42 16.5 -65s19.166 -42.667 32.499 -59s32 -30 56 -41s51.667 -16.5 83 -16.5s59 5.5 83 16.5s42.667 24.667 56 41s24.166 36 32.499 59s13.833 44.667 16.5 65s4 41.833 4 64.5v420h66zM296 896l104 -144h-50
l-134 144h80z" />
    <glyph glyph-name="Uacute" unicode="&#xda;" horiz-adv-x="684" 
d="M600 708v-437c0 -39.333 -4.5 -75.666 -13.5 -108.999s-23.167 -63.833 -42.5 -91.5s-46.166 -49.334 -80.499 -65.001s-74.833 -23.5 -121.5 -23.5s-87.167 7.83301 -121.5 23.5s-61.166 37.334 -80.499 65.001s-33.5 58.167 -42.5 91.5s-13.5 69.666 -13.5 108.999v437
h66v-420c0 -22.667 1.33301 -44.167 4 -64.5s8.16699 -42 16.5 -65s19.166 -42.667 32.499 -59s32 -30 56 -41s51.667 -16.5 83 -16.5s59 5.5 83 16.5s42.667 24.667 56 41s24.166 36 32.499 59s13.833 44.667 16.5 65s4 41.833 4 64.5v420h66zM284 752l104 144h80
l-134 -144h-50z" />
    <glyph glyph-name="Ucircumflex" unicode="&#xdb;" horiz-adv-x="684" 
d="M600 708v-437c0 -39.333 -4.5 -75.666 -13.5 -108.999s-23.167 -63.833 -42.5 -91.5s-46.166 -49.334 -80.499 -65.001s-74.833 -23.5 -121.5 -23.5s-87.167 7.83301 -121.5 23.5s-61.166 37.334 -80.499 65.001s-33.5 58.167 -42.5 91.5s-13.5 69.666 -13.5 108.999v437
h66v-420c0 -22.667 1.33301 -44.167 4 -64.5s8.16699 -42 16.5 -65s19.166 -42.667 32.499 -59s32 -30 56 -41s51.667 -16.5 83 -16.5s59 5.5 83 16.5s42.667 24.667 56 41s24.166 36 32.499 59s13.833 44.667 16.5 65s4 41.833 4 64.5v420h66zM199 752l108 144h70l108 -144
h-65l-81 108l-81 -108h-59z" />
    <glyph glyph-name="Udieresis" unicode="&#xdc;" horiz-adv-x="684" 
d="M600 708v-437c0 -39.333 -4.5 -75.666 -13.5 -108.999s-23.167 -63.833 -42.5 -91.5s-46.166 -49.334 -80.499 -65.001s-74.833 -23.5 -121.5 -23.5s-87.167 7.83301 -121.5 23.5s-61.166 37.334 -80.499 65.001s-33.5 58.167 -42.5 91.5s-13.5 69.666 -13.5 108.999v437
h66v-420c0 -22.667 1.33301 -44.167 4 -64.5s8.16699 -42 16.5 -65s19.166 -42.667 32.499 -59s32 -30 56 -41s51.667 -16.5 83 -16.5s59 5.5 83 16.5s42.667 24.667 56 41s24.166 36 32.499 59s13.833 44.667 16.5 65s4 41.833 4 64.5v420h66zM199 840
c0 13.333 4.66699 24.666 14 33.999s20.666 14 33.999 14s24.666 -4.66699 33.999 -14s14 -20.666 14 -33.999s-4.66699 -24.666 -14 -33.999s-20.666 -14 -33.999 -14s-24.666 4.66699 -33.999 14s-14 20.666 -14 33.999zM389 840c0 13.333 4.66699 24.666 14 33.999
s20.666 14 33.999 14s24.666 -4.66699 33.999 -14s14 -20.666 14 -33.999s-4.66699 -24.666 -14 -33.999s-20.666 -14 -33.999 -14s-24.666 4.66699 -33.999 14s-14 20.666 -14 33.999z" />
    <glyph glyph-name="Yacute" unicode="&#xdd;" horiz-adv-x="574" 
d="M254 0v305l-260 403h79l214 -336l219 336h74l-260 -403v-305h-66zM229 752l104 144h80l-134 -144h-50z" />
    <glyph glyph-name="Thorn" unicode="&#xde;" horiz-adv-x="574" 
d="M97 0v708h65v-156h139c27.333 0 53.5 -3 78.5 -9s49.167 -15.5 72.5 -28.5s42 -32.333 56 -58s21 -56.167 21 -91.5c0 -60.667 -20.5 -106.667 -61.5 -138s-91.5 -47 -151.5 -47h-153v-180h-66zM163 492l-0.000976562 -252h150c42.667 0 78.334 10 107.001 30
s43 51.667 43 95c0 42.667 -15 74.5 -45 95.5s-66.333 31.5 -109 31.5h-146z" />
    <glyph glyph-name="germandbls" unicode="&#xdf;" horiz-adv-x="593" 
d="M266 404l-0.00195312 54h15c40 0 72.5 11.667 97.5 35s37.5 54.666 37.5 93.999c0 40.667 -12 72 -36 94s-55.333 33 -94 33c-51.333 0 -88.5 -17.5 -111.5 -52.5s-34.5 -80.5 -34.5 -136.5v-525h-60v534c0 70 18.5 126.5 55.5 169.5s88.833 64.5 155.5 64.5
c54 0 98.333 -15.833 133 -47.5s52 -75.5 52 -131.5c0 -38.667 -9 -71.667 -27 -99s-42 -45.666 -72 -54.999v-2c106 -20 159 -90.667 159 -212c0 -70.667 -22.833 -126.167 -68.5 -166.5s-105.167 -60.5 -178.5 -60.5c-18 0 -33.667 1.66699 -47 5v58
c14.667 -6 32.334 -9 53.001 -9c54 0 97.667 15.667 131 47s50 73 50 125c0 59.333 -18.167 104.833 -54.5 136.5s-81.166 47.5 -134.499 47.5h-21z" />
    <glyph glyph-name="agrave" unicode="&#xe0;" horiz-adv-x="519" 
d="M439 307l0.00195312 -113c0 -84 3 -148.667 9 -194h-56c-4 22.667 -6 47.667 -6 75h-2c-33.333 -58 -87.333 -87 -162 -87c-44.667 0 -83 11.5 -115 34.5s-48 57.167 -48 102.5c0 103.333 85.333 155 256 155h70v28c0 38 -11.833 66.167 -35.5 84.5
s-55.167 27.5 -94.5 27.5c-53.333 0 -100.333 -17.333 -141 -52l-35 41c21.333 20 48.166 35.833 80.499 47.5s64.166 17.5 95.499 17.5c58 0 103.167 -13.667 135.5 -41s48.5 -69.333 48.5 -126zM385.002 232l-65.999 0.000976562
c-56.667 0 -104.167 -8.16699 -142.5 -24.5s-57.5 -42.833 -57.5 -79.5c0 -26.667 10.667 -47.667 32 -63s45.666 -23 72.999 -23c58.667 0 100.167 15.167 124.5 45.5s36.5 68.166 36.5 113.499v31zM214.003 708.001l104 -144h-50l-134 144h80z" />
    <glyph glyph-name="aacute" unicode="&#xe1;" horiz-adv-x="519" 
d="M439 307l0.00195312 -113c0 -84 3 -148.667 9 -194h-56c-4 22.667 -6 47.667 -6 75h-2c-33.333 -58 -87.333 -87 -162 -87c-44.667 0 -83 11.5 -115 34.5s-48 57.167 -48 102.5c0 103.333 85.333 155 256 155h70v28c0 38 -11.833 66.167 -35.5 84.5
s-55.167 27.5 -94.5 27.5c-53.333 0 -100.333 -17.333 -141 -52l-35 41c21.333 20 48.166 35.833 80.499 47.5s64.166 17.5 95.499 17.5c58 0 103.167 -13.667 135.5 -41s48.5 -69.333 48.5 -126zM385.002 232l-65.999 0.000976562
c-56.667 0 -104.167 -8.16699 -142.5 -24.5s-57.5 -42.833 -57.5 -79.5c0 -26.667 10.667 -47.667 32 -63s45.666 -23 72.999 -23c58.667 0 100.167 15.167 124.5 45.5s36.5 68.166 36.5 113.499v31zM202.003 564.001l104 144h80l-134 -144h-50z" />
    <glyph glyph-name="acircumflex" unicode="&#xe2;" horiz-adv-x="519" 
d="M439 307l0.00195312 -113c0 -84 3 -148.667 9 -194h-56c-4 22.667 -6 47.667 -6 75h-2c-33.333 -58 -87.333 -87 -162 -87c-44.667 0 -83 11.5 -115 34.5s-48 57.167 -48 102.5c0 103.333 85.333 155 256 155h70v28c0 38 -11.833 66.167 -35.5 84.5
s-55.167 27.5 -94.5 27.5c-53.333 0 -100.333 -17.333 -141 -52l-35 41c21.333 20 48.166 35.833 80.499 47.5s64.166 17.5 95.499 17.5c58 0 103.167 -13.667 135.5 -41s48.5 -69.333 48.5 -126zM385.002 232l-65.999 0.000976562
c-56.667 0 -104.167 -8.16699 -142.5 -24.5s-57.5 -42.833 -57.5 -79.5c0 -26.667 10.667 -47.667 32 -63s45.666 -23 72.999 -23c58.667 0 100.167 15.167 124.5 45.5s36.5 68.166 36.5 113.499v31zM117.003 564.001l108 144h70l108 -144h-65l-81 108l-81 -108h-59z" />
    <glyph glyph-name="atilde" unicode="&#xe3;" horiz-adv-x="519" 
d="M439 307l0.00195312 -113c0 -84 3 -148.667 9 -194h-56c-4 22.667 -6 47.667 -6 75h-2c-33.333 -58 -87.333 -87 -162 -87c-44.667 0 -83 11.5 -115 34.5s-48 57.167 -48 102.5c0 103.333 85.333 155 256 155h70v28c0 38 -11.833 66.167 -35.5 84.5
s-55.167 27.5 -94.5 27.5c-53.333 0 -100.333 -17.333 -141 -52l-35 41c21.333 20 48.166 35.833 80.499 47.5s64.166 17.5 95.499 17.5c58 0 103.167 -13.667 135.5 -41s48.5 -69.333 48.5 -126zM385.002 232l-65.999 0.000976562
c-56.667 0 -104.167 -8.16699 -142.5 -24.5s-57.5 -42.833 -57.5 -79.5c0 -26.667 10.667 -47.667 32 -63s45.666 -23 72.999 -23c58.667 0 100.167 15.167 124.5 45.5s36.5 68.166 36.5 113.499v31zM140.003 581.001l-36 -0.000976562
c3.33301 26.667 12.333 49.334 27 68.001c17.333 22.667 38.333 34 63 34c18 0 43 -8.33301 75 -25c30.667 -15.333 51.667 -23 63 -23c25.333 0 41.333 16 48 48h36c-3.33301 -28 -12 -52 -26 -72s-33.333 -30 -58 -30c-15.333 0 -40.333 8 -75 24s-56.667 24 -66 24
c-26 0 -43 -16 -51 -48z" />
    <glyph glyph-name="adieresis" unicode="&#xe4;" horiz-adv-x="519" 
d="M439 307l0.00195312 -113c0 -84 3 -148.667 9 -194h-56c-4 22.667 -6 47.667 -6 75h-2c-33.333 -58 -87.333 -87 -162 -87c-44.667 0 -83 11.5 -115 34.5s-48 57.167 -48 102.5c0 103.333 85.333 155 256 155h70v28c0 38 -11.833 66.167 -35.5 84.5
s-55.167 27.5 -94.5 27.5c-53.333 0 -100.333 -17.333 -141 -52l-35 41c21.333 20 48.166 35.833 80.499 47.5s64.166 17.5 95.499 17.5c58 0 103.167 -13.667 135.5 -41s48.5 -69.333 48.5 -126zM385.002 232l-65.999 0.000976562
c-56.667 0 -104.167 -8.16699 -142.5 -24.5s-57.5 -42.833 -57.5 -79.5c0 -26.667 10.667 -47.667 32 -63s45.666 -23 72.999 -23c58.667 0 100.167 15.167 124.5 45.5s36.5 68.166 36.5 113.499v31zM117.003 652.001c0 13.333 4.66699 24.666 14 33.999
s20.666 14 33.999 14s24.666 -4.66699 33.999 -14s14 -20.666 14 -33.999s-4.66699 -24.666 -14 -33.999s-20.666 -14 -33.999 -14s-24.666 4.66699 -33.999 14s-14 20.666 -14 33.999zM307.003 652.001c0 13.333 4.66699 24.666 14 33.999s20.666 14 33.999 14
s24.666 -4.66699 33.999 -14s14 -20.666 14 -33.999s-4.66699 -24.666 -14 -33.999s-20.666 -14 -33.999 -14s-24.666 4.66699 -33.999 14s-14 20.666 -14 33.999z" />
    <glyph glyph-name="aring" unicode="&#xe5;" horiz-adv-x="519" 
d="M439 307l0.00195312 -113c0 -84 3 -148.667 9 -194h-56c-4 22.667 -6 47.667 -6 75h-2c-33.333 -58 -87.333 -87 -162 -87c-44.667 0 -83 11.5 -115 34.5s-48 57.167 -48 102.5c0 103.333 85.333 155 256 155h70v28c0 38 -11.833 66.167 -35.5 84.5
s-55.167 27.5 -94.5 27.5c-53.333 0 -100.333 -17.333 -141 -52l-35 41c21.333 20 48.166 35.833 80.499 47.5s64.166 17.5 95.499 17.5c58 0 103.167 -13.667 135.5 -41s48.5 -69.333 48.5 -126zM385.002 232l-65.999 0.000976562
c-56.667 0 -104.167 -8.16699 -142.5 -24.5s-57.5 -42.833 -57.5 -79.5c0 -26.667 10.667 -47.667 32 -63s45.666 -23 72.999 -23c58.667 0 100.167 15.167 124.5 45.5s36.5 68.166 36.5 113.499v31zM167.003 649.001c0 26 9.16699 48.332 27.5 66.999s40.5 28 66.5 28
c25.333 0 47 -9.66699 65 -29s27 -41.666 27 -66.999c0 -24.667 -9 -46.5 -27 -65.5s-39.667 -28.5 -65 -28.5c-26 0 -48.167 9.33301 -66.5 28s-27.5 41 -27.5 67zM317.003 649c0 16.667 -5.33301 30.668 -16 42.001s-24.334 17 -41.001 17
c-16 0 -29.5 -5.83301 -40.5 -17.5s-16.5 -25.834 -16.5 -42.501s5.5 -30.5 16.5 -41.5s24.5 -16.5 40.5 -16.5c16.667 0 30.334 5.66699 41.001 17s16 25.333 16 42z" />
    <glyph glyph-name="ae" unicode="&#xe6;" horiz-adv-x="852" 
d="M392 270l0.00390625 9.00098c0 94 -47.333 141 -142 141c-53.333 0 -100.333 -17.333 -141 -52l-35 41c21.333 20 48.166 35.833 80.499 47.5s64.166 17.5 95.499 17.5c44.667 0 81.667 -7.33301 111 -22s52.333 -39.334 69 -74.001c16.667 30 40.667 53.5 72 70.5
s63.666 25.5 96.999 25.5c60.667 0 110.667 -18.5 150 -55.5s59 -92.833 59 -167.5v-35h-356c-2 -49.333 11.167 -90.666 39.5 -123.999s68.5 -50 120.5 -50c57.333 0 101.666 24.667 132.999 74l47 -34c-26 -34 -53.5 -58.167 -82.5 -72.5s-64.833 -21.5 -107.5 -21.5
c-90 0 -150.667 38 -182 114c-36 -76 -103.667 -114 -203 -114c-44.667 0 -83 11.5 -115 34.5s-48 57.167 -48 102.5c0 17.333 3 33.5 9 48.5s16.333 30.167 31 45.5s37.667 27.666 69 36.999s69.333 14 114 14h115zM392.004 216.001l-116.999 0.00195312
c-33.333 0 -61.5 -3.16699 -84.5 -9.5s-39.5 -14.5 -49.5 -24.5s-17 -19.333 -21 -28s-6 -17.334 -6 -26.001c0 -26.667 10.667 -47.667 32 -63s45.666 -23 72.999 -23c58.667 0 102.167 16.167 130.5 48.5s42.5 74.166 42.5 125.499zM452.005 270.003l296 -0.000976562
c-0.666992 44.667 -13.167 80.834 -37.5 108.501s-60.833 41.5 -109.5 41.5c-44.667 0 -80.667 -14.5 -108 -43.5s-41 -64.5 -41 -106.5z" />
    <glyph glyph-name="ccedilla" unicode="&#xe7;" horiz-adv-x="481" 
d="M421 106l46.002 -38.002c-44.667 -53.333 -101.334 -80 -170.001 -80c-6 0 -10.667 0.333008 -14 1l-38 -53l2 -2c8.66699 4.66699 19 7 31 7c23.333 0 43 -6.33301 59 -19s24 -30.334 24 -53.001c0 -28 -11.333 -49.167 -34 -63.5s-48.667 -21.5 -78 -21.5
c-33.333 0 -65 7 -95 21l14 32c22 -11.333 47.333 -17 76 -17c15.333 0 29.666 3.66699 42.999 11s20 18 20 32s-5.66699 24.5 -17 31.5s-24.333 10.5 -39 10.5c-15.333 0 -30 -2.66699 -44 -8l-16 15l57 81c-58 9.33301 -104.833 35.833 -140.5 79.5
s-53.5 96.5 -53.5 158.5c0 70.667 22.833 128.834 68.5 174.501s103.834 68.5 174.501 68.5c67.333 0 124.666 -26.667 171.999 -80l-48 -36c-38 41.333 -79.333 62 -124 62c-55.333 0 -99.666 -18.167 -132.999 -54.5s-50 -81.166 -50 -134.499s16.667 -98.166 50 -134.499
s77.666 -54.5 132.999 -54.5c48 0 89.333 21.333 124 64z" />
    <glyph glyph-name="egrave" unicode="&#xe8;" horiz-adv-x="556" 
d="M444 124l44.0029 -37.001c-44 -66 -110.667 -99 -200 -99c-70 0 -126.5 22.667 -169.5 68s-64.5 104 -64.5 176c0 69.333 21.667 127 65 173s98.666 69 165.999 69s120.333 -21.5 159 -64.5s58 -93.5 58 -151.5v-42h-388c0 -11.333 1.5 -23.833 4.5 -37.5
s8.66699 -28.667 17 -45s18.666 -31.166 30.999 -44.499s29.166 -24.5 50.499 -33.5s45.333 -13.5 72 -13.5c30.667 0 60.5 7.5 89.5 22.5s50.833 34.833 65.5 59.5zM114.003 269.999l328.002 0.000976562c0 41.333 -15.667 76.666 -47 105.999s-69 44 -113 44
c-30 0 -56.833 -6.5 -80.5 -19.5s-41.334 -28.667 -53.001 -47s-20.334 -34.833 -26.001 -49.5s-8.5 -26 -8.5 -34zM232.005 708l104 -144h-50l-134 144h80z" />
    <glyph glyph-name="eacute" unicode="&#xe9;" horiz-adv-x="556" 
d="M444 124l44.0029 -37.001c-44 -66 -110.667 -99 -200 -99c-70 0 -126.5 22.667 -169.5 68s-64.5 104 -64.5 176c0 69.333 21.667 127 65 173s98.666 69 165.999 69s120.333 -21.5 159 -64.5s58 -93.5 58 -151.5v-42h-388c0 -11.333 1.5 -23.833 4.5 -37.5
s8.66699 -28.667 17 -45s18.666 -31.166 30.999 -44.499s29.166 -24.5 50.499 -33.5s45.333 -13.5 72 -13.5c30.667 0 60.5 7.5 89.5 22.5s50.833 34.833 65.5 59.5zM114.003 269.999l328.002 0.000976562c0 41.333 -15.667 76.666 -47 105.999s-69 44 -113 44
c-30 0 -56.833 -6.5 -80.5 -19.5s-41.334 -28.667 -53.001 -47s-20.334 -34.833 -26.001 -49.5s-8.5 -26 -8.5 -34zM220.005 564l104 144h80l-134 -144h-50z" />
    <glyph glyph-name="ecircumflex" unicode="&#xea;" horiz-adv-x="556" 
d="M444 124l44.0029 -37.001c-44 -66 -110.667 -99 -200 -99c-70 0 -126.5 22.667 -169.5 68s-64.5 104 -64.5 176c0 69.333 21.667 127 65 173s98.666 69 165.999 69s120.333 -21.5 159 -64.5s58 -93.5 58 -151.5v-42h-388c0 -11.333 1.5 -23.833 4.5 -37.5
s8.66699 -28.667 17 -45s18.666 -31.166 30.999 -44.499s29.166 -24.5 50.499 -33.5s45.333 -13.5 72 -13.5c30.667 0 60.5 7.5 89.5 22.5s50.833 34.833 65.5 59.5zM114.003 269.999l328.002 0.000976562c0 41.333 -15.667 76.666 -47 105.999s-69 44 -113 44
c-30 0 -56.833 -6.5 -80.5 -19.5s-41.334 -28.667 -53.001 -47s-20.334 -34.833 -26.001 -49.5s-8.5 -26 -8.5 -34zM135.005 564l108 144h70l108 -144h-65l-81 108l-81 -108h-59z" />
    <glyph glyph-name="edieresis" unicode="&#xeb;" horiz-adv-x="556" 
d="M444 124l44.0029 -37.001c-44 -66 -110.667 -99 -200 -99c-70 0 -126.5 22.667 -169.5 68s-64.5 104 -64.5 176c0 69.333 21.667 127 65 173s98.666 69 165.999 69s120.333 -21.5 159 -64.5s58 -93.5 58 -151.5v-42h-388c0 -11.333 1.5 -23.833 4.5 -37.5
s8.66699 -28.667 17 -45s18.666 -31.166 30.999 -44.499s29.166 -24.5 50.499 -33.5s45.333 -13.5 72 -13.5c30.667 0 60.5 7.5 89.5 22.5s50.833 34.833 65.5 59.5zM114.003 269.999l328.002 0.000976562c0 41.333 -15.667 76.666 -47 105.999s-69 44 -113 44
c-30 0 -56.833 -6.5 -80.5 -19.5s-41.334 -28.667 -53.001 -47s-20.334 -34.833 -26.001 -49.5s-8.5 -26 -8.5 -34zM135.005 652c0 13.333 4.66699 24.666 14 33.999s20.666 14 33.999 14s24.666 -4.66699 33.999 -14s14 -20.666 14 -33.999s-4.66699 -24.666 -14 -33.999
s-20.666 -14 -33.999 -14s-24.666 4.66699 -33.999 14s-14 20.666 -14 33.999zM325.005 652c0 13.333 4.66699 24.666 14 33.999s20.666 14 33.999 14s24.666 -4.66699 33.999 -14s14 -20.666 14 -33.999s-4.66699 -24.666 -14 -33.999s-20.666 -14 -33.999 -14
s-24.666 4.66699 -33.999 14s-14 20.666 -14 33.999z" />
    <glyph glyph-name="igrave" unicode="&#xec;" horiz-adv-x="240" 
d="M90 0v462h60v-462h-60zM74 708l104 -144h-50l-134 144h80z" />
    <glyph glyph-name="iacute" unicode="&#xed;" horiz-adv-x="240" 
d="M90 0v462h60v-462h-60zM62 564l104 144h80l-134 -144h-50z" />
    <glyph glyph-name="icircumflex" unicode="&#xee;" horiz-adv-x="240" 
d="M90 0v462h60v-462h-60zM-23 564l108 144h70l108 -144h-65l-81 108l-81 -108h-59z" />
    <glyph glyph-name="idieresis" unicode="&#xef;" horiz-adv-x="240" 
d="M90 0v462h60v-462h-60zM-23 652c0 13.333 4.66699 24.666 14 33.999s20.666 14 33.999 14s24.666 -4.66699 33.999 -14s14 -20.666 14 -33.999s-4.66699 -24.666 -14 -33.999s-20.666 -14 -33.999 -14s-24.666 4.66699 -33.999 14s-14 20.666 -14 33.999zM167 652
c0 13.333 4.66699 24.666 14 33.999s20.666 14 33.999 14s24.666 -4.66699 33.999 -14s14 -20.666 14 -33.999s-4.66699 -24.666 -14 -33.999s-20.666 -14 -33.999 -14s-24.666 4.66699 -33.999 14s-14 20.666 -14 33.999z" />
    <glyph glyph-name="eth" unicode="&#xf0;" horiz-adv-x="594" 
d="M149 604l103.998 55.998c-37.333 34 -68.666 60 -93.999 78l52 30c37.333 -27.333 69 -54 95 -80l104 56l36 -30l-106 -57c133.333 -122 200 -255.667 200 -401c0 -82 -22.5 -147.167 -67.5 -195.5s-103.5 -72.5 -175.5 -72.5c-70.667 0 -128.834 22.833 -174.501 68.5
s-68.5 103.834 -68.5 174.501s22.833 128.834 68.5 174.501s103.834 68.5 174.501 68.5c58.667 0 108.334 -18.333 149.001 -55l2 2c-47.333 84 -101 153 -161 207l-107 -57zM113.998 230.998c0 -53.333 16.667 -98.166 50 -134.499s77.666 -54.5 132.999 -54.5
s99.666 18.167 132.999 54.5s50 81.166 50 134.499s-16.667 98.166 -50 134.499s-77.666 54.5 -132.999 54.5s-99.666 -18.167 -132.999 -54.5s-50 -81.166 -50 -134.499z" />
    <glyph glyph-name="ntilde" unicode="&#xf1;" horiz-adv-x="556" 
d="M80 0l0.000976562 332c0 12 -0.833008 34.833 -2.5 68.5s-2.5 54.167 -2.5 61.5h60c1.33301 -48.667 2.66602 -75.667 3.99902 -81h3c12.667 26.667 33.167 48.834 61.5 66.501s60.5 26.5 96.5 26.5c117.333 0 176 -66.333 176 -199v-275h-60v272
c0 98.667 -38.667 148 -116 148c-46.667 0 -85 -16.333 -115 -49s-45 -79.334 -45 -140.001v-231h-60zM158.001 581l-36 -0.000976562c3.33301 26.667 12.333 49.334 27 68.001c17.333 22.667 38.333 34 63 34c18 0 43 -8.33301 75 -25c30.667 -15.333 51.667 -23 63 -23
c25.333 0 41.333 16 48 48h36c-3.33301 -28 -12 -52 -26 -72s-33.333 -30 -58 -30c-15.333 0 -40.333 8 -75 24s-56.667 24 -66 24c-26 0 -43 -16 -51 -48z" />
    <glyph glyph-name="ograve" unicode="&#xf2;" horiz-adv-x="594" 
d="M54 231c0 70.667 22.833 128.834 68.5 174.501s103.834 68.5 174.501 68.5s128.834 -22.833 174.501 -68.5s68.5 -103.834 68.5 -174.501s-22.833 -128.834 -68.5 -174.501s-103.834 -68.5 -174.501 -68.5s-128.834 22.833 -174.501 68.5s-68.5 103.834 -68.5 174.501z
M114 231c0 -53.333 16.667 -98.166 50 -134.499s77.666 -54.5 132.999 -54.5s99.666 18.167 132.999 54.5s50 81.166 50 134.499s-16.667 98.166 -50 134.499s-77.666 54.5 -132.999 54.5s-99.666 -18.167 -132.999 -54.5s-50 -81.166 -50 -134.499zM251 708l104 -144h-50
l-134 144h80z" />
    <glyph glyph-name="oacute" unicode="&#xf3;" horiz-adv-x="594" 
d="M54 231c0 70.667 22.833 128.834 68.5 174.501s103.834 68.5 174.501 68.5s128.834 -22.833 174.501 -68.5s68.5 -103.834 68.5 -174.501s-22.833 -128.834 -68.5 -174.501s-103.834 -68.5 -174.501 -68.5s-128.834 22.833 -174.501 68.5s-68.5 103.834 -68.5 174.501z
M114 231c0 -53.333 16.667 -98.166 50 -134.499s77.666 -54.5 132.999 -54.5s99.666 18.167 132.999 54.5s50 81.166 50 134.499s-16.667 98.166 -50 134.499s-77.666 54.5 -132.999 54.5s-99.666 -18.167 -132.999 -54.5s-50 -81.166 -50 -134.499zM239 564l104 144h80
l-134 -144h-50z" />
    <glyph glyph-name="ocircumflex" unicode="&#xf4;" horiz-adv-x="594" 
d="M54 231c0 70.667 22.833 128.834 68.5 174.501s103.834 68.5 174.501 68.5s128.834 -22.833 174.501 -68.5s68.5 -103.834 68.5 -174.501s-22.833 -128.834 -68.5 -174.501s-103.834 -68.5 -174.501 -68.5s-128.834 22.833 -174.501 68.5s-68.5 103.834 -68.5 174.501z
M114 231c0 -53.333 16.667 -98.166 50 -134.499s77.666 -54.5 132.999 -54.5s99.666 18.167 132.999 54.5s50 81.166 50 134.499s-16.667 98.166 -50 134.499s-77.666 54.5 -132.999 54.5s-99.666 -18.167 -132.999 -54.5s-50 -81.166 -50 -134.499zM154 564l108 144h70
l108 -144h-65l-81 108l-81 -108h-59z" />
    <glyph glyph-name="otilde" unicode="&#xf5;" horiz-adv-x="594" 
d="M54 231c0 70.667 22.833 128.834 68.5 174.501s103.834 68.5 174.501 68.5s128.834 -22.833 174.501 -68.5s68.5 -103.834 68.5 -174.501s-22.833 -128.834 -68.5 -174.501s-103.834 -68.5 -174.501 -68.5s-128.834 22.833 -174.501 68.5s-68.5 103.834 -68.5 174.501z
M114 231c0 -53.333 16.667 -98.166 50 -134.499s77.666 -54.5 132.999 -54.5s99.666 18.167 132.999 54.5s50 81.166 50 134.499s-16.667 98.166 -50 134.499s-77.666 54.5 -132.999 54.5s-99.666 -18.167 -132.999 -54.5s-50 -81.166 -50 -134.499zM177 581
l-36 -0.000976562c3.33301 26.667 12.333 49.334 27 68.001c17.333 22.667 38.333 34 63 34c18 0 43 -8.33301 75 -25c30.667 -15.333 51.667 -23 63 -23c25.333 0 41.333 16 48 48h36c-3.33301 -28 -12 -52 -26 -72s-33.333 -30 -58 -30c-15.333 0 -40.333 8 -75 24
s-56.667 24 -66 24c-26 0 -43 -16 -51 -48z" />
    <glyph glyph-name="odieresis" unicode="&#xf6;" horiz-adv-x="594" 
d="M54 231c0 70.667 22.833 128.834 68.5 174.501s103.834 68.5 174.501 68.5s128.834 -22.833 174.501 -68.5s68.5 -103.834 68.5 -174.501s-22.833 -128.834 -68.5 -174.501s-103.834 -68.5 -174.501 -68.5s-128.834 22.833 -174.501 68.5s-68.5 103.834 -68.5 174.501z
M114 231c0 -53.333 16.667 -98.166 50 -134.499s77.666 -54.5 132.999 -54.5s99.666 18.167 132.999 54.5s50 81.166 50 134.499s-16.667 98.166 -50 134.499s-77.666 54.5 -132.999 54.5s-99.666 -18.167 -132.999 -54.5s-50 -81.166 -50 -134.499zM154 652
c0 13.333 4.66699 24.666 14 33.999s20.666 14 33.999 14s24.666 -4.66699 33.999 -14s14 -20.666 14 -33.999s-4.66699 -24.666 -14 -33.999s-20.666 -14 -33.999 -14s-24.666 4.66699 -33.999 14s-14 20.666 -14 33.999zM344 652c0 13.333 4.66699 24.666 14 33.999
s20.666 14 33.999 14s24.666 -4.66699 33.999 -14s14 -20.666 14 -33.999s-4.66699 -24.666 -14 -33.999s-20.666 -14 -33.999 -14s-24.666 4.66699 -33.999 14s-14 20.666 -14 33.999z" />
    <glyph glyph-name="divide" unicode="&#xf7;" horiz-adv-x="666" 
d="M78 279v48h510v-48h-510zM282 457c0 14 5 26 15 36s22 15 36 15s26 -5 36 -15s15 -22 15 -36s-5 -26 -15 -36s-22 -15 -36 -15s-26 5 -36 15s-15 22 -15 36zM282 149c0 14 5 25.832 15 35.499s22 14.834 36 15.501c14 0 26 -5 36 -15s15 -22 15 -36s-5 -26 -15 -36
s-22 -15 -36 -15s-26 5 -36 15s-15 22 -15 36z" />
    <glyph glyph-name="oslash" unicode="&#xf8;" horiz-adv-x="594" 
d="M39 2l70.001 70.999c-36.667 42.667 -55 95.334 -55 158.001c0 70.667 22.833 128.834 68.5 174.501s103.834 68.5 174.501 68.5c60.667 0 113 -17.667 157 -53l69 70l32 -29l-71 -71c37.333 -42.667 56 -96 56 -160c0 -70.667 -22.833 -128.834 -68.5 -174.501
s-103.834 -68.5 -174.501 -68.5c-62.667 0 -115.334 18 -158.001 54l-68 -69zM150.001 114.999l262.999 264.999c-32 26.667 -70.667 40 -116 40c-55.333 0 -99.666 -18.167 -132.999 -54.5s-50 -81.166 -50 -134.499c0 -46 12 -84.667 36 -116zM443 348.998
l-262.999 -265.999c30.667 -27.333 69.667 -41 117 -41c55.333 0 99.666 18.167 132.999 54.5s50 81.166 50 134.499c0 48 -12.333 87.333 -37 118z" />
    <glyph glyph-name="ugrave" unicode="&#xf9;" horiz-adv-x="556" 
d="M471 462l-0.000976562 -332c0 -12 0.833008 -34.833 2.5 -68.5s2.5 -54.167 2.5 -61.5h-60c-1.33301 48.667 -2.66602 75.667 -3.99902 81h-3c-12.667 -26.667 -33.167 -48.834 -61.5 -66.501s-60.5 -26.5 -96.5 -26.5c-117.333 0 -176 66.333 -176 199v275h60v-272
c0 -98.667 38.667 -148 116 -148c46.667 0 85 16.333 115 49s45 79.334 45 140.001v231h60zM231.999 708l104 -144h-50l-134 144h80z" />
    <glyph glyph-name="uacute" unicode="&#xfa;" horiz-adv-x="556" 
d="M471 462l-0.000976562 -332c0 -12 0.833008 -34.833 2.5 -68.5s2.5 -54.167 2.5 -61.5h-60c-1.33301 48.667 -2.66602 75.667 -3.99902 81h-3c-12.667 -26.667 -33.167 -48.834 -61.5 -66.501s-60.5 -26.5 -96.5 -26.5c-117.333 0 -176 66.333 -176 199v275h60v-272
c0 -98.667 38.667 -148 116 -148c46.667 0 85 16.333 115 49s45 79.334 45 140.001v231h60zM219.999 564l104 144h80l-134 -144h-50z" />
    <glyph glyph-name="ucircumflex" unicode="&#xfb;" horiz-adv-x="556" 
d="M471 462l-0.000976562 -332c0 -12 0.833008 -34.833 2.5 -68.5s2.5 -54.167 2.5 -61.5h-60c-1.33301 48.667 -2.66602 75.667 -3.99902 81h-3c-12.667 -26.667 -33.167 -48.834 -61.5 -66.501s-60.5 -26.5 -96.5 -26.5c-117.333 0 -176 66.333 -176 199v275h60v-272
c0 -98.667 38.667 -148 116 -148c46.667 0 85 16.333 115 49s45 79.334 45 140.001v231h60zM134.999 564l108 144h70l108 -144h-65l-81 108l-81 -108h-59z" />
    <glyph glyph-name="udieresis" unicode="&#xfc;" horiz-adv-x="556" 
d="M471 462l-0.000976562 -332c0 -12 0.833008 -34.833 2.5 -68.5s2.5 -54.167 2.5 -61.5h-60c-1.33301 48.667 -2.66602 75.667 -3.99902 81h-3c-12.667 -26.667 -33.167 -48.834 -61.5 -66.501s-60.5 -26.5 -96.5 -26.5c-117.333 0 -176 66.333 -176 199v275h60v-272
c0 -98.667 38.667 -148 116 -148c46.667 0 85 16.333 115 49s45 79.334 45 140.001v231h60zM134.999 652c0 13.333 4.66699 24.666 14 33.999s20.666 14 33.999 14s24.666 -4.66699 33.999 -14s14 -20.666 14 -33.999s-4.66699 -24.666 -14 -33.999s-20.666 -14 -33.999 -14
s-24.666 4.66699 -33.999 14s-14 20.666 -14 33.999zM324.999 652c0 13.333 4.66699 24.666 14 33.999s20.666 14 33.999 14s24.666 -4.66699 33.999 -14s14 -20.666 14 -33.999s-4.66699 -24.666 -14 -33.999s-20.666 -14 -33.999 -14s-24.666 4.66699 -33.999 14
s-14 20.666 -14 33.999z" />
    <glyph glyph-name="yacute" unicode="&#xfd;" horiz-adv-x="463" 
d="M448 462l-237.998 -605c-25.333 -64.667 -67.666 -97 -126.999 -97c-16.667 0 -36.334 3 -59.001 9l6 56c24.667 -7.33301 42.667 -11 54 -11c19.333 0 34.666 7 45.999 21s21.666 32.667 30.999 56l42 107l-188 464h67l153 -389l149 389h64zM174.002 564l104 144h80
l-134 -144h-50z" />
    <glyph glyph-name="thorn" unicode="&#xfe;" horiz-adv-x="611" 
d="M67 -228v984.002h60v-375h2c17.333 30 43.166 53 77.499 69s70.166 24 107.499 24c70.667 0 128.834 -22.833 174.501 -68.5s68.5 -103.834 68.5 -174.501s-22.833 -128.834 -68.5 -174.501s-103.834 -68.5 -174.501 -68.5c-37.333 0 -73.166 8 -107.499 24
s-60.166 39 -77.499 69h-2v-309h-60zM121 231.002c0 -52 18.667 -96.498 56 -133.498s83 -55.5 137 -55.5c55.333 0 99.666 18.167 132.999 54.5s50 81.166 50 134.499s-16.667 98.166 -50 134.499s-77.666 54.5 -132.999 54.5c-54 0 -99.667 -18.5 -137 -55.5
s-56 -81.5 -56 -133.5z" />
    <glyph glyph-name="ydieresis" unicode="&#xff;" horiz-adv-x="463" 
d="M448 462l-237.998 -605c-25.333 -64.667 -67.666 -97 -126.999 -97c-16.667 0 -36.334 3 -59.001 9l6 56c24.667 -7.33301 42.667 -11 54 -11c19.333 0 34.666 7 45.999 21s21.666 32.667 30.999 56l42 107l-188 464h67l153 -389l149 389h64zM89.002 652
c0 13.333 4.66699 24.666 14 33.999s20.666 14 33.999 14s24.666 -4.66699 33.999 -14s14 -20.666 14 -33.999s-4.66699 -24.666 -14 -33.999s-20.666 -14 -33.999 -14s-24.666 4.66699 -33.999 14s-14 20.666 -14 33.999zM279.002 652c0 13.333 4.66699 24.666 14 33.999
s20.666 14 33.999 14s24.666 -4.66699 33.999 -14s14 -20.666 14 -33.999s-4.66699 -24.666 -14 -33.999s-20.666 -14 -33.999 -14s-24.666 4.66699 -33.999 14s-14 20.666 -14 33.999z" />
    <glyph glyph-name="dotlessi" unicode="&#x131;" horiz-adv-x="240" 
d="M90 0v462h60v-462h-60z" />
    <glyph glyph-name="Lslash" unicode="&#x141;" horiz-adv-x="500" 
d="M97 0v231l-72 -64v65l72 63v413h66v-358l216 189v-62l-216 -189v-228h330v-60h-396z" />
    <glyph glyph-name="lslash" unicode="&#x142;" horiz-adv-x="240" 
d="M90 0v324l-84 -85v67l84 85v365h60v-305l84 86v-67l-84 -85v-385h-60z" />
    <glyph glyph-name="OE" unicode="&#x152;" horiz-adv-x="944" 
d="M581 336l0.000976562 -276h304v-60h-472c-98 0 -181.5 33 -250.5 99s-103.5 151 -103.5 255c0 74.667 18.667 139.5 56 194.5s84.666 95.333 141.999 121s120 38.5 188 38.5h432v-60h-296v-252h279v-60h-279zM515.001 60v588h-78c-28.667 0 -57.334 -3.5 -86.001 -10.5
s-56.667 -18.333 -84 -34s-51.5 -34.667 -72.5 -57s-37.833 -50 -50.5 -83s-19 -69.5 -19 -109.5c0 -42 7 -80.167 21 -114.5s31.833 -62.333 53.5 -84s46.334 -40 74.001 -55s54.667 -25.5 81 -31.5s51.833 -9 76.5 -9h84z" />
    <glyph glyph-name="oe" unicode="&#x153;" horiz-adv-x="907" 
d="M507 270l296 -0.000976562c-0.666992 44.667 -13.167 80.834 -37.5 108.501s-60.833 41.5 -109.5 41.5c-44.667 0 -80.667 -14.5 -108 -43.5s-41 -64.5 -41 -106.5zM863 215.999h-355.996c-2 -49.333 11.167 -90.666 39.5 -123.999s68.5 -50 120.5 -50
c57.333 0 101.666 24.667 132.999 74l47 -34c-26 -34 -53.5 -58.167 -82.5 -72.5s-64.833 -21.5 -107.5 -21.5c-90 0 -150.667 38 -182 114h-2c-18.667 -36.667 -45.334 -64.834 -80.001 -84.501s-74.334 -29.5 -119.001 -29.5c-66 0 -120.833 23 -164.5 69
s-65.5 104 -65.5 174s21.833 128 65.5 174s98.5 69 164.5 69c92 0 158.333 -38.333 199 -115c13.333 32 35.166 59.167 65.499 81.5s68.833 33.5 115.5 33.5c60.667 0 110.667 -18.5 150 -55.5s59 -92.833 59 -167.5v-35zM104.004 230.999
c0 -51.333 15.833 -95.666 47.5 -132.999s73.167 -56 124.5 -56s92.666 18.167 123.999 54.5s47 81.166 47 134.499s-15.667 98.166 -47 134.499s-72.666 54.5 -123.999 54.5s-92.833 -18.667 -124.5 -56s-47.5 -81.666 -47.5 -132.999z" />
    <glyph glyph-name="Scaron" unicode="&#x160;" horiz-adv-x="556" 
d="M53 89l63.001 42.001c35.333 -59.333 89.333 -89 162 -89c45.333 0 83.166 12.667 113.499 38s45.5 59 45.5 101c0 30.667 -9 56 -27 76s-40.5 34.333 -67.5 43s-56.333 18.667 -88 30s-61 23.166 -88 35.499s-49.5 32.666 -67.5 60.999s-27 63.5 -27 105.5
c0 60 22 107.333 66 142s97.667 52 161 52c83.333 0 147.666 -29.667 192.999 -89l-57 -41c-33.333 46.667 -79.333 70 -138 70c-45.333 0 -83.166 -11.667 -113.499 -35s-45.5 -56.333 -45.5 -99c0 -28.667 6.66699 -52.667 20 -72s30.833 -34.166 52.5 -44.499
s45.334 -19.333 71.001 -27s51.5 -16 77.5 -25s49.833 -20.167 71.5 -33.5s39.167 -32.5 52.5 -57.5s20 -55.5 20 -91.5c0 -61.333 -21.5 -109.833 -64.5 -145.5s-94.833 -53.5 -155.5 -53.5c-102.667 0 -179.334 35.667 -230.001 107zM417.001 896.001l-106 -144h-70
l-109 144h62l83 -114l86 114h54z" />
    <glyph glyph-name="scaron" unicode="&#x161;" horiz-adv-x="426" 
d="M28 82l53.001 36.0039c12 -24 30.333 -42.667 55 -56s51 -20 79 -20s52.667 7.83301 74 23.5s32 36.167 32 61.5c0 23.333 -9.33301 41.166 -28 53.499s-41.5 21.166 -68.5 26.499s-54 11.5 -81 18.5s-49.833 19.833 -68.5 38.5s-28 44.334 -28 77.001
c0 42 15.833 74.667 47.5 98s68.5 35 110.5 35c79.333 0 133.666 -29 162.999 -87l-54 -32c-24 43.333 -60.333 65 -109 65c-24 0 -46.333 -6.66699 -67 -20s-31 -31.333 -31 -54s9.33301 -39.834 28 -51.501s41.5 -20 68.5 -25s54 -10.833 81 -17.5
s49.833 -19.834 68.5 -39.501s28 -46.834 28 -81.501c0 -45.333 -16.167 -80.5 -48.5 -105.5s-71.833 -37.5 -118.5 -37.5c-88.667 0 -150.667 31.333 -186 94zM352.001 708.004l-106 -144h-70l-109 144h62l83 -114l86 114h54z" />
    <glyph glyph-name="Ydieresis" unicode="&#x178;" horiz-adv-x="574" 
d="M254 0v305l-260 403h79l214 -336l219 336h74l-260 -403v-305h-66zM144 840c0 13.333 4.66699 24.666 14 33.999s20.666 14 33.999 14s24.666 -4.66699 33.999 -14s14 -20.666 14 -33.999s-4.66699 -24.666 -14 -33.999s-20.666 -14 -33.999 -14
s-24.666 4.66699 -33.999 14s-14 20.666 -14 33.999zM334 840c0 13.333 4.66699 24.666 14 33.999s20.666 14 33.999 14s24.666 -4.66699 33.999 -14s14 -20.666 14 -33.999s-4.66699 -24.666 -14 -33.999s-20.666 -14 -33.999 -14s-24.666 4.66699 -33.999 14
s-14 20.666 -14 33.999z" />
    <glyph glyph-name="Zcaron" unicode="&#x17d;" horiz-adv-x="556" 
d="M23 0v52l414 596h-408v60h493v-54l-417 -594h428v-60h-510zM417 896l-106 -144h-70l-109 144h62l83 -114l86 114h54z" />
    <glyph glyph-name="zcaron" unicode="&#x17e;" horiz-adv-x="426" 
d="M27 0v36l277 372h-263v54h346v-36l-276 -372h288v-54h-372zM352 708l-106 -144h-70l-109 144h62l83 -114l86 114h54z" />
    <glyph glyph-name="florin" unicode="&#x192;" 
d="M395 419l-0.000976562 -48h-117l-72 -391c-16 -82.667 -63.667 -124 -143 -124c-33.333 0 -59.666 8 -78.999 24l30 47c14 -11.333 31.667 -17 53 -17c25.333 0 44.5 9 57.5 27s22.833 46 29.5 84l64 350h-108v48h117l29 154c18 98 65.667 147 143 147
c32.667 0 62.667 -10 90 -30l-32 -45c-20 14 -39.333 21 -58 21c-44 0 -71.667 -30 -83 -90l-29 -157h108z" />
    <glyph glyph-name="circumflex" unicode="&#x2c6;" horiz-adv-x="240" 
d="M-23 564l108 144h70l108 -144h-65l-81 108l-81 -108h-59z" />
    <glyph glyph-name="caron" unicode="&#x2c7;" horiz-adv-x="240" 
d="M259 708l-106 -144h-70l-109 144h62l83 -114l86 114h54z" />
    <glyph glyph-name="uni02C9" unicode="&#x2c9;" horiz-adv-x="240" 
d="M252 654v-48h-264v48h264z" />
    <glyph glyph-name="breve" unicode="&#x2d8;" horiz-adv-x="240" 
d="M-24 708l42 -0.000976562c4 -26 14.833 -45.5 32.5 -58.5s40.167 -19.5 67.5 -19.5c30 0 53.167 5.83301 69.5 17.5s27.833 31.834 34.5 60.501h42c-4.66699 -39.333 -20.167 -70.166 -46.5 -92.499s-59.5 -33.5 -99.5 -33.5s-73.167 11.167 -99.5 33.5
s-40.5 53.166 -42.5 92.499z" />
    <glyph glyph-name="dotaccent" unicode="&#x2d9;" horiz-adv-x="240" 
d="M75 652c0 13.333 4.66699 24.666 14 33.999s20.666 14 33.999 14s24.666 -4.66699 33.999 -14s14 -20.666 14 -33.999s-4.66699 -24.666 -14 -33.999s-20.666 -14 -33.999 -14s-24.666 4.66699 -33.999 14s-14 20.666 -14 33.999z" />
    <glyph glyph-name="ring" unicode="&#x2da;" horiz-adv-x="240" 
d="M27 649c0 26 9.16699 48.332 27.5 66.999s40.5 28 66.5 28c25.333 0 47 -9.66699 65 -29s27 -41.666 27 -66.999c0 -24.667 -9 -46.5 -27 -65.5s-39.667 -28.5 -65 -28.5c-26 0 -48.167 9.33301 -66.5 28s-27.5 41 -27.5 67zM177 648.999
c0 16.667 -5.33301 30.668 -16 42.001s-24.334 17 -41.001 17c-16 0 -29.5 -5.83301 -40.5 -17.5s-16.5 -25.834 -16.5 -42.501s5.5 -30.5 16.5 -41.5s24.5 -16.5 40.5 -16.5c16.667 0 30.334 5.66699 41.001 17s16 25.333 16 42z" />
    <glyph glyph-name="ogonek" unicode="&#x2db;" horiz-adv-x="240" 
d="M168 -145l19 -38c-24 -22 -52.333 -33 -85 -33c-27.333 0 -49.5 7.33301 -66.5 22s-25.5 34.667 -25.5 60c0 43.333 29.333 88 88 134h45c-18 -14 -34.667 -32 -50 -54s-23 -44.333 -23 -67c0 -31.333 14.333 -47 43 -47c22.667 0 41 7.66699 55 23z" />
    <glyph glyph-name="tilde" unicode="&#x2dc;" horiz-adv-x="240" 
d="M0 581l-36 -0.000976562c3.33301 26.667 12.333 49.334 27 68.001c16.667 22.667 37.667 34 63 34c18 0 43 -8.33301 75 -25c30.667 -15.333 51.667 -23 63 -23c25.333 0 41.333 16 48 48h36c-3.33301 -28 -12 -52 -26 -72s-33.333 -30 -58 -30
c-15.333 0 -40.333 8 -75 24s-56.667 24 -66 24c-26 0 -43 -16 -51 -48z" />
    <glyph glyph-name="hungarumlaut" unicode="&#x2dd;" horiz-adv-x="240" 
d="M-11 564l104 144h80l-134 -144h-50zM135 564l104 144h80l-134 -144h-50z" />
    <glyph glyph-name="uni03A9" unicode="&#x3a9;" horiz-adv-x="676" 
d="M193 50l0.00195312 3.00098c-38 36.667 -69.333 83 -94 139s-37 118 -37 186c0 101.333 26.5 183 79.5 245s119.5 93 199.5 93s145.167 -32.167 195.5 -96.5s75.5 -143.5 75.5 -237.5c0 -70.667 -12.833 -134.834 -38.5 -192.501s-56.834 -103.167 -93.501 -136.5v-3h145
v-50h-219v37c41.333 30.667 76.166 75.334 104.499 134.001s42.5 125 42.5 199c0 47.333 -7.5 92.833 -22.5 136.5s-39.333 81.167 -73 112.5s-72.834 47 -117.501 47c-65.333 0 -118.166 -28.333 -158.499 -85s-60.5 -127.334 -60.5 -212.001
c0 -70 14.5 -135.667 43.5 -197s63.5 -106.333 103.5 -135v-37h-219v50h144z" />
    <glyph glyph-name="uni03BC" unicode="&#x3bc;" horiz-adv-x="556" 
d="M471 462l-0.000976562 -332c0 -12 0.833008 -34.833 2.5 -68.5s2.5 -54.167 2.5 -61.5h-60c-1.33301 48.667 -2.66602 75.667 -3.99902 81h-3c-12.667 -26.667 -33.167 -48.834 -61.5 -66.501s-60.5 -26.5 -96.5 -26.5c-49.333 0 -88.333 12.667 -117 38v-254h-59v690h60
v-272c0 -98.667 38.667 -148 116 -148c46.667 0 85 16.333 115 49s45 79.334 45 140.001v231h60z" />
    <glyph glyph-name="pi" unicode="&#x3c0;" horiz-adv-x="530" 
d="M502 472l-77 -0.000976562v-327c0 -67.333 4.66699 -115.666 14 -144.999h-57c-10 18.667 -15 65 -15 139v333h-180c-3.33301 -76 -12 -162.5 -26 -259.5s-29.333 -167.833 -46 -212.5h-57c18 51.333 33.667 123.833 47 217.5s21 178.5 23 254.5
c-47.333 0 -82.666 -4.33301 -105.999 -13l-11 40c27.333 16.667 70.666 25 129.999 25h367z" />
    <glyph glyph-name="endash" unicode="&#x2013;" horiz-adv-x="500" 
d="M0 210v54h500v-54h-500z" />
    <glyph glyph-name="emdash" unicode="&#x2014;" horiz-adv-x="1000" 
d="M0 210v54h1000v-54h-1000z" />
    <glyph glyph-name="quoteleft" unicode="&#x2018;" horiz-adv-x="260" 
d="M198 708l-64 -228h-72l76 228h60z" />
    <glyph glyph-name="quoteright" unicode="&#x2019;" horiz-adv-x="260" 
d="M62 480l63 228h73l-77 -228h-59z" />
    <glyph glyph-name="quotesinglbase" unicode="&#x201a;" horiz-adv-x="260" 
d="M62 -138l63 228h73l-77 -228h-59z" />
    <glyph glyph-name="quotedblleft" unicode="&#x201c;" 
d="M241 708l-63 -228h-73l77 228h59zM415 708l-63 -228h-73l77 228h59z" />
    <glyph glyph-name="quotedblright" unicode="&#x201d;" 
d="M279 480l63 228h73l-77 -228h-59zM105 480l63 228h73l-77 -228h-59z" />
    <glyph glyph-name="quotedblbase" unicode="&#x201e;" 
d="M279 -138l63 228h73l-77 -228h-59zM105 -138l63 228h73l-77 -228h-59z" />
    <glyph glyph-name="dagger" unicode="&#x2020;" 
d="M230 -126v587h-192v48h192v199h60v-199h192v-48h-192v-587h-60z" />
    <glyph glyph-name="daggerdbl" unicode="&#x2021;" 
d="M230 -126v199h-192v48h192v340h-192v48h192v199h60v-199h192v-48h-192v-340h192v-48h-192v-199h-60z" />
    <glyph glyph-name="bullet" unicode="&#x2022;" horiz-adv-x="500" 
d="M73 354c0 49.333 17.167 91.166 51.5 125.499s76.166 51.5 125.499 51.5s91.166 -17.167 125.499 -51.5s51.5 -76.166 51.5 -125.499s-17.167 -91.166 -51.5 -125.499s-76.166 -51.5 -125.499 -51.5s-91.166 17.167 -125.499 51.5s-51.5 76.166 -51.5 125.499z" />
    <glyph glyph-name="ellipsis" unicode="&#x2026;" horiz-adv-x="1000" 
d="M119 42c0 13.333 4.66699 24.666 14 33.999s20.666 14 33.999 14s24.666 -4.66699 33.999 -14s14 -20.666 14 -33.999s-4.66699 -24.666 -14 -33.999s-20.666 -14 -33.999 -14s-24.666 4.66699 -33.999 14s-14 20.666 -14 33.999zM452 42
c0 13.333 4.66699 24.666 14 33.999s20.666 14 33.999 14s24.666 -4.66699 33.999 -14s14 -20.666 14 -33.999s-4.66699 -24.666 -14 -33.999s-20.666 -14 -33.999 -14s-24.666 4.66699 -33.999 14s-14 20.666 -14 33.999zM785 42c0 13.333 4.66699 24.666 14 33.999
s20.666 14 33.999 14s24.666 -4.66699 33.999 -14s14 -20.666 14 -33.999s-4.66699 -24.666 -14 -33.999s-20.666 -14 -33.999 -14s-24.666 4.66699 -33.999 14s-14 20.666 -14 33.999z" />
    <glyph glyph-name="perthousand" unicode="&#x2030;" horiz-adv-x="981" 
d="M306 141c0 42 15 78 45 108s66 45 108 45s78 -15 108 -45s45 -66 45 -108s-15 -78 -45 -108s-66 -45 -108 -45s-78 15 -108 45s-45 66 -45 108zM354 141c0 -28.667 10.333 -53.334 31 -74.001s45.334 -31 74.001 -31s53.334 10.333 74.001 31s31 45.334 31 74.001
s-10.333 53.334 -31 74.001s-45.334 31 -74.001 31s-53.334 -10.333 -74.001 -31s-31 -45.334 -31 -74.001zM649 141c0 42 15 78 45 108s66 45 108 45s78 -15 108 -45s45 -66 45 -108s-15 -78 -45 -108s-66 -45 -108 -45s-78 15 -108 45s-45 66 -45 108zM697 141
c0 -28.667 10.167 -53.334 30.5 -74.001s45.166 -31 74.499 -31s54.166 10.333 74.499 31s30.5 45.334 30.5 74.001s-10.167 53.334 -30.5 74.001s-45.166 31 -74.499 31s-54.166 -10.333 -74.499 -31s-30.5 -45.334 -30.5 -74.001zM26 567c0 42 15 78 45 108s66 45 108 45
s78 -15 108 -45s45 -66 45 -108s-15 -78 -45 -108s-66 -45 -108 -45s-78 15 -108 45s-45 66 -45 108zM74 567c0 -28.667 10.333 -53.334 31 -74.001s45.334 -31 74.001 -31s53.334 10.333 74.001 31s31 45.334 31 74.001s-10.333 53.334 -31 74.001s-45.334 31 -74.001 31
s-53.334 -10.333 -74.001 -31s-31 -45.334 -31 -74.001zM66 -6l456 748l46 -28l-457 -748z" />
    <glyph glyph-name="guilsinglleft" unicode="&#x2039;" horiz-adv-x="315" 
d="M200 34l-137 203l137 203l42 -29l-116 -174l118 -176z" />
    <glyph glyph-name="guilsinglright" unicode="&#x203a;" horiz-adv-x="315" 
d="M115 440l137 -203l-137 -203l-42 29l116 174l-118 176z" />
    <glyph glyph-name="fraction" unicode="&#x2044;" horiz-adv-x="168" 
d="M-167 -6l456 748l46 -28l-457 -748z" />
    <glyph glyph-name="Euro" unicode="&#x20ac;" 
d="M491 79c-16.667 -26 -40.999 -47.6689 -72.999 -65.002s-65 -26 -99 -26c-64 0 -115.5 21.833 -154.5 65.5s-64.167 106.834 -75.5 189.501h-72l13 47h55c-1.33301 25.333 -2 45.333 -2 60c0 19.333 1.33301 45 4 77h-71l15 47h63c16 86 46.5 148.5 91.5 187.5
s96.833 58.5 155.5 58.5c53.333 0 100.666 -10.333 141.999 -31l-18 -56c-40 22 -78.667 33 -116 33c-50 0 -91.333 -16.167 -124 -48.5s-55.334 -80.166 -68.001 -143.499h271l-12 -47h-266c-2.66699 -22 -4 -48.667 -4 -80c0 -14 0.666992 -33 2 -57h234l-12 -47h-217
c18.667 -136 74.334 -204 167.001 -204c27.333 0 52.5 6.66699 75.5 20s40.833 30.333 53.5 51z" />
    <glyph glyph-name="afii61289" unicode="&#x2113;" horiz-adv-x="452" 
d="M398 135l29.999 -23.999c-40 -78.667 -96.667 -118 -170 -118c-51.333 0 -89.333 18 -114 54s-37.667 83 -39 141v14c-9.33301 -7.33301 -27.666 -23.333 -54.999 -48l-20 36c35.333 32 60.333 55.333 75 70v282c0 84 13.5 144.333 40.5 181s59.833 55 98.5 55
c36.667 0 64.667 -14.5 84 -43.5s29 -66.833 29 -113.5c0 -114.667 -65.667 -239.334 -197 -374.001v-33c0.666992 -60 11 -104 31 -132s46 -42 78 -42c28 0 53 9.33301 75 28s40 41 54 67zM159.999 547.001v-238c103.333 118.667 155 222 155 310c0 74.667 -24 112 -72 112
c-22 0 -41.333 -15 -58 -45s-25 -76.333 -25 -139z" />
    <glyph glyph-name="trademark" unicode="&#x2122;" horiz-adv-x="990" 
d="M217 296v364h-133v48h320v-48h-133v-364h-54zM478 296v412h86l130 -328l129 328h83v-412h-54v361h-2l-142 -361h-32l-142 361h-2v-361h-54z" />
    <glyph glyph-name="Omega" unicode="&#x2126;" horiz-adv-x="676" 
d="M193 50l0.00195312 3.00098c-38 36.667 -69.333 83 -94 139s-37 118 -37 186c0 101.333 26.5 183 79.5 245s119.5 93 199.5 93s145.167 -32.167 195.5 -96.5s75.5 -143.5 75.5 -237.5c0 -70.667 -12.833 -134.834 -38.5 -192.501s-56.834 -103.167 -93.501 -136.5v-3h145
v-50h-219v37c41.333 30.667 76.166 75.334 104.499 134.001s42.5 125 42.5 199c0 47.333 -7.5 92.833 -22.5 136.5s-39.333 81.167 -73 112.5s-72.834 47 -117.501 47c-65.333 0 -118.166 -28.333 -158.499 -85s-60.5 -127.334 -60.5 -212.001
c0 -70 14.5 -135.667 43.5 -197s63.5 -106.333 103.5 -135v-37h-219v50h144z" />
    <glyph glyph-name="estimated" unicode="&#x212e;" horiz-adv-x="883" 
d="M847 344l-657.999 -0.00292969c-3.33301 0 -5 -1.66699 -5 -5v-199c0 -8 2.66699 -15.667 8 -23c70 -72 153 -108 249 -108c51.333 0 99.666 10.833 144.999 32.5s84.333 51.167 117 88.5h59c-37.333 -43.333 -84.333 -77.666 -141 -102.999s-117 -38 -181 -38
c-112 0 -207.667 35.667 -287 107s-119 157.333 -119 258s39.667 186.834 119 258.501s175 107.5 287 107.5c112.667 0 208.667 -35.667 288 -107s119 -157.666 119 -258.999v-10zM698.001 369.997v199.999c0 9.33301 -3.33301 17.333 -10 24
c-70.667 69.333 -153 104 -247 104c-95.333 0 -178 -35.667 -248 -107c-6 -7.33301 -9 -15.666 -9 -24.999v-196c0 -4.66699 1.66699 -7 5 -7h505c2.66699 0 4 2.33301 4 7z" />
    <glyph glyph-name="partialdiff" unicode="&#x2202;" horiz-adv-x="509" 
d="M96 692l-22 44c42.667 36 93.667 54 153 54c64 0 118.833 -32.167 164.5 -96.5s68.5 -158.5 68.5 -282.5c0 -125.333 -20.833 -226.333 -62.5 -303s-101.167 -115 -178.5 -115c-56.667 0 -100.334 22.167 -131.001 66.5s-46 98.5 -46 162.5c0 76 20 138 60 186
s87 72 141 72c38.667 0 71.834 -10.333 99.501 -31s47.167 -42 58.5 -64h1c0.666992 8 1 23 1 45c0 92 -17.667 166.667 -53 224s-78 86 -128 86c-48 0 -90 -16 -126 -48zM224 43l1.00195 0.000976562c45.333 0 83.166 26.333 113.499 79s49.166 118 56.499 196
c-9.33301 28 -27 53.833 -53 77.5s-56.333 35.5 -91 35.5c-41.333 0 -76.833 -20.333 -106.5 -61s-44.5 -89.334 -44.5 -146.001c0 -54 11.333 -97.667 34 -131s52.667 -50 90 -50z" />
    <glyph glyph-name="Delta" unicode="&#x2206;" horiz-adv-x="605" 
d="M31 0v43l240 682h66l238 -681v-44h-544zM90 49l421.999 -0.000976562l-145 413l-31.5 90c-16.333 46 -26.833 78 -31.5 96h-4c-3.33301 -14.667 -12.666 -43.167 -27.999 -85.5s-25.333 -71.166 -30 -86.499z" />
    <glyph glyph-name="product" unicode="&#x220f;" horiz-adv-x="652" 
d="M626 651h-104v-748h-57v748h-279v-748h-57v748h-103v54h600v-54z" />
    <glyph glyph-name="summation" unicode="&#x2211;" horiz-adv-x="521" 
d="M499 -97h-477v41l261 358l-249 362v41h449v-51h-368v-4l235 -339l-253 -348v-4h402v-56z" />
    <glyph glyph-name="minus" unicode="&#x2212;" horiz-adv-x="666" 
d="M78 279v48h510v-48h-510z" />
    <glyph glyph-name="uni2215" unicode="&#x2215;" horiz-adv-x="168" 
d="M-167 -6l456 748l46 -28l-457 -748z" />
    <glyph glyph-name="uni2219" unicode="&#x2219;" horiz-adv-x="260" 
d="M82 318c0 13.333 4.66699 24.666 14 33.999s20.666 14 33.999 14s24.666 -4.66699 33.999 -14s14 -20.666 14 -33.999s-4.66699 -24.666 -14 -33.999s-20.666 -14 -33.999 -14s-24.666 4.66699 -33.999 14s-14 20.666 -14 33.999z" />
    <glyph glyph-name="radical" unicode="&#x221a;" horiz-adv-x="539" 
d="M535 837l-209 -991h-54l-155 477l-71 -26l-13 38l122 46l126 -384c8.66699 -36 14 -60.333 16 -73h1l12 70l180 843h45z" />
    <glyph glyph-name="infinity" unicode="&#x221e;" horiz-adv-x="747" 
d="M698 294v-0.999023c0 -44 -14.5 -79.833 -43.5 -107.5s-63.167 -41.5 -102.5 -41.5c-29.333 0 -56.833 9 -82.5 27s-57.167 47.333 -94.5 88c-17.333 -19.333 -31 -33.833 -41 -43.5s-23.167 -21 -39.5 -34s-33 -22.5 -50 -28.5s-34.833 -9 -53.5 -9
c-39.333 0 -72.833 14.167 -100.5 42.5s-41.5 62.833 -41.5 103.5c0 43.333 14.167 79.166 42.5 107.499s63.833 42.5 106.5 42.5c32.667 0 62.834 -10.167 90.501 -30.5s57.5 -49.166 89.5 -86.499c40 44 69.333 72.667 88 86c30 20.667 61.333 31 94 31
c41.333 -0.666992 74.666 -14.334 99.999 -41.001s38 -61.667 38 -105zM197 183.001l0.999023 -0.000976562c10 0 20.333 1.83301 31 5.5s19.834 7.5 27.501 11.5s17 10.833 28 20.5s18.667 16.834 23 21.501l24 25c11.667 12 18.5 19.333 20.5 22
c-20.667 25.333 -36.5 43.833 -47.5 55.5s-27.333 24 -49 37s-43.5 19.5 -65.5 19.5c-30 0 -53.833 -11 -71.5 -33s-26.5 -48.333 -26.5 -79c0.666992 -30 10.667 -55.167 30 -75.5s44.333 -30.5 75 -30.5zM554.999 401l-1.00098 -0.00195312
c-15.333 0 -31.5 -4.5 -48.5 -13.5s-30.167 -17.667 -39.5 -26s-22.166 -21.166 -38.499 -38.499l-28.5 -30c38 -41.333 67.667 -70 89 -86s44 -24 68 -24c30 0 54 10.833 72 32.5s27 46.5 27 74.5c0 34.667 -9.33301 61.834 -28 81.501s-42.667 29.5 -72 29.5z" />
    <glyph glyph-name="integral" unicode="&#x222b;" horiz-adv-x="335" 
d="M318 845l-12.001 -42.001c-10 7.33301 -21.333 11 -34 11c-20 0 -36.333 -8 -49 -24c-22.667 -28 -34 -89.333 -34 -184c0 -52 2.16699 -137.333 6.5 -256s6.5 -205 6.5 -259c0 -93.333 -14.333 -161.666 -43 -204.999c-20 -30 -49.333 -45 -88 -45
c-23.333 0 -42.666 5.33301 -57.999 16l12 44c16 -8 30 -12 42 -12c18 0 33.333 8.33301 46 25c22 28.667 33 88 33 178c0 54 -2 141.333 -6 262s-6 206.667 -6 258c0 104 16.667 173.667 50 209c21.333 25.333 49.333 38 84 38c20 0 36.667 -4.66699 50 -14z" />
    <glyph glyph-name="approxequal" unicode="&#x2248;" horiz-adv-x="537" 
d="M465 423l26 -20.999c-29.333 -60.667 -69.666 -91 -120.999 -91c-17.333 0 -33.666 3 -48.999 9s-36.333 16.667 -63 32c-38.667 22 -68.667 33 -90 33c-20.667 0 -38.334 -6.33301 -53.001 -19s-29 -30.667 -43 -54l-28 21c30.667 60.667 74 91 130 91
c10.667 0 22 -1.66699 34 -5s21 -6.5 27 -9.5s14.833 -7.83301 26.5 -14.5s18.5 -10.667 20.5 -12c2.66699 -1.33301 8.66699 -4.5 18 -9.5l18.999 -10s8.5 -3.83398 15.5 -6.50098s13.667 -4.5 20 -5.5s12.833 -1.5 19.5 -1.5c18.667 0 35 5.83301 49 17.5
s28 30.167 42 55.5zM465 264.001l25.999 -22c-30 -60.667 -70.333 -91 -121 -91c-17.333 0 -33.333 3 -48 9s-36 16.667 -64 32c-38 22.667 -68 34 -90 34c-20.667 0 -38.334 -6.5 -53.001 -19.5s-29 -31.167 -43 -54.5l-28 21c30.667 61.333 74 92 130 92
c10.667 0 22 -1.66699 34 -5s20.833 -6.33301 26.5 -9s14.834 -7.5 27.501 -14.5s19.334 -10.833 20.001 -11.5c40 -22.667 70.667 -34 92 -34c18.667 0 35 5.83301 49 17.5s28 30.167 42 55.5z" />
    <glyph glyph-name="notequal" unicode="&#x2260;" horiz-adv-x="537" 
d="M378 496l-44 -97h153v-41h-170l-66 -143h236v-40h-252l-52 -114l-33 16l45 98h-146v40h163l66 143h-229v41h245l51 112z" />
    <glyph glyph-name="lessequal" unicode="&#x2264;" horiz-adv-x="537" 
d="M484 102l-429 220v43l429 220v-51l-384 -189v-2l384 -190v-51zM487 19h-438v42h438v-42z" />
    <glyph glyph-name="greaterequal" unicode="&#x2265;" horiz-adv-x="537" 
d="M56 585l429 -220v-43l-429 -220v51l383 189v2l-383 190v51zM486 19h-436v42h436v-42z" />
    <glyph glyph-name="lozenge" unicode="&#x25ca;" horiz-adv-x="539" 
d="M486 352l-193 -393h-49l-191 393l193 394h49zM431 351l-143.001 290.999c-6 14 -12 31.333 -18 52h-2c-4.66699 -18 -11 -35.333 -19 -52l-141 -288l143 -293c8.66699 -19.333 14.334 -36 17.001 -50h3c4 16.667 9.66699 33.334 17 50.001z" />
    <glyph glyph-name=".null" horiz-adv-x="0" 
 />
    <glyph glyph-name="nonmarkingreturn" horiz-adv-x="333" 
 />
    </font>
</defs>
</svg>
