<?xml version="1.0" standalone="no"?>
<!DOCTYPE svg PUBLIC "-//W3C//DTD SVG 1.1//EN" "http://www.w3.org/Graphics/SVG/1.1/DTD/svg11.dtd" >
<svg xmlns="http://www.w3.org/2000/svg">
<metadata></metadata>
<defs>
<font id="mullerheavy_italic" horiz-adv-x="1280" >
<font-face units-per-em="2048" ascent="1597" descent="-451" />
<missing-glyph horiz-adv-x="335" />
<glyph horiz-adv-x="0" />
<glyph horiz-adv-x="682" />
<glyph unicode=" "  horiz-adv-x="335" />
<glyph unicode="&#x09;" horiz-adv-x="335" />
<glyph unicode="&#xa0;" horiz-adv-x="335" />
<glyph unicode="!" horiz-adv-x="657" d="M12 252q18 111 94 166t181 55q120 0 191 -76t50 -211q-18 -111 -95 -166t-183 -55q-119 0 -189.5 76t-48.5 211zM131 586l64 848h532l-207 -848h-389z" />
<glyph unicode="&#x22;" horiz-adv-x="1056" d="M113 844l94 590h430l-172 -590h-352zM629 844l94 590h430l-172 -590h-352z" />
<glyph unicode="#" horiz-adv-x="1531" d="M-6 236l53 327h197l104 268h-158l54 328h235l92 236h422l-92 -236h131l92 236h422l-92 -236h117l-53 -328h-195l-104 -268h155l-53 -327h-234l-92 -236h-422l93 236h-131l-93 -236h-422l93 236h-119zM666 563h131l104 268h-131z" />
<glyph unicode="$" horiz-adv-x="1335" d="M6 111l72 458q217 -166 473 -166q151 0 158 41q3 18 -23.5 34t-71.5 27.5t-101.5 30.5t-116 40.5t-113.5 60.5t-93.5 87.5t-57 124.5t-3.5 169q17 110 87 195t169 134t221 68l33 203h369l-33 -209q188 -29 342 -111l-70 -442q-97 69 -216.5 105t-231.5 36 q-114 0 -119 -41q-3 -20 31 -36.5t90 -33.5t123 -39t132 -58.5t115.5 -85.5t75.5 -128t10 -178q-13 -85 -46 -152.5t-79 -113.5t-108.5 -79t-129 -51.5t-146.5 -27.5l-31 -198h-369l33 205q-212 34 -375 131z" />
<glyph unicode="%" horiz-adv-x="2025" d="M121 1096q15 95 58.5 167.5t107.5 116.5t141 66t164 22q90 0 166.5 -28t132 -80.5t80 -138t8.5 -191.5q-15 -95 -59 -167.5t-108 -117t-141 -66.5t-163 -22q-91 0 -167.5 28t-132.5 81t-80 138.5t-7 191.5zM334 -123l1104 1679h295l-1104 -1679h-295zM465 1063 q-6 -38 8.5 -66t61.5 -28q50 0 73 28t29 66t-8.5 66t-61.5 28q-50 0 -73 -28t-29 -66zM1090 403q15 95 58.5 168t107.5 117.5t140.5 67t162.5 22.5q94 0 171 -28t131.5 -81.5t77 -138.5t5.5 -192q-15 -95 -58.5 -167.5t-107.5 -117t-140.5 -66.5t-162.5 -22q-94 0 -171 28 t-131.5 81t-77 137.5t-5.5 191.5zM1430 373q-14 -94 69 -94q50 0 73.5 28t29.5 66t-8.5 66t-61.5 28q-50 0 -73 -28t-29 -66z" />
<glyph unicode="&#x26;" horiz-adv-x="1536" d="M6 377q11 69 46 130t88 109t104.5 82.5t115.5 67.5q-65 80 -100 160.5t-20 171.5q17 109 98 194.5t200.5 130.5t254.5 45q250 0 382.5 -118t98.5 -295q-38 -195 -359 -381l125 -156q86 103 97 217h401q-17 -129 -91 -254t-192 -231l203 -250h-446l-54 61 q-229 -96 -466 -96q-254 0 -385.5 110.5t-100.5 301.5zM467 385q-3 -35 26 -59.5t99 -24.5q62 0 143 23l-160 188q-103 -62 -108 -127zM655 1065q-8 -49 60 -141q145 72 157 145q6 38 -20 65t-74 27q-53 0 -85.5 -28t-37.5 -68z" />
<glyph unicode="'" horiz-adv-x="540" d="M113 844l94 590h430l-172 -590h-352z" />
<glyph unicode="(" horiz-adv-x="737" d="M66 750q38 236 164.5 482t304.5 433h356q-66 -127 -110.5 -220.5t-97.5 -220.5t-90 -256.5t-58 -262.5q-28 -160 -24.5 -337.5t21.5 -320.5t50 -280h-336q-120 213 -170 470.5t-10 512.5z" />
<glyph unicode=")" horiz-adv-x="735" d="M-117 -231q138 262 227.5 486t129.5 474q25 161 24.5 336.5t-19.5 321.5t-52 280h337q120 -213 169.5 -470.5t9.5 -512.5q-38 -237 -163.5 -482.5t-303.5 -432.5h-359z" />
<glyph unicode="*" horiz-adv-x="1134" d="M92 920l219 397l178 -125l5 242h426l-82 -242l211 125l96 -397l-236 -48l140 -145l-371 -229l-76 241l-153 -241l-314 229l180 145z" />
<glyph unicode="+" horiz-adv-x="1142" d="M41 524l61 389h326l51 326h389l-51 -326h326l-62 -389h-327l-52 -325h-389l52 325h-324z" />
<glyph unicode="," horiz-adv-x="602" d="M-174 -293l254 655h457l-351 -655h-360z" />
<glyph unicode="-" horiz-adv-x="974" d="M35 307l57 369h815l-57 -369h-815z" />
<glyph unicode="." horiz-adv-x="598" d="M-16 252q18 111 94 166t180 55q121 0 192 -76t50 -211q-18 -111 -95.5 -166t-183.5 -55q-119 0 -189 76t-48 211z" />
<glyph unicode="/" horiz-adv-x="1071" d="M-82 -127l924 1688h352l-924 -1688h-352z" />
<glyph unicode="0" horiz-adv-x="1439" d="M60.5 533.5q-5.5 95.5 13.5 195.5q18 114 55 214.5t100.5 190.5t147.5 154t200.5 101.5t253.5 37.5q99 0 182.5 -21t146 -60t111.5 -93t78.5 -120t46.5 -142t16 -158.5t-13 -168.5q-18 -114 -55.5 -214.5t-101 -190.5t-147 -154.5t-199.5 -102t-253 -37.5 q-115 0 -210 28.5t-161.5 80t-114.5 123t-69.5 156.5t-27 180.5zM604.5 493q20.5 -57 87.5 -57q63 0 105 59.5t67 200.5q24 146 4 203t-86 57q-64 0 -106.5 -59.5t-67.5 -200.5q-24 -146 -3.5 -203z" />
<glyph unicode="1" horiz-adv-x="1069" d="M-23 0l70 440h234l71 451l-221 -84l72 450l354 136h399l-151 -953h211l-70 -440h-969z" />
<glyph unicode="2" horiz-adv-x="1288" d="M-29 2l37 229q13 79 42 146t64.5 116t88 95t100.5 77.5t115 69.5q35 20 83 44.5t77.5 40t59.5 34t45.5 35t18.5 33.5q3 21 -14 34t-51 13q-99 0 -233.5 -50.5t-266.5 -136.5l80 506q266 139 543 139q89 0 169 -17.5t150 -56t118 -95.5t68.5 -142t4.5 -188 q-18 -112 -73 -183.5t-159 -138.5q-18 -11 -87.5 -53.5t-109 -69t-50.5 -41.5h399l-70 -440h-1149z" />
<glyph unicode="3" horiz-adv-x="1239" d="M-16 66l69 434q207 -101 441 -101q72 0 119 17t51 49q3 20 -11 33.5t-45 13.5h-268l59 377h199q74 0 82 43q4 26 -21.5 40.5t-76.5 14.5q-229 0 -443 -121l70 441q211 120 491 120q83 0 159.5 -15.5t145 -50.5t116 -85t69 -125t6.5 -166q-13 -90 -79.5 -165t-186.5 -113 q111 -22 179.5 -114t45.5 -237q-17 -108 -76.5 -186.5t-150 -122t-192 -63t-220.5 -19.5q-153 0 -295 29t-237 72z" />
<glyph unicode="4" horiz-adv-x="1413" d="M-31 158l70 434l747 801h541l-131 -826h164l-66 -409h-164l-24 -158h-481l24 158h-680zM524 567h191l39 246z" />
<glyph unicode="5" horiz-adv-x="1243" d="M-25 63l62 394q141 -72 336 -72q244 0 260 102q6 38 -25 62t-79 32.5t-115 8.5q-131 0 -299 -33l172 836h973l-70 -439h-520l-19 -88q52 6 94 6q67 0 130.5 -14t123.5 -48.5t101 -85.5t59 -131.5t2 -180.5q-16 -103 -66 -183t-118 -128.5t-158 -80t-178 -43.5t-186 -12 q-128 0 -258.5 26.5t-221.5 71.5z" />
<glyph unicode="6" horiz-adv-x="1386" d="M74 729q23 146 83.5 265.5t143 198.5t186 133t210 77.5t216.5 23.5q245 0 428 -104l-59 -375q-136 74 -287 74q-271 0 -370 -188q125 67 286 67q89 0 169 -29t141.5 -85t89.5 -148.5t10 -208.5q-19 -123 -80 -215.5t-150.5 -145.5t-192.5 -78.5t-220 -25.5 q-351 0 -506 204t-98 560zM565 498q6 -84 36 -116t79 -32q57 0 97.5 28t49.5 81q7 44 -17 69t-71 25q-86 0 -174 -55z" />
<glyph unicode="7" horiz-adv-x="1224" d="M25 0l587 952h-518l70 441h1161l-55 -342l-647 -1051h-598z" />
<glyph unicode="8" horiz-adv-x="1368" d="M16 406q18 103 89 186t161 129q-128 119 -98 309q12 74 56.5 142.5t120 126.5t193 93t261.5 35t256 -39t175.5 -102t90 -139t12.5 -154q-18 -93 -68 -148.5t-147 -107.5q208 -116 166 -372q-13 -82 -59.5 -152.5t-128 -127t-209 -88.5t-287.5 -32q-168 0 -292 37.5 t-189.5 101t-91 140t-11.5 162.5zM535 444q-3 -38 27 -65t81 -27q106 0 123 62q8 31 -12 52t-62 42q-15 7 -43.5 22t-40.5 21q-66 -39 -73 -107zM649 979q-4 -28 13.5 -47.5t52.5 -36.5q13 -6 76 -29q54 31 61 84q3 38 -21.5 64t-78.5 26q-42 0 -70 -17t-33 -44z" />
<glyph unicode="9" horiz-adv-x="1386" d="M74 68l61 378q136 -75 299 -75q145 0 232.5 41.5t136.5 150.5q-130 -71 -295 -71q-97 0 -178 29t-140.5 85t-84.5 148t-7 209q19 123 80 215t150.5 145t192.5 78.5t220 25.5q340 0 500.5 -206t104.5 -557q-23 -147 -80 -265.5t-134.5 -198.5t-177 -133.5t-206 -77.5 t-222.5 -24q-268 0 -452 103zM592 938q-6 -44 21 -71t77 -27q93 0 170 49q-11 153 -125 153q-57 0 -96.5 -27t-46.5 -77z" />
<glyph unicode=":" horiz-adv-x="606" d="M0 238q16 103 87 154.5t169 51.5q114 0 181 -72t46 -200q-16 -103 -88.5 -155t-171.5 -52q-112 0 -178 72.5t-45 200.5zM88 805q18 103 88.5 155t167.5 52q114 0 182 -72.5t47 -200.5q-16 -103 -88.5 -155t-171.5 -52q-112 0 -178 72.5t-47 200.5z" />
<glyph unicode=";" horiz-adv-x="638" d="M-168 -293l254 655h457l-350 -655h-361zM100 791q18 111 94 166t181 55q121 0 192 -76t49 -211q-18 -111 -94 -166t-182 -55q-119 0 -190 76t-50 211z" />
<glyph unicode="&#x3c;" horiz-adv-x="1048" d="M35 469l78 494l938 266l-68 -434l-512 -88l485 -82l-67 -422z" />
<glyph unicode="=" d="M59 287l60 368h1065l-60 -368h-1065zM137 778l60 369h1065l-60 -369h-1065z" />
<glyph unicode="&#x3e;" horiz-adv-x="1048" d="M37 203l69 436l515 88l-486 90l66 414l850 -266l-78 -496z" />
<glyph unicode="?" horiz-adv-x="1042" d="M115 909l75 477q191 82 410 82q79 0 149 -11t138 -40t113 -74t66.5 -118.5t6.5 -167.5q-11 -71 -55 -139t-100 -118.5t-110.5 -95t-94.5 -84t-45 -69.5h-453q11 72 44 134t73.5 101.5t80 71.5t69 59.5t34.5 49.5q5 20 -10 31.5t-49 11.5q-70 0 -171 -31.5t-171 -69.5z M135 252q18 111 94.5 166t180.5 55q120 0 191 -76t50 -211q-18 -111 -95 -166t-183 -55q-119 0 -189.5 76t-48.5 211z" />
<glyph unicode="@" horiz-adv-x="2129" d="M33 524q23 147 86 285t166.5 257.5t236.5 209t306 141t364 51.5q120 0 228.5 -22.5t193.5 -63.5t158.5 -97t124.5 -123.5t90.5 -143t57 -155.5t24 -161t-8.5 -159q-20 -129 -74 -230.5t-131.5 -165.5t-171 -97.5t-196.5 -33.5q-254 0 -348 168q-102 -114 -262 -114 q-65 0 -120.5 20t-92.5 53.5t-65.5 78.5t-40.5 95t-16.5 103t5.5 102q8 51 27 102.5t52.5 102t76 89.5t101.5 63t126 24q156 0 244 -127l16 105h360l-73 -469q-14 -88 53 -88q35 0 60.5 18.5t41.5 56.5t25 75t18 93q5 48 5.5 99t-15.5 103t-39.5 100.5t-65.5 91t-94.5 74 t-126.5 49.5t-161 18q-149 0 -280 -47.5t-225.5 -129t-156 -191t-80.5 -234.5q-21 -129 1 -233.5t77 -174.5t140 -117t185 -67.5t216 -20.5q247 0 463 62l-58 -367q-178 -65 -432 -65q-170 0 -328 39t-293.5 122t-229.5 199.5t-134.5 283.5t-9.5 363zM952 485q-7 -44 11 -81 t67 -37q46 0 84 30l29 181q-20 34 -66 34q-58 0 -88.5 -40.5t-36.5 -86.5z" />
<glyph unicode="A" horiz-adv-x="1587" d="M-109 0l742 1434h586l286 -1434h-524l-20 164h-439l-73 -164h-558zM686 532h227l-30 240q-15 131 -15 205q-25 -98 -73 -203z" />
<glyph unicode="B" horiz-adv-x="1456" d="M-8 0l227 1434h760q241 0 367 -100q102 -81 102 -225q0 -34 -6 -71q-16 -99 -71.5 -168t-172.5 -116q114 -36 166 -134q37 -69 37 -159q0 -37 -6 -78q-14 -90 -54 -158t-96.5 -110.5t-135.5 -68.5t-162.5 -36t-186.5 -10h-768zM600 389h145q51 0 84 27.5t41 72.5 q6 32 -13 58t-69 26h-159zM676 877h123q48 0 81.5 26.5t39.5 67.5q1 5 1 10q1 23 -15 43q-18 25 -66 25h-135z" />
<glyph unicode="C" horiz-adv-x="1312" d="M57 739q24 153 89 278.5t153 207.5t198 138t221.5 80.5t225.5 24.5q239 0 422 -94l-72 -448q-44 30 -122 50.5t-162 20.5q-72 0 -134.5 -15t-118 -46.5t-94 -88t-51.5 -132.5q-4 -26 -4 -49q0 -56 24 -100q35 -64 97.5 -93t140.5 -29q206 0 371 86l-78 -489 q-173 -76 -397 -76q-126 0 -239 27.5t-211 88.5t-164 149.5t-93 219.5q-14 68 -14 143q0 70 12 146z" />
<glyph unicode="D" horiz-adv-x="1519" d="M-8 0l227 1434h641q146 0 263 -36t195 -102t126 -159q50 -93 60 -207q4 -41 3 -83q0 -78 -12 -163q-24 -155 -85.5 -278.5t-162.5 -215t-251 -141t-339 -49.5h-665zM608 451h76q106 0 170.5 60.5t89.5 217.5q7 45 7 82q0 172 -158 172h-101z" />
<glyph unicode="E" d="M-8 0l227 1434h1127l-66 -410h-582l-18 -123h500l-58 -364h-499l-21 -123h594l-66 -414h-1138z" />
<glyph unicode="F" horiz-adv-x="1226" d="M-8 0l227 1434h1086l-74 -471h-541l-20 -123h481l-72 -451h-481l-61 -389h-545z" />
<glyph unicode="G" horiz-adv-x="1404" d="M59 750q24 151 89 274.5t153.5 204.5t198.5 136t220.5 79t223.5 24q272 0 475 -90l-71 -450q-128 69 -320 69q-79 0 -146 -15t-124.5 -47.5t-96 -91t-51.5 -138.5q-5 -32 -5 -60.5t5 -52.5q10 -49 35 -76t56 -40t65 -13q27 0 45 6l55 340h508l-119 -756 q-196 -88 -469 -88q-127 0 -244 31t-216 96t-167 156.5t-96 221.5q-15 69 -15 145q0 65 11 135z" />
<glyph unicode="H" horiz-adv-x="1540" d="M-8 0l227 1434h545l-76 -482h279l75 482h545l-227 -1434h-545l76 481h-279l-75 -481h-545z" />
<glyph unicode="I" horiz-adv-x="716" d="M-8 0l227 1434h545l-227 -1434h-545z" />
<glyph unicode="J" horiz-adv-x="1064" d="M-57 43l71 457q91 -29 201 -29q98 0 160.5 35.5t73.5 111.5l55 345h-307l73 471h852l-143 -912q-21 -128 -68 -225.5t-107.5 -156.5t-141.5 -96t-160 -50.5t-172 -13.5q-114 0 -219.5 17t-167.5 46z" />
<glyph unicode="K" horiz-adv-x="1527" d="M-8 0l227 1434h545l-76 -482h72l327 482h617l-553 -719l307 -715h-569l-199 481h-78l-75 -481h-545z" />
<glyph unicode="L" horiz-adv-x="1232" d="M-8 0l227 1434h545l-152 -963h582l-76 -471h-1126z" />
<glyph unicode="M" horiz-adv-x="1851" d="M-8 0l227 1434h453l274 -613l451 613h501l-227 -1434h-524l94 592l-221 -301h-275l-135 301l-94 -592h-524z" />
<glyph unicode="N" horiz-adv-x="1560" d="M-8 0l227 1434h387l381 -592q2 119 23 250l53 342h545l-228 -1434h-387l-379 592q-3 -127 -22 -250l-55 -342h-545z" />
<glyph unicode="O" horiz-adv-x="1638" d="M57 750q24 154 92.5 284t176.5 227t263.5 152t342.5 55t331 -61t228.5 -167t116.5 -248q18 -79 18 -165q0 -69 -12 -143q-24 -154 -93 -284t-177.5 -227.5t-264 -152.5t-342.5 -55t-330.5 61t-227.5 167.5t-116 248.5q-18 79 -18 165q0 69 12 143zM610 684q-2 -20 -2 -39 q0 -85 38 -131q46 -56 142 -57q111 0 186 77.5t87 215.5q2 20 2 38q0 86 -39 132q-47 56 -143 57q-110 0 -184 -77.5t-87 -215.5z" />
<glyph unicode="P" horiz-adv-x="1439" d="M-8 0l227 1434h660q90 0 169.5 -13.5t151.5 -42.5t124.5 -75.5t89.5 -112.5t46 -152q3 -32 4 -69q0 -59 -10 -127q-19 -120 -62.5 -210.5t-106.5 -150.5t-150.5 -97.5t-186.5 -53t-221 -15.5h-139l-51 -315h-545zM655 754h95q163 0 182 129q2 10 2 19q0 36 -25 61 q-31 32 -96 32h-119z" />
<glyph unicode="Q" horiz-adv-x="1638" d="M57 750q24 154 92.5 284t176.5 227t263.5 152t342.5 55t331 -61t228.5 -167t116.5 -248q18 -79 18 -165q0 -69 -12 -143q-38 -245 -184 -422l96 -110l-316 -250l-110 125q-169 -62 -363 -62q-187 0 -330.5 61t-227.5 167.5t-116 248.5q-18 79 -18 165q0 69 12 143z M590 684q-1 -17 -1 -33q0 -101 49 -154q56 -61 155 -61h6l-92 107l256 227l102 -119q13 51 16 99q1 17 1 33q0 101 -48 153q-57 61 -157 61q-114 0 -195.5 -81.5t-91.5 -231.5z" />
<glyph unicode="R" horiz-adv-x="1519" d="M-8 0l227 1434h701q93 0 178 -17.5t163.5 -59t131.5 -103t76 -158.5q13 -53 13 -113q0 -50 -9 -104q-44 -281 -281 -404l260 -475h-573l-195 389h-86l-61 -389h-545zM662 782h124q60 0 100.5 32t49.5 87q1 6 1 13q0 28 -19 56q-23 34 -72 34h-150z" />
<glyph unicode="S" horiz-adv-x="1312" d="M-6 111l72 458q220 -155 473 -155q150 0 157 41q3 17 -17.5 31.5t-56.5 28t-83 29t-98.5 37t-102 48.5t-94 67t-74.5 90t-43 120q-6 35 -6 73.5t6 79.5q15 99 73.5 179t145.5 129t191 75t215 26q321 0 563 -129l-70 -442q-99 63 -218.5 97t-229.5 34q-114 0 -119 -41 q-2 -16 18 -30.5t56 -28.5t82.5 -30.5t97.5 -38.5t101.5 -49t93.5 -67t74 -87.5t43 -113.5q6 -34 7 -71q0 -35 -6 -74q-15 -101 -59.5 -178t-106.5 -124.5t-146.5 -77.5t-170.5 -41t-189 -11q-341 0 -579 146z" />
<glyph unicode="T" horiz-adv-x="1325" d="M80 963l74 471h1282l-74 -471h-369l-153 -963h-545l154 963h-369z" />
<glyph unicode="U" horiz-adv-x="1507" d="M68 582l135 852h545l-138 -861q-2 -14 -2 -27q0 -41 23 -62q30 -27 96 -27q140 0 164 149l131 828h545l-140 -885q-93 -584 -763 -584q-107 0 -202 20.5t-177.5 67.5t-137.5 116.5t-77 175.5q-12 55 -12 116q0 58 10 121z" />
<glyph unicode="V" horiz-adv-x="1560" d="M119 1434h549l90 -797l350 797h598l-741 -1434h-557z" />
<glyph unicode="W" horiz-adv-x="2318" d="M131 1434h565l54 -752l305 752h434l61 -752l295 752h609l-656 -1434h-592l-51 596l-246 -596h-577z" />
<glyph unicode="X" horiz-adv-x="1558" d="M-147 0l614 733l-358 701h616l119 -332l231 332h654l-586 -701l370 -733h-616l-135 342l-256 -342h-653z" />
<glyph unicode="Y" horiz-adv-x="1581" d="M119 1434h575l125 -504l277 504h635l-687 -945l-81 -489h-541l82 489z" />
<glyph unicode="Z" horiz-adv-x="1353" d="M-41 0l53 338l559 625h-428l74 471h1188l-53 -338l-557 -625h487l-76 -471h-1247z" />
<glyph unicode="[" horiz-adv-x="829" d="M-39 -225l297 1884h690l-65 -422h-201l-166 -1040h201l-66 -422h-690z" />
<glyph unicode="\" horiz-adv-x="1048" d="M182 1561h336l387 -1688h-336z" />
<glyph unicode="]" horiz-adv-x="829" d="M-80 -225l66 422h200l166 1040h-200l65 422h690l-297 -1884h-690z" />
<glyph unicode="^" horiz-adv-x="1419" d="M51 631l574 803h438l321 -803h-477l-114 340l-228 -340h-514z" />
<glyph unicode="_" horiz-adv-x="1099" d="M-164 -442l62 393h1099l-61 -393h-1100z" />
<glyph unicode="`" horiz-adv-x="833" d="M322 1886h454l158 -360h-402z" />
<glyph unicode="a" d="M15 351q-1 20 -1 42q0 63 9 131q16 103 53 190t96 156t146.5 108.5t193.5 39.5q100 0 181 -47t124 -121l21 133h436l-156 -983h-436l14 86q-108 -121 -307 -121q-86 0 -155 29.5t-114 81t-73 122.5t-32 153zM524 485q-2 -14 -2 -27q0 -41 18 -67q22 -33 62 -35 q43 0 82 33l33 205q-17 31 -62 31q-50 0 -87 -39.5t-44 -100.5z" />
<glyph unicode="b" horiz-adv-x="1282" d="M-27 0l228 1434h495l-80 -504q117 88 250 88q138 0 229.5 -78t123.5 -204q18 -72 18 -152q0 -60 -10 -125q-16 -102 -54.5 -190t-96.5 -156.5t-141.5 -108t-182.5 -39.5q-206 0 -322 162l-20 -127h-437zM530 385q21 -27 64 -27q46 0 82 39t47 97q3 17 3 33q0 33 -12 59 q-18 40 -69 39q-41 0 -82 -33z" />
<glyph unicode="c" horiz-adv-x="991" d="M14 492q12 108 57 197t109.5 149t146.5 101.5t168.5 60t176.5 18.5q167 0 313 -60l-59 -378q-76 36 -176 36q-54 0 -99 -9.5t-83 -39.5t-46 -78q-1 -10 -2 -18q0 -45 40 -71q46 -30 128 -29q116 0 221 43l-63 -404q-158 -45 -293 -45q-174 0 -301 60q-128 61 -193 181 q-50 92 -50 210q0 37 5 76z" />
<glyph unicode="d" horiz-adv-x="1277" d="M25 524q16 102 54.5 190t98.5 156.5t146.5 108t189.5 39.5q168 0 256 -105l82 521h496l-228 -1434h-436l16 106q-124 -141 -309 -141q-132 0 -224.5 77.5t-128.5 204.5q-22 77 -22 164q0 55 9 113zM526 485q-2 -14 -2 -27q0 -41 18 -67q22 -33 62 -35q43 0 82 33l33 205 q-17 31 -62 31q-50 0 -87 -39.5t-44 -100.5z" />
<glyph unicode="e" horiz-adv-x="1118" d="M23 535q15 100 59.5 183t105.5 137.5t135 92t146.5 54t142.5 16.5q129 0 225.5 -39.5t148.5 -103.5q52 -63 76 -145q18 -63 18 -128q0 -19 -2 -39q-7 -85 -38 -166h-581q28 -102 241 -102q163 0 304 41l-52 -328q-147 -43 -350 -43q-89 0 -174 17t-168 59t-141 105 q-58 64 -86 164q-17 61 -17 131q0 45 7 94zM475 590h217q5 19 5 36q-1 29 -15 50q-22 33 -70 33q-60 0 -96 -38t-41 -81z" />
<glyph unicode="f" horiz-adv-x="860" d="M41 594l61 389h123l17 98q16 96 54 168t85 113t111 65.5t121 32.5t126 8q130 0 250 -38l-57 -355q-46 21 -96 21q-45 0 -74 -20t-35 -58l-6 -35h178l-61 -389h-179l-94 -594h-495l94 594h-123z" />
<glyph unicode="g" d="M-25 -399l62 391q172 -76 330 -76q112 0 183.5 38t84.5 112l4 22q-94 -82 -240 -82q-142 0 -236 73t-127 194q-19 70 -19 150q0 58 10 122q34 208 164 340.5t327 132.5q98 0 177 -45.5t124 -112.5l21 123h436l-146 -920q-19 -120 -66.5 -215.5t-110.5 -156.5t-144 -101.5 t-163.5 -57.5t-172.5 -17q-291 0 -498 86zM528 496q-2 -14 -2 -27q0 -42 18 -67q22 -33 62 -35q44 0 82 32l33 205q-17 31 -62 31q-50 0 -87 -39t-44 -100z" />
<glyph unicode="h" horiz-adv-x="1220" d="M-27 0l228 1434h495l-75 -484q127 68 239 68q75 0 134.5 -23t95 -61t58.5 -88t26 -102q1 -18 1 -35q0 -35 -4 -70l-102 -639h-496l91 567q3 17 -7.5 27t-29.5 10q-33 0 -66 -22l-92 -582h-496z" />
<glyph unicode="i" horiz-adv-x="628" d="M-27 0l156 983h496l-156 -983h-496zM184 1317q18 103 90 155t170 52q111 0 177 -70q50 -53 50 -137q0 -27 -5 -57q-16 -103 -88 -155t-170 -52q-111 0 -177 70q-51 54 -51 141q0 25 4 53z" />
<glyph unicode="j" horiz-adv-x="628" d="M-274 -440l61 387q30 -13 76 -13q52 0 80 26t37 83l149 940h496l-174 -1100q-15 -95 -59.5 -168t-108.5 -115.5t-137 -63.5t-154 -21q-156 0 -266 45zM184 1317q18 103 90 155t170 52q111 0 177 -70q50 -53 50 -137q0 -27 -5 -57q-16 -103 -88 -155t-170 -52 q-111 0 -177 70q-51 54 -51 141q0 25 4 53z" />
<glyph unicode="k" horiz-adv-x="1277" d="M-27 0l228 1434h495l-118 -744h55l190 293h541l-381 -522l201 -461h-512l-99 301h-57l-47 -301h-496z" />
<glyph unicode="l" horiz-adv-x="628" d="M-27 0l238 1495h496l-238 -1495h-496z" />
<glyph unicode="m" horiz-adv-x="1767" d="M-27 0l156 983h438l-14 -90q42 52 124 88.5t169 36.5q172 0 248 -127q53 57 142 92t187 35q165 0 241 -116q54 -82 55 -204q0 -50 -9 -106l-94 -592h-488l91 573q3 17 -7 25t-24 8q-32 0 -58 -22q-1 -6 -3 -19.5t-3 -19.5l-86 -545h-487l90 573q3 17 -7 25t-24 8 q-31 0 -57 -22l-92 -584h-488z" />
<glyph unicode="n" horiz-adv-x="1220" d="M-27 0l156 983h436l-12 -76q138 111 307 111q75 0 134.5 -23t95 -61t58.5 -88t26 -102q1 -18 1 -35q0 -35 -4 -70l-102 -639h-496l91 567q3 17 -7.5 27t-29.5 10q-33 0 -66 -22l-92 -582h-496z" />
<glyph unicode="o" horiz-adv-x="1216" d="M20 524q26 167 114.5 279.5t218.5 163.5t298 51q117 0 218 -35.5t175 -102.5t107 -176q20 -67 20 -143q0 -49 -8 -102q-27 -167 -116.5 -279.5t-220 -163.5t-298.5 -51q-93 0 -176.5 21.5t-152 67.5t-114.5 111t-64 157q-9 48 -9 100q0 49 8 102zM481 475q-1 -8 0 -16 q0 -41 18 -63q22 -26 66 -27q54 0 88.5 36.5t40.5 102.5q1 9 1 18q0 88 -87 88q-52 0 -86.5 -36.5t-40.5 -102.5z" />
<glyph unicode="p" horiz-adv-x="1282" d="M-98 -451l227 1434h436l-16 -104q65 63 146.5 101t162.5 38q142 0 235 -78t125 -204q19 -72 19 -153q0 -59 -10 -124q-17 -104 -53 -190.5t-93.5 -156t-143.5 -108.5t-192 -39q-79 0 -149.5 30.5t-116.5 72.5l-82 -519h-495zM530 385q21 -27 64 -27q46 0 82 39t47 97 q3 17 3 33q0 32 -12 59q-19 39 -69 39q-41 0 -82 -33z" />
<glyph unicode="q" d="M15 351q-1 21 -1 42q0 63 9 131q16 103 53 190t96 156t146.5 108.5t193.5 39.5q100 0 181 -47t124 -121l21 133h436l-227 -1434h-496l78 490q-90 -74 -240 -74q-86 0 -155 29.5t-114 81t-73 122.5t-32 153zM524 485q-2 -14 -2 -27q0 -42 18 -67q22 -33 62 -35q43 0 82 33 l33 205q-17 31 -62 31q-50 0 -87 -39.5t-44 -100.5z" />
<glyph unicode="r" horiz-adv-x="878" d="M-27 0l156 983h438l-14 -88q59 61 155 93q61 20 130 20q40 0 82 -7l-72 -448q-51 26 -120 26q-18 0 -38 -2q-94 -9 -137 -51l-84 -526h-496z" />
<glyph unicode="s" horiz-adv-x="1013" d="M-20 57l61 377q58 -53 143.5 -84t147.5 -37q20 -2 36 -2q62 0 64 25q2 15 -20 28t-57 26t-77.5 29t-84 42.5t-74.5 60.5t-49 88q-11 37 -12 80q0 21 3 43q34 285 500 285q224 0 400 -88l-56 -338q-55 42 -128 69t-140 27q-70 0 -72 -31q-1 -16 21.5 -29.5t58.5 -26 t79.5 -28t85.5 -41t74 -59.5q32 -35 46 -89q8 -31 9 -66q0 -27 -5 -56q-12 -71 -49 -125t-88 -86t-120.5 -52t-138 -27t-149.5 -7q-214 0 -409 92z" />
<glyph unicode="t" horiz-adv-x="894" d="M37 594l61 389h123l41 254l516 115l-59 -369h182l-61 -389h-183l-24 -156l-2 -16q0 -55 80 -55q54 0 104 16l-59 -383q-129 -37 -271 -37q-41 0 -79.5 5.5t-79.5 19t-74 35.5t-63 54t-46 77q-17 44 -23 102q-2 19 -2 39q0 42 9 90l33 209h-123z" />
<glyph unicode="u" horiz-adv-x="1218" d="M18 350l101 633h495l-88 -557q-1 -8 -1 -15q0 -36 38 -36q35 0 64 24l92 584h495l-155 -983h-436l12 78q-110 -113 -287 -113q-88 0 -157 31.5t-111 84.5t-58 123q-10 40 -9 82q0 32 5 64z" />
<glyph unicode="v" horiz-adv-x="1267" d="M59 983h502l33 -534l205 534h532l-528 -983h-527z" />
<glyph unicode="w" horiz-adv-x="1744" d="M68 983h479l10 -504l201 504h323l37 -504l174 504h508l-457 -983h-460l-45 416l-174 -416h-451z" />
<glyph unicode="x" horiz-adv-x="1198" d="M-121 0l397 489l-223 494h484l81 -219l144 219h516l-387 -494l233 -489h-518l-59 203l-150 -203h-518z" />
<glyph unicode="y" horiz-adv-x="1282" d="M-59 -440l61 389q64 -21 131 -21q123 0 201 97l-285 958h490l102 -496l184 496h516l-507 -1022q-222 -444 -631 -444q-146 0 -262 43z" />
<glyph unicode="z" horiz-adv-x="1046" d="M-47 0l45 289l336 305h-254l61 389h889l-47 -293l-332 -301h314l-62 -389h-950z" />
<glyph unicode="{" horiz-adv-x="876" d="M0 516l66 412q30 -4 59 -1.5t52 10t39 29.5t22 58l43 268q20 125 83 215.5t157.5 135.5t216.5 50.5t259 -40.5l-57 -367q-164 59 -199 -172l-28 -188q-32 -198 -205 -211q64 -7 106.5 -73.5t26.5 -166.5l-31 -188q-14 -89 18 -123.5t130 -24.5l-58 -366q-157 -28 -276 -8 t-195.5 76.5t-108.5 142.5t-16 190l39 248q4 27 -2.5 45.5t-16.5 28t-33 14.5t-38.5 5.5t-47.5 0.5h-5z" />
<glyph unicode="|" horiz-adv-x="671" d="M-37 -205l295 1864h492l-295 -1864h-492z" />
<glyph unicode="}" horiz-adv-x="874" d="M-84 -223l57 362q93 -20 137 23t62 157l29 185q17 102 70.5 155.5t134.5 59.5q-64 7 -107 73.5t-27 165.5l31 189q14 90 -17.5 122.5t-129.5 20.5l59 377q158 29 277.5 10.5t196.5 -74t108.5 -144t13.5 -199.5l-41 -252q-5 -34 5 -54t30 -26t47.5 -8t56.5 0l-63 -406 q-31 4 -59 1t-50.5 -12.5t-38.5 -32.5t-22 -60l-43 -269q-39 -250 -230 -343.5t-487 -20.5z" />
<glyph unicode="~" horiz-adv-x="1243" d="M61 463q-5 117 20 206.5t73 143t110 80.5t135 27q68 0 152 -23t149.5 -46.5t90.5 -23.5q31 0 42 17t13 61h371q5 -117 -20 -206.5t-73 -143t-110 -80t-135 -26.5q-68 0 -152 23t-149.5 46t-90.5 23q-31 0 -42 -17t-13 -61h-371z" />
<glyph unicode="&#xa2;" horiz-adv-x="1038" d="M31 492q12 108 56.5 197t109 149t147 101.5t168.5 60t176 18.5q37 0 55 -2l33 213h164l-37 -238q31 -7 98 -33l-59 -378q-46 21 -100 30l-37 -231q56 10 121 35l-64 -404q-41 -12 -119 -28l-36 -228h-164l32 211h-6q-174 0 -301.5 60t-192 180.5t-44.5 286.5zM539 489 q-7 -46 20.5 -74.5t81.5 -37.5l37 231q-123 -25 -139 -119z" />
<glyph unicode="&#xa3;" horiz-adv-x="1253" d="M-33 0l68 424h51q109 0 123 88l6 33h-127l55 340h125l8 55q20 127 75 222.5t136.5 152.5t180 84.5t215.5 27.5q198 0 379 -77l-60 -383q-112 49 -235 49q-153 0 -170 -105l-4 -26h315l-53 -340h-316l-4 -25q-9 -67 -65 -96h501l-67 -424h-1137z" />
<glyph unicode="&#xa5;" horiz-adv-x="1601" d="M162 1393h551l127 -484l237 484h611l-480 -656h183l-35 -225h-301l-11 -61h302l-35 -226h-305l-37 -225h-541l37 225h-301l35 226h305l10 61h-305l35 225h186z" />
<glyph unicode="&#xa7;" horiz-adv-x="1079" d="M4 23l53 339q67 -45 157 -69.5t151 -24.5q51 0 72 6t22 23q1 10 -5 17.5t-23 16t-30.5 13.5t-45 16.5t-50.5 18.5q-41 15 -72 31t-64.5 43t-53 58.5t-28.5 78t-1 102.5q19 135 193 223q-141 104 -115 269q10 66 44.5 116.5t82 81.5t111.5 51t127.5 27.5t134.5 7.5 q104 0 210.5 -25t186.5 -65l-49 -307q-136 68 -273 68q-64 0 -67 -33q-1 -17 20.5 -27.5t78 -28.5t97.5 -36q202 -87 168 -301q-22 -140 -172 -248q120 -88 94 -244q-47 -297 -544 -297q-197 0 -410 99zM471 715q-10 -50 59 -80q80 -31 84 -33q44 20 52 53q12 49 -68 84 q-15 6 -41 15.5t-35 13.5q-41 -14 -51 -53z" />
<glyph unicode="&#xa8;" horiz-adv-x="1001" d="M270 1712q7 100 71 157.5t159 57.5t151 -57.5t49 -157.5t-70.5 -157.5t-158.5 -57.5t-151.5 57.5t-49.5 157.5zM758 1712q7 100 70.5 157.5t158.5 57.5t151.5 -57.5t49.5 -157.5t-71 -157.5t-159 -57.5t-151 57.5t-49 157.5z" />
<glyph unicode="&#xa9;" horiz-adv-x="1677" d="M77 477q-23 123 1 273q23 142 83.5 260.5t144.5 202t190 142t221.5 86t236.5 27.5q159 0 296.5 -53.5t234.5 -151t140 -248t13 -331.5q-23 -142 -83.5 -260.5t-145 -202.5t-190.5 -142t-221.5 -86t-237.5 -28q-126 0 -240 34t-205 99t-153 160.5t-85 218.5zM244 717 q-22 -138 9.5 -252t104 -189t177.5 -116t229 -41q179 0 325.5 65.5t249 202.5t134.5 330q22 138 -9 252t-104 189t-178 116t-230 41q-178 0 -324 -65.5t-249 -202.5t-135 -330zM438 733q14 86 52 156t89 116t115.5 77.5t128.5 45t129 13.5q175 0 303 -64l-43 -276 q-76 39 -178 39q-183 0 -196 -127q-6 -55 35 -88t104 -33q125 0 209 43l-43 -275q-122 -67 -303 -67q-67 0 -130 16t-119 51t-95 85t-55.5 124.5t-2.5 163.5z" />
<glyph unicode="&#xab;" horiz-adv-x="1478" d="M29 449l14 98l338 383h504l-381 -438l233 -439h-487zM643 449l14 98l338 383h504l-381 -438l234 -439h-488z" />
<glyph unicode="&#xad;" horiz-adv-x="974" d="M35 307l57 369h815l-57 -369h-815z" />
<glyph unicode="&#xae;" horiz-adv-x="1677" d="M77 477q-23 123 1 273q23 142 83.5 260.5t144.5 202t190 142t221.5 86t236.5 27.5q159 0 296.5 -53.5t234.5 -151t140 -248t13 -331.5q-23 -142 -83.5 -260.5t-145 -202.5t-190.5 -142t-221.5 -86t-237.5 -28q-126 0 -240 34t-205 99t-153 160.5t-85 218.5zM244 717 q-22 -138 9.5 -252t104 -189t177.5 -116t229 -41q179 0 325.5 65.5t249 202.5t134.5 330q22 138 -9 252t-104 189t-178 116t-230 41q-178 0 -324 -65.5t-249 -202.5t-135 -330zM455 317l125 799h385q70 0 129.5 -17.5t107 -53.5t68 -101t6.5 -151q-23 -147 -150 -215 l142 -261h-322l-102 218h-15h-36l-33 -218h-305zM827 754h64q81 0 92 67q1 11 -1 22t-13.5 22.5t-32.5 11.5h-88z" />
<glyph unicode="&#xaf;" horiz-adv-x="737" d="M180 1532l51 321h779l-52 -321h-778z" />
<glyph unicode="&#xb0;" horiz-adv-x="929" d="M104 1100q29 177 157 272.5t319 95.5q196 0 309 -117.5t82 -316.5q-30 -190 -156 -286.5t-321 -96.5q-196 0 -309 119t-81 330zM444 1061q-6 -39 14.5 -63.5t59.5 -24.5q43 0 70 24t33 64q6 39 -13 63.5t-57 24.5q-45 0 -73 -24.5t-34 -63.5z" />
<glyph unicode="&#xb4;" horiz-adv-x="833" d="M276 1526l273 360h483l-325 -360h-431z" />
<glyph unicode="&#xb6;" horiz-adv-x="1777" d="M102 995q34 210 180 324.5t380 114.5h1132l-299 -1885h-508l225 1414h-104l-225 -1414h-508l151 951q-224 0 -342 133t-82 362z" />
<glyph unicode="&#xb7;" horiz-adv-x="608" d="M31 520q18 111 94 166t180 55q121 0 192.5 -75.5t49.5 -210.5q-18 -111 -94.5 -166.5t-182.5 -55.5q-119 0 -189.5 76t-49.5 211z" />
<glyph unicode="&#xb8;" horiz-adv-x="477" d="M-195 -442l39 249q78 -40 174 -40q114 0 121 45q4 18 -13.5 29t-46.5 13.5t-61.5 0t-60.5 -8.5l76 154h270l-47 -90q85 0 141 -55t43 -138q-9 -57 -42 -98t-83 -63.5t-104.5 -32.5t-116.5 -10q-176 0 -289 45z" />
<glyph unicode="&#xbb;" horiz-adv-x="1478" d="M-53 53l383 439l-236 438h490l219 -395l-17 -99l-333 -383h-506zM563 53l383 439l-235 438h489l219 -395l-16 -99l-334 -383h-506z" />
<glyph unicode="&#x2c6;" horiz-adv-x="901" d="M154 1526l333 368h435l215 -368h-373l-78 131l-123 -131h-409z" />
<glyph unicode="&#x2c7;" horiz-adv-x="901" d="M221 1894h393l76 -131l125 131h389l-334 -368h-434z" />
<glyph unicode="&#x2d8;" horiz-adv-x="966" d="M287 1634l51 320q149 -101 369 -101q241 0 421 101l-51 -320q-174 -112 -393 -112q-110 0 -217 29t-180 83z" />
<glyph unicode="&#x2d9;" horiz-adv-x="481" d="M248 1782q16 99 83 145.5t161 46.5q110 0 173 -67t44 -191q-16 -101 -82 -147.5t-162 -46.5q-109 0 -173.5 67.5t-43.5 192.5z" />
<glyph unicode="&#x2da;" horiz-adv-x="593" d="M229 1808q19 115 110 178.5t212 63.5q136 0 220.5 -84t62.5 -223q-13 -81 -61 -137.5t-115.5 -82.5t-149.5 -26q-63 0 -118 20.5t-95.5 59t-58.5 98.5t-7 133zM465 1774q-5 -30 9 -49t48 -19q67 0 78 68q5 30 -8.5 48.5t-48.5 18.5q-34 0 -53.5 -18.5t-24.5 -48.5z" />
<glyph unicode="&#x2db;" horiz-adv-x="495" d="M-80 -297q0 73 52.5 153t150.5 144h313q-42 -37 -74 -82t-32 -74q0 -34 35 -34q18 0 38 8l-45 -281q-73 -22 -165 -22q-118 0 -195.5 46.5t-77.5 141.5z" />
<glyph unicode="&#x2dc;" horiz-adv-x="958" d="M238 1513q-23 171 58 286.5t222 115.5q60 0 118.5 -20t105 -40t79.5 -20q25 0 40 17.5t9 50.5h306q23 -171 -58 -286.5t-223 -115.5q-60 0 -118.5 20t-105 40t-79.5 20q-25 0 -40 -17.5t-9 -50.5h-305z" />
<glyph unicode="&#x2dd;" horiz-adv-x="1103" d="M213 1516l219 362h418l-250 -362h-387zM694 1516l250 362h418l-281 -362h-387z" />
<glyph unicode="&#x2000;" horiz-adv-x="1025" />
<glyph unicode="&#x2001;" horiz-adv-x="2050" />
<glyph unicode="&#x2002;" horiz-adv-x="1025" />
<glyph unicode="&#x2003;" horiz-adv-x="2050" />
<glyph unicode="&#x2004;" horiz-adv-x="683" />
<glyph unicode="&#x2005;" horiz-adv-x="512" />
<glyph unicode="&#x2006;" horiz-adv-x="341" />
<glyph unicode="&#x2007;" horiz-adv-x="341" />
<glyph unicode="&#x2008;" horiz-adv-x="256" />
<glyph unicode="&#x2009;" horiz-adv-x="410" />
<glyph unicode="&#x200a;" horiz-adv-x="113" />
<glyph unicode="&#x2010;" horiz-adv-x="974" d="M35 307l57 369h815l-57 -369h-815z" />
<glyph unicode="&#x2011;" horiz-adv-x="974" d="M35 307l57 369h815l-57 -369h-815z" />
<glyph unicode="&#x2012;" horiz-adv-x="974" d="M35 307l57 369h815l-57 -369h-815z" />
<glyph unicode="&#x2013;" horiz-adv-x="1198" d="M35 307l57 369h1038l-57 -369h-1038z" />
<glyph unicode="&#x2014;" horiz-adv-x="1628" d="M35 307l57 369h1469l-58 -369h-1468z" />
<glyph unicode="&#x2018;" horiz-adv-x="630" d="M39 778l350 656h361l-254 -656h-457z" />
<glyph unicode="&#x2019;" horiz-adv-x="624" d="M57 778l254 656h457l-350 -656h-361z" />
<glyph unicode="&#x201a;" horiz-adv-x="602" d="M-174 -293l254 655h457l-351 -655h-360z" />
<glyph unicode="&#x201c;" horiz-adv-x="1142" d="M39 778l350 656h361l-254 -656h-457zM551 778l350 656h361l-254 -656h-457z" />
<glyph unicode="&#x201d;" horiz-adv-x="1136" d="M57 778l254 656h457l-350 -656h-361zM569 778l254 656h457l-350 -656h-361z" />
<glyph unicode="&#x201e;" horiz-adv-x="1114" d="M-174 -293l254 655h457l-351 -655h-360zM338 -293l254 655h457l-351 -655h-360z" />
<glyph unicode="&#x2020;" horiz-adv-x="1202" d="M33 506l76 477h282l72 451h545l-72 -451h281l-76 -477h-281l-151 -957h-545l151 957h-282z" />
<glyph unicode="&#x2021;" horiz-adv-x="1302" d="M-41 -121l72 459h309l31 186h-310l72 459h309l72 451h545l-72 -451h309l-71 -459h-310l-30 -186h309l-72 -459h-309l-53 -330h-545l53 330h-309z" />
<glyph unicode="&#x2022;" horiz-adv-x="942" d="M115 750q14 87 53.5 152.5t96 103.5t122 56.5t139.5 18.5q82 0 149.5 -24.5t116 -71.5t68.5 -124.5t4 -176.5q-14 -88 -52.5 -154t-94 -105t-121 -58t-141.5 -19q-81 0 -148.5 25t-116.5 73t-70 126.5t-5 177.5z" />
<glyph unicode="&#x2026;" horiz-adv-x="1908" d="M-16 252q18 111 94 166t180 55q121 0 192 -76t50 -211q-18 -111 -95.5 -166t-183.5 -55q-119 0 -189 76t-48 211zM639 252q18 111 94 166t180 55q121 0 192 -76t50 -211q-18 -111 -95 -166t-183 -55q-119 0 -189.5 76t-48.5 211zM1294 252q18 111 94 166t181 55 q120 0 191 -76t50 -211q-18 -111 -95 -166t-183 -55q-119 0 -189.5 76t-48.5 211z" />
<glyph unicode="&#x202f;" horiz-adv-x="410" />
<glyph unicode="&#x2039;" horiz-adv-x="864" d="M29 449l14 98l338 383h504l-381 -438l233 -439h-487z" />
<glyph unicode="&#x203a;" horiz-adv-x="862" d="M-53 53l383 439l-236 438h490l219 -395l-17 -99l-333 -383h-506z" />
<glyph unicode="&#x205f;" horiz-adv-x="512" />
<glyph unicode="&#x20ac;" horiz-adv-x="1462" d="M33 502l26 164h129q0 20 9 61h-129l26 164h144q39 113 106.5 204.5t148.5 152.5t177 102t192 59t195 18q239 0 434 -86l-70 -432q-113 68 -295 68q-177 0 -276 -86h350l-26 -164h-418q-11 -33 -11 -61h420l-26 -164h-344q69 -78 206 -78q204 0 357 80l-74 -465 q-177 -74 -399 -74q-134 0 -251.5 33t-213 97.5t-157 168.5t-75.5 238h-155z" />
<glyph unicode="&#x2122;" horiz-adv-x="1497" d="M150 1196l36 238h521l-37 -238h-127l-49 -305h-269l49 305h-124zM657 891l86 543h263l92 -224l162 224h282l-86 -543h-260l37 229l-92 -127h-127l-58 140l-38 -242h-261z" />
<glyph unicode="&#x25ca;" horiz-adv-x="1308" d="M63 717l441 717h557l223 -717l-442 -717h-557zM524 686l90 -289l213 346l-90 289z" />
<glyph unicode="&#x25fc;" horiz-adv-x="983" d="M0 0v983h983v-983h-983z" />
<glyph unicode="&#xfb01;" horiz-adv-x="1429" d="M41 594l61 389h123l15 90q15 92 56 166t98.5 123.5t131.5 82.5t153.5 47.5t166.5 14.5q242 0 430 -77l-59 -367q-158 49 -283 49q-99 0 -151 -33.5t-60 -89.5l-2 -6h704l-155 -983h-496l94 594h-209l-94 -594h-495l94 594h-123z" />
<glyph unicode="&#xfb02;" horiz-adv-x="1462" d="M41 594l61 389h123l15 90q17 108 69.5 192.5t130 136.5t171 78.5t198.5 26.5q153 0 309 -47l422 35l-237 -1495h-496l174 1098q-44 11 -88 8q-65 0 -114 -33t-58 -88v-2h137l-61 -389h-138l-94 -594h-495l94 594h-123z" />
</font>
</defs>
</svg>
