<?xml version="1.0" standalone="no"?>
<!DOCTYPE svg PUBLIC "-//W3C//DTD SVG 1.1//EN" "http://www.w3.org/Graphics/SVG/1.1/DTD/svg11.dtd" >
<svg xmlns="http://www.w3.org/2000/svg">
<metadata></metadata>
<defs>
<font id="mullerhairline_italic" horiz-adv-x="1251" >
<font-face units-per-em="2048" ascent="1597" descent="-451" />
<missing-glyph horiz-adv-x="565" />
<glyph horiz-adv-x="0" />
<glyph horiz-adv-x="682" />
<glyph unicode=" "  horiz-adv-x="565" />
<glyph unicode="&#x09;" horiz-adv-x="565" />
<glyph unicode="&#xa0;" horiz-adv-x="565" />
<glyph unicode="!" horiz-adv-x="378" d="M72 23q2 11 12 19.5t20 8.5q15 0 23 -9.5t6 -23.5q-3 -11 -13 -19.5t-22 -8.5q-14 0 -21.5 10t-4.5 23zM139 328l176 1106h21l-176 -1106h-21z" />
<glyph unicode="&#x22;" horiz-adv-x="462" d="M229 1188l39 246h25l-47 -246h-17zM393 1188l39 246h25l-47 -246h-17z" />
<glyph unicode="#" horiz-adv-x="1323" d="M55 399l4 21h201l219 555h-229l2 20h235l158 400h23l-158 -400h569l158 400h23l-158 -400h194l-2 -20h-198l-219 -555h227l-4 -21h-234l-157 -399h-23l158 399h-570l-157 -399h-23l158 399h-197zM285 420h567l219 555h-567z" />
<glyph unicode="$" horiz-adv-x="1163" d="M49 98l2 21q96 -56 218 -87.5t243 -31.5q89 0 169 17.5t150 53.5t117 99t60 147q11 75 -11 134.5t-69.5 98t-111.5 70t-136.5 55.5t-144.5 48.5t-136 56t-110.5 71t-68 99t-9.5 135.5q13 81 64.5 145.5t124.5 103.5t155.5 59t165.5 20l37 246h20l-37 -246q207 -7 361 -96 l-4 -21q-78 45 -180.5 71t-200.5 26q-78 0 -155.5 -18.5t-147.5 -54.5t-120 -98t-63 -141q-12 -72 10 -129t69 -94t111 -67t136.5 -54.5t144.5 -49t136 -57t111 -73.5t69 -103t10 -141q-13 -87 -63 -153.5t-123 -105t-156.5 -57t-173.5 -17.5l-37 -246h-20l37 246 q-125 5 -242 35t-201 83z" />
<glyph unicode="%" horiz-adv-x="1777" d="M170 1176q21 133 117.5 205.5t218.5 72.5q55 0 104.5 -19.5t86.5 -55.5t53.5 -93t5.5 -127q-21 -133 -117.5 -205.5t-216.5 -72.5q-118 0 -196 79.5t-56 215.5zM188 1171q-19 -124 52 -197t180 -73q115 0 205.5 68t111.5 194q19 124 -51.5 197.5t-177.5 73.5 q-117 0 -208 -68t-112 -195zM344 -123l1104 1679h25l-1104 -1679h-25zM1061 274q21 134 117 206.5t219 72.5q117 0 194.5 -79.5t57.5 -215.5q-22 -133 -119 -205.5t-215 -72.5q-56 0 -106 19t-87.5 55t-54.5 93t-6 127zM1081 270q-10 -63 5 -115.5t48.5 -85.5t79.5 -51 t97 -18q115 0 205.5 68t111.5 194q19 124 -51.5 197t-177.5 73q-117 0 -208 -68t-110 -194z" />
<glyph unicode="&#x26;" horiz-adv-x="1374" d="M76 328q9 57 36.5 110.5t64 95.5t91 84.5t104.5 74.5t117 69q-180 201 -153 364q22 133 143 230.5t303 97.5q148 0 232 -75.5t65 -194.5q-5 -33 -22.5 -65t-39 -58t-59 -55.5t-68 -50t-82.5 -49.5t-86 -46.5t-93.5 -48t-91.5 -47.5l-15 -8q14 -15 41 -43t39 -41l422 -434 q163 172 201 397h20q-38 -231 -207 -412l217 -223h-26l-205 209q-106 -106 -245.5 -167.5t-305.5 -61.5q-209 0 -314.5 99t-82.5 249zM96 324q-21 -138 78.5 -231t296.5 -93q318 0 541 223l-422 434q-8 8 -38 39.5t-48 51.5q-84 -46 -146.5 -88t-120.5 -94t-94 -113 t-47 -129zM356 1122q-24 -154 152 -350q3 1 8 4t8 4l83 41.5t84 42.5t77 40.5t75 43t64 42.5t58.5 46t43.5 46.5t34 51.5t16 54q17 107 -60 176.5t-215 69.5q-177 0 -292.5 -92t-135.5 -220z" />
<glyph unicode="'" horiz-adv-x="299" d="M229 1188l39 246h25l-47 -246h-17z" />
<glyph unicode="(" horiz-adv-x="485" d="M127 719q38 241 159.5 489t293.5 447h26q-174 -196 -297 -445t-162 -495q-38 -243 6 -491.5t156 -444.5h-24q-110 200 -153.5 448t-4.5 492z" />
<glyph unicode=")" horiz-adv-x="483" d="M-84 -221q174 196 297 445t162 495q38 243 -6 491.5t-156 444.5h25q110 -199 153 -447.5t4 -492.5q-38 -241 -159 -489.5t-293 -446.5h-27z" />
<glyph unicode="*" horiz-adv-x="858" d="M227 1229l11 18l264 -96l45 283h20l-45 -283l297 96l4 -20l-297 -94l140 -242l-19 -12l-137 239l-219 -239l-15 12l218 242z" />
<glyph unicode="+" horiz-adv-x="1107" d="M143 707l2 20h420l68 420h20l-67 -420h420l-2 -20h-420l-68 -420h-20l67 420h-420z" />
<glyph unicode="," horiz-adv-x="299" d="M-66 -287l168 430h21l-168 -430h-21z" />
<glyph unicode="-" horiz-adv-x="997" d="M133 483l2 21h696l-2 -21h-696z" />
<glyph unicode="." horiz-adv-x="290" d="M37 23q1 10 11.5 19t21.5 9q15 0 22.5 -9.5t5.5 -23.5q-3 -11 -13 -19.5t-22 -8.5q-14 0 -21.5 10t-4.5 23z" />
<glyph unicode="/" horiz-adv-x="819" d="M-18 -117l872 1667h20l-872 -1667h-20z" />
<glyph unicode="0" horiz-adv-x="1443" d="M129 471.5q-4 110.5 14 237.5q26 159 83.5 287.5t145 222t209 144t267.5 50.5q100 0 181.5 -24.5t139 -70.5t98 -111t59 -146t21 -176.5t-15.5 -200.5q-26 -159 -84 -287.5t-145 -222t-208 -144t-267 -50.5q-120 0 -213 35.5t-152 100t-94 155t-39 201zM149.5 475 q3.5 -107 37 -194.5t90 -150t145.5 -96.5t203 -34q190 0 335 87t231 239.5t120 361.5q18 123 14.5 230t-37 194.5t-90 150t-145.5 96.5t-203 34q-190 0 -335 -87t-231 -239.5t-120 -361.5q-18 -123 -14.5 -230z" />
<glyph unicode="1" horiz-adv-x="798" d="M25 0l4 20h327l213 1346l-348 -123l4 21l359 129h10l-217 -1373h299l-4 -20h-647z" />
<glyph unicode="2" horiz-adv-x="1128" d="M10 0l4 20q15 97 58.5 181t86.5 136.5t130 114t133.5 87.5t152.5 81q6 3 9 5q62 33 96.5 51.5t89 51t85.5 57t70.5 60.5t62.5 70t42 78t27 92q22 137 -79.5 222.5t-283.5 85.5q-215 0 -432 -123l4 22q206 121 426 121q189 0 299 -91t86 -241q-8 -50 -28.5 -95.5 t-43.5 -81t-64.5 -73t-72.5 -62t-87 -58.5t-89.5 -52.5t-97.5 -52.5q-183 -98 -238 -133q-174 -110 -251 -252q-49 -89 -70 -201h895l-4 -20h-916z" />
<glyph unicode="3" horiz-adv-x="1208" d="M63 70l3 20q185 -90 448 -90q212 0 349.5 96.5t166.5 268.5q14 86 -11 153.5t-81.5 108.5t-133 62.5t-169.5 21.5h-197l4 20h197q101 0 182.5 27.5t133.5 74t83 101.5t41 117q23 140 -75 241t-281 101q-126 0 -228 -21.5t-212 -66.5l4 22q205 86 434 86 q194 0 298.5 -107.5t80.5 -258.5q-19 -117 -107.5 -208.5t-240.5 -117.5q153 -23 238.5 -115.5t60.5 -245.5q-29 -179 -173 -279.5t-362 -100.5q-286 0 -453 90z" />
<glyph unicode="4" horiz-adv-x="1304" d="M29 358l2 17l997 1018h23l-162 -1014h309l-2 -21h-309l-58 -358h-20l57 358h-837zM63 379h805l158 983z" />
<glyph unicode="5" horiz-adv-x="1183" d="M59 74l2 20q186 -94 428 -94q212 0 355.5 106.5t171.5 278.5q15 95 -12 168.5t-87.5 117.5t-142.5 66.5t-182 22.5q-195 0 -399 -68l153 701h778l-4 -21h-758l-143 -651q189 59 371 59q82 0 153.5 -14.5t131.5 -45.5t100 -77t57 -113t4 -149q-28 -177 -177.5 -289 t-366.5 -112q-122 0 -238 25t-195 69z" />
<glyph unicode="6" horiz-adv-x="1230" d="M137 649q64 396 250 580t471 184q158 0 275 -74l-5 -20q-117 74 -268 74q-583 0 -702 -748q-2 -11 -5.5 -36t-5.5 -38q121 121 270.5 190.5t295.5 69.5q90 0 165.5 -26t132 -76t81 -133t8.5 -188q-21 -131 -98 -229.5t-188 -148.5t-239 -50q-262 0 -374 178.5t-64 490.5z M145 541q-18 -255 90.5 -398t337.5 -143q192 0 334 110.5t172 301.5q16 99 -6.5 176.5t-75 125.5t-124.5 72.5t-158 24.5q-148 0 -300 -72.5t-270 -197.5z" />
<glyph unicode="7" horiz-adv-x="1034" d="M199 1372l4 21h911l-2 -13l-887 -1380h-24l882 1372h-884z" />
<glyph unicode="8" horiz-adv-x="1310" d="M90 391q39 250 359 393q-108 49 -160.5 120.5t-34.5 182.5q10 63 49 120.5t103.5 104t162.5 74t215 27.5q115 0 204.5 -32.5t140 -86.5t71.5 -119t10 -133q-35 -215 -315 -380q64 -24 110.5 -51.5t85 -67t53 -94.5t3.5 -123q-22 -140 -174 -243t-389 -103q-134 0 -236 33 t-161.5 90.5t-84.5 131t-12 156.5zM111 387q-12 -77 11.5 -146t79 -123.5t153.5 -86t227 -31.5q232 0 377 97.5t167 232.5q9 59 -1.5 106.5t-40.5 83t-68 62t-94.5 49t-107 38.5t-119.5 35q-13 3 -19 5q-144 40 -205 65q-151 -63 -245.5 -162.5t-114.5 -224.5zM274 1083 q-9 -55 2 -101t39 -79t64 -59t83.5 -45.5t90 -34t91.5 -28.5q22 -6 32 -9q117 -32 196 -57q282 160 318 377q10 63 -10 123.5t-67.5 110.5t-132.5 81t-194 31q-114 0 -208.5 -26t-157 -70t-99.5 -98.5t-47 -115.5z" />
<glyph unicode="9" horiz-adv-x="1228" d="M129 53l4 21q117 -74 268 -74q584 0 703 748q2 12 5 36.5t5 36.5q-121 -121 -270 -190.5t-295 -69.5q-91 0 -167.5 26t-132 76.5t-79.5 133t-8 188.5q21 131 98 229.5t187.5 148.5t238.5 50q260 0 373 -179.5t65 -490.5q-32 -202 -98 -350t-160.5 -238t-209 -132.5 t-253.5 -42.5q-159 0 -274 73zM182 981q-16 -99 7 -176.5t75.5 -125.5t124.5 -72.5t158 -24.5q148 0 299.5 72.5t269.5 197.5q18 255 -90.5 398t-337.5 143q-192 0 -334 -110.5t-172 -301.5z" />
<glyph unicode=":" horiz-adv-x="362" d="M61 23q1 10 11.5 19t21.5 9q15 0 23 -9.5t6 -23.5q-3 -11 -13 -19.5t-22 -8.5q-14 0 -22 10t-5 23zM190 842q1 10 11.5 19t21.5 9q15 0 23 -9t6 -23q-2 -11 -11.5 -20t-21.5 -9q-13 0 -22 9.5t-7 23.5z" />
<glyph unicode=";" horiz-adv-x="198" d="M-123 -287l168 430h21l-168 -430h-21zM127 934q1 10 12.5 19.5t22.5 9.5q14 0 21 -9.5t5 -23.5q-2 -11 -11 -20t-21 -9q-13 0 -22 9.5t-7 23.5z" />
<glyph unicode="&#x3c;" horiz-adv-x="999" d="M121 707l4 22l770 334l-2 -25l-748 -321l646 -324l-5 -22z" />
<glyph unicode="=" horiz-adv-x="1101" d="M147 522l3 21h778l-2 -21h-779zM205 891l4 20h778l-4 -20h-778z" />
<glyph unicode="&#x3e;" horiz-adv-x="995" d="M137 371l4 24l748 322l-645 323l2 23l667 -336l-4 -22z" />
<glyph unicode="?" horiz-adv-x="1003" d="M197 1317l4 22q203 115 409 115q195 0 300.5 -88.5t80.5 -237.5q-10 -61 -42.5 -121.5t-77 -113t-97.5 -104t-105 -102t-97 -100t-76.5 -105t-40.5 -109.5h-21q12 78 67.5 157.5t128 148.5l145 138t129 151.5t69.5 164.5q22 137 -76.5 219t-286.5 82q-202 0 -413 -117z M358 23q1 10 11.5 19t21.5 9q15 0 23 -9.5t6 -23.5q-3 -11 -13 -19.5t-22 -8.5q-14 0 -22 10t-5 23z" />
<glyph unicode="@" horiz-adv-x="2170" d="M96 504q24 148 87 287.5t165.5 259.5t233.5 210t300 141.5t355 51.5q100 0 190.5 -17.5t164.5 -49.5t139.5 -77t114.5 -99t89.5 -116t64.5 -128.5t39.5 -135.5t15 -137.5t-8.5 -134.5q-41 -264 -159.5 -401.5t-274.5 -137.5q-127 0 -189 73.5t-39 211.5 q-68 -105 -175.5 -170t-231.5 -65q-173 0 -268.5 114t-65.5 305q30 188 160 302t301 114q127 0 216 -66.5t122 -174.5l35 223h20l-96 -598q-17 -116 37 -182t172 -66q149 0 262.5 132t152.5 390q8 64 8.5 130.5t-14.5 134t-38 132t-62.5 124.5t-87 113t-111 96.5 t-135.5 74.5t-161 48.5t-187 17.5q-183 0 -348.5 -50.5t-294 -138.5t-229 -206t-162.5 -255t-86 -284q-28 -176 1.5 -329.5t106.5 -266t191 -193.5t255.5 -121.5t299.5 -40.5q258 0 473 74l-4 -20q-213 -74 -467 -74q-162 0 -307.5 41t-262.5 124t-196 198t-109.5 272.5 t-1.5 339.5zM664 485q-29 -181 60 -288t251 -107q131 0 245 76t173 192l41 258q-21 117 -109.5 193t-218.5 76q-165 0 -289 -108.5t-153 -291.5z" />
<glyph unicode="A" horiz-adv-x="1441" d="M-55 0l895 1434h28l441 -1434h-23l-143 465h-883l-291 -465h-24zM272 485h867l-279 904q-7 21 -8 26q-2 -5 -8 -14l-8 -12z" />
<glyph unicode="B" horiz-adv-x="1372" d="M127 0l227 1434h498q105 0 186.5 -21t140.5 -63t83 -112q15 -43 16 -96q0 -32 -6 -67q-23 -145 -121.5 -223.5t-243.5 -97.5q53 -8 98 -21.5t91.5 -42t77 -68t44.5 -101.5q8 -35 8 -74q0 -31 -5 -66q-12 -71 -40.5 -128.5t-65.5 -96.5t-87.5 -68t-100 -45.5t-110 -26.5 t-110 -13t-107.5 -3h-473zM152 20h452q56 0 103.5 3t106 12.5t106 25t96 43.5t84 65t62.5 92.5t38 123.5q6 32 6 61q0 18 -2 34q-6 42 -17.5 76t-34.5 60.5t-47.5 46t-57.5 33.5t-63 23t-64.5 14.5t-62.5 7.5t-56 2h-535zM268 764h559q73 0 141 18t128 54t102 98.5t55 144.5 q5 32 5 61q0 75 -34 130q-47 76 -142 109.5t-234 33.5h-477z" />
<glyph unicode="C" horiz-adv-x="1333" d="M131 719q19 122 66 228.5t112 185.5t145 141.5t168.5 101t179 58.5t179.5 20q220 0 375 -100l-4 -21q-150 101 -371 101q-105 0 -210.5 -27t-207.5 -85t-184.5 -141t-143 -203t-83.5 -263q-12 -72 -11 -137q1 -63 11 -120q22 -114 78 -200t138.5 -143t180 -86t203.5 -29 q216 0 415 102l-4 -20q-187 -102 -409 -102q-109 0 -209.5 29t-186 89.5t-144.5 146.5q-58 87 -82 209q-12 62 -12 129q0 65 11 136z" />
<glyph unicode="D" horiz-adv-x="1490" d="M127 0l227 1434h383q192 0 332.5 -54t218.5 -151t105 -227q14 -68 14 -142q0 -69 -12 -145q-24 -156 -91 -285t-174 -226t-263.5 -150.5t-348.5 -53.5h-391zM152 20h370q185 0 337 52t257 146.5t170.5 221t89.5 279.5q12 73 12 140q0 72 -14 137q-26 125 -101.5 219 t-211 146t-320.5 52h-370z" />
<glyph unicode="E" horiz-adv-x="1294" d="M127 0l227 1434h924l-4 -21h-903l-107 -682h842l-4 -20h-842l-108 -691h915l-4 -20h-936z" />
<glyph unicode="F" horiz-adv-x="1224" d="M127 0l227 1434h926l-4 -21h-905l-109 -694h846l-4 -21h-846l-111 -698h-20z" />
<glyph unicode="G" horiz-adv-x="1458" d="M138 460q-12 60 -12 129q0 70 13 150q24 151 88 274t150 203.5t194 135.5t216 78.5t219 23.5q226 0 395 -94l-2 -21q-77 45 -182.5 70t-210.5 25q-109 0 -215.5 -23.5t-211.5 -77t-189.5 -132.5t-146.5 -199t-85 -267q-13 -77 -13 -146q0 -66 12 -124 q24 -119 81.5 -206.5t145 -145t189.5 -85.5t215 -28q231 0 433 94l102 649h20l-106 -665q-213 -98 -446 -98q-116 0 -221.5 29t-196 88t-150.5 149.5t-85 213.5z" />
<glyph unicode="H" horiz-adv-x="1568" d="M127 0l227 1434h21l-111 -703h1086l110 703h21l-228 -1434h-20l113 711h-1086l-113 -711h-20z" />
<glyph unicode="I" horiz-adv-x="462" d="M127 0l227 1434h21l-228 -1434h-20z" />
<glyph unicode="J" horiz-adv-x="1079" d="M-4 68l4 20q136 -88 350 -88q198 0 318 92.5t149 276.5l166 1044h-487l4 21h506l-168 -1065q-30 -194 -156.5 -291.5t-329.5 -97.5q-220 0 -356 88z" />
<glyph unicode="K" horiz-adv-x="1331" d="M127 0l227 1434h21l-109 -686h473l629 686h25l-641 -701l475 -733h-27l-467 727h-471l-115 -727h-20z" />
<glyph unicode="L" horiz-adv-x="1165" d="M127 0l227 1434h21l-223 -1414h897l-5 -20h-917z" />
<glyph unicode="M" horiz-adv-x="1839" d="M127 0l227 1434h13l532 -992l840 992h12l-227 -1434h-21l219 1384l-817 -964h-18l-518 969l-222 -1389h-20z" />
<glyph unicode="N" horiz-adv-x="1568" d="M127 0l227 1434h15l870 -1395q2 16 7 45.5t7 44.5l207 1305h21l-228 -1434h-14l-870 1397q-2 -15 -7.5 -45t-7.5 -45l-207 -1307h-20z" />
<glyph unicode="O" horiz-adv-x="1691" d="M120 586q-1 13 -1 27q0 53 10 106q17 107 63.5 212t123.5 199.5t174.5 166.5t224.5 114.5t266 42.5q91 0 171 -17.5t142 -48.5t115 -75t88.5 -96.5t62.5 -113t37.5 -124.5t13.5 -131q1 -13 1 -27q0 -53 -10 -106q-17 -107 -63.5 -212t-123.5 -199.5t-174.5 -166.5 t-224.5 -114.5t-266 -42.5q-91 0 -171 17.5t-142 48.5t-115 75t-88.5 96.5t-62.5 113t-37.5 124.5t-13.5 131zM142 568q0 -74 20.5 -144.5t51.5 -133.5t83 -116t116 -92t150.5 -60.5t186.5 -21.5q137 0 262 42t220 112.5t169.5 163.5t119 195t60.5 206q9 70 9 140v7 q0 74 -21 144.5t-52 133.5t-83 116t-116 92t-150.5 60.5t-186.5 21.5q-137 0 -262 -42t-220 -112.5t-169.5 -163.5t-119 -195t-60.5 -206q-9 -70 -9 -140q1 -3 1 -7z" />
<glyph unicode="P" horiz-adv-x="1335" d="M127 0l227 1434h424q101 0 184 -12.5t157.5 -44t121.5 -80.5t67 -127q12 -44 12 -95q0 -40 -7 -84q-70 -438 -664 -438h-413l-89 -553h-20zM238 573h413q576 0 641 422q7 42 7 80q0 49 -11 89q-19 74 -63 120t-114.5 75.5t-150 41.5t-176.5 12h-413z" />
<glyph unicode="Q" horiz-adv-x="1691" d="M120 586q-1 13 -1 27q0 53 10 106q17 107 63.5 212t123.5 199.5t174.5 166.5t224.5 114.5t266 42.5q91 0 171 -17.5t142 -48.5t115 -75t88.5 -96.5t62.5 -113t37.5 -124.5t13.5 -131q1 -13 1 -27q0 -53 -10 -106q-25 -158 -113.5 -307.5t-226.5 -255.5l215 -254l-17 -15 l-215 256q-224 -159 -495 -159q-91 0 -171 17.5t-142 48.5t-115 75t-88.5 96.5t-62.5 113t-37.5 124.5t-13.5 131zM142 568q0 -74 20.5 -144.5t51.5 -133.5t83 -116t116 -92t150.5 -60.5t186.5 -21.5q266 0 483 156l-295 348l16 14l295 -350q135 103 221.5 250.5 t110.5 300.5q9 70 9 140v7q-1 74 -21.5 144.5t-51.5 133.5t-83 116t-116 92t-150.5 60.5t-186.5 21.5q-137 0 -262 -42t-220 -112.5t-169.5 -163.5t-119 -195t-60.5 -206q-9 -70 -9 -140q0 -4 1 -7z" />
<glyph unicode="R" horiz-adv-x="1388" d="M127 0l227 1434h525q72 0 139 -13.5t128.5 -45t103.5 -77.5q43 -46 62 -118q11 -41 11 -88q0 -34 -6 -72q-14 -85 -52.5 -154.5t-91.5 -115t-120.5 -77.5t-136 -46.5t-140.5 -16.5l467 -610h-24l-467 610h-508l-97 -610h-20zM248 631h512q87 0 170.5 21t161.5 65t133 123 t71 184q6 38 6 72q0 60 -19 110q-30 78 -94 121.5t-141 64.5t-165 21h-512z" />
<glyph unicode="S" horiz-adv-x="1150" d="M39 98l2 21q204 -119 461 -119q91 0 171 17t149.5 52.5t115.5 98.5t59 147q4 29 4 56q1 48 -13 88q-22 63 -69 104.5t-110.5 74.5t-135.5 59t-143.5 51.5t-135 58t-110 74t-68.5 103.5q-14 40 -13 87q0 26 4 55q11 69 47.5 125.5t87 93.5t114 62t127.5 36t130 11 q222 0 385 -96l-2 -21q-159 97 -383 97q-82 0 -159 -17.5t-147 -53t-118.5 -97.5t-61.5 -144q-4 -27 -4 -52q0 -45 14 -83q22 -59 68.5 -98.5t110.5 -71t136 -57.5l144 -52t135.5 -60.5t110.5 -77.5q46 -42 68 -108q13 -41 13 -89q0 -29 -5 -60q-13 -88 -61 -154 t-119.5 -104.5t-155.5 -56.5q-80 -18 -168 -18h-10q-128 0 -252 31.5t-213 86.5z" />
<glyph unicode="T" horiz-adv-x="1204" d="M158 1413l4 21h1147l-4 -21h-564l-223 -1413h-20l223 1413h-563z" />
<glyph unicode="U" horiz-adv-x="1531" d="M179 318q-2 23 -2 48q0 55 9 119l150 949h20l-149 -949q-8 -64 -9 -119q0 -23 2 -43q5 -71 33 -125t68.5 -91.5t98.5 -61t124.5 -34.5t145.5 -11q546 0 622 485l150 949h20l-149 -949q-79 -505 -641 -505q-82 0 -151 11.5t-130 36t-104 64t-72.5 96t-35.5 130.5z" />
<glyph unicode="V" horiz-adv-x="1380" d="M178 1434h23l397 -1407l846 1407h24l-864 -1434h-18z" />
<glyph unicode="W" horiz-adv-x="1996" d="M193 1434h20l227 -1401l682 1380h21l235 -1378l672 1399h23l-689 -1434h-20l-236 1380l-682 -1380h-20z" />
<glyph unicode="X" horiz-adv-x="1218" d="M-68 0l689 737l-431 697h23l422 -682l637 682h26l-653 -701l453 -733h-23l-444 719l-672 -719h-27z" />
<glyph unicode="Y" horiz-adv-x="1261" d="M190 1434h23l420 -820l680 820h26l-698 -842l-94 -592h-21l95 592z" />
<glyph unicode="Z" horiz-adv-x="1144" d="M-55 0l2 16l1235 1397h-969l4 21h997l-2 -17l-1235 -1397h1024l-4 -20h-1052z" />
<glyph unicode="[" horiz-adv-x="454" d="M35 -225l297 1884h258l-2 -21h-238l-293 -1843h238l-2 -20h-258z" />
<glyph unicode="\" horiz-adv-x="804" d="M242 1550h20l344 -1667h-20z" />
<glyph unicode="]" horiz-adv-x="452" d="M-96 -225l2 20h237l293 1843h-237l2 21h258l-297 -1884h-258z" />
<glyph unicode="^" horiz-adv-x="976" d="M172 840l444 594h21l256 -594h-23l-245 573l-428 -573h-25z" />
<glyph unicode="_" horiz-adv-x="862" d="M-133 -248l4 21h860l-4 -21h-860z" />
<glyph unicode="`" horiz-adv-x="327" d="M317 1864h23l137 -267h-22z" />
<glyph unicode="a" d="M90 504q25 154 109.5 269t203.5 173t254 58q149 0 263.5 -86.5t152.5 -217.5l45 283h21l-156 -983h-20l43 274q-80 -129 -215.5 -211.5t-290.5 -82.5q-212 0 -330 144q-89 109 -89 272q0 51 9 108zM111 500q-9 -56 -9 -106q0 -154 84 -257q110 -137 312 -137 q163 0 304.5 94t211.5 234l51 321q-25 142 -139 238t-269 96q-201 0 -355.5 -129.5t-190.5 -353.5z" />
<glyph unicode="b" d="M82 0l227 1434h21l-115 -729q80 131 219 215t289 84q95 0 177.5 -37.5t140.5 -104t83 -166.5q14 -57 14 -119q0 -47 -8 -98q-25 -155 -106.5 -269t-200 -172t-258.5 -58q-156 0 -266.5 85.5t-148.5 225.5l-48 -291h-20zM156 336q27 -146 136.5 -241t270.5 -95 q208 0 359.5 128.5t187.5 354.5q8 49 8 94q0 59 -14 113q-24 95 -78 158.5t-132.5 99t-170.5 35.5q-161 0 -303 -95.5t-215 -240.5z" />
<glyph unicode="c" horiz-adv-x="1009" d="M84 494q16 104 61 191t106.5 144.5t136.5 98t151 58.5t151 18q168 0 275 -80l-4 -21q-51 40 -124 60t-147 20q-94 0 -185.5 -29t-175 -86.5t-144.5 -155.5t-81 -223q-8 -51 -8 -98q0 -62 14 -116q25 -95 84.5 -154t140.5 -90t177 -31q188 0 328 80l-2 -23 q-140 -77 -324 -77q-99 0 -183.5 31.5t-147.5 92.5t-91 162q-16 60 -16 129q0 47 8 99z" />
<glyph unicode="d" d="M90 504q25 155 108 269.5t201.5 172.5t257.5 58q155 0 266.5 -86.5t149.5 -225.5l117 742h20l-227 -1434h-20l45 279q-81 -132 -218 -215.5t-290 -83.5q-207 0 -327 144q-92 110 -92 274q0 51 9 106zM111 500q-9 -54 -9 -103q0 -155 86 -259q113 -138 310 -138 q164 0 305.5 95t212.5 241l49 311q-26 146 -136.5 241t-271.5 95q-207 0 -358.5 -128t-187.5 -355z" />
<glyph unicode="e" horiz-adv-x="1110" d="M88 300q-10 42 -10 91t10 103q19 118 71.5 215.5t126.5 161.5t164 98.5t185 34.5q84 0 151.5 -24t111 -65t72.5 -95q29 -52 39 -112q7 -44 7 -89v-31q-4 -60 -21 -115h-889q-6 -43 -7 -82q0 -51 11 -96q18 -80 58.5 -134t100.5 -91t128.5 -53.5t143.5 -16.5q185 0 331 78 l-4 -23q-138 -75 -325 -75q-80 0 -152 18.5t-136.5 57.5t-106 99.5t-60.5 144.5zM109 494h870q14 54 16 110v18q-1 47 -9 93q-10 55 -38 103.5t-69 85t-104 58t-140 21.5q-122 0 -230.5 -55t-188.5 -168t-107 -266z" />
<glyph unicode="f" horiz-adv-x="704" d="M113 963l2 20h164l28 182q25 151 117 220t231 69q128 0 224 -49l-5 -21q-89 50 -219 50q-133 0 -219 -65t-108 -204l-29 -182h453l-2 -20h-453l-154 -963h-20l153 963h-163z" />
<glyph unicode="g" horiz-adv-x="1253" d="M53 -377l4 21q150 -95 342 -95q79 0 151 14.5t141 48t123 84.5t94 128.5t55 175.5l45 279q-81 -132 -218 -215.5t-290 -83.5q-105 0 -189.5 37t-140 104t-77.5 166q-12 53 -12 112q0 50 9 105q25 155 108 269.5t201.5 172.5t257.5 58q154 0 265.5 -86t150.5 -226l45 291 h21l-156 -983q-16 -102 -57 -183t-96.5 -134t-127 -88.5t-146 -50.5t-155.5 -15q-200 0 -348 94zM111 500q-9 -56 -9 -106q0 -154 82 -257q110 -137 314 -137q164 0 305.5 95t212.5 241l49 311q-26 146 -136.5 241t-271.5 95q-204 0 -357 -128.5t-189 -354.5z" />
<glyph unicode="h" horiz-adv-x="1169" d="M82 0l227 1434h21l-111 -691q36 45 80 86.5t104.5 83t136.5 66.5t154 25q160 0 251 -108q70 -83 70 -210q0 -39 -7 -82l-97 -604h-20l96 604q7 44 7 83q0 119 -63 195q-84 102 -237 101q-102 0 -201 -45.5t-166 -105.5t-114 -130l-111 -702h-20z" />
<glyph unicode="i" horiz-adv-x="389" d="M90 0l156 983h20l-155 -983h-21zM274 1253q1 10 10 16.5t17 6.5q23 0 24 -22q0 -3 -1 -5q-1 -10 -10 -16t-17 -6q-23 0 -23 21v5z" />
<glyph unicode="j" horiz-adv-x="389" d="M-326 -449l4 21q64 -23 132 -23q100 0 161.5 45t79.5 154l195 1235h20l-194 -1235q-19 -119 -86 -169t-174 -50q-77 0 -138 22zM274 1253q1 10 10 16.5t17 6.5q23 0 23 -22v-5q-1 -10 -10 -16t-17 -6q-23 0 -23 21v5z" />
<glyph unicode="k" horiz-adv-x="985" d="M82 0l227 1434h21l-146 -912h289l479 461h27l-494 -475l398 -508h-25l-393 502h-283l-80 -502h-20z" />
<glyph unicode="l" horiz-adv-x="389" d="M90 0l238 1495h20l-237 -1495h-21z" />
<glyph unicode="m" horiz-adv-x="1830" d="M82 0l156 983h20l-37 -231q77 99 194.5 175.5t248.5 76.5q119 0 196.5 -66t91.5 -176q35 42 78 81.5t99.5 77t124 60.5t135.5 23q147 0 229 -100q62 -77 63 -185q0 -33 -6 -70l-102 -649h-21l103 645q6 36 6 70q-1 100 -55 172q-72 96 -217 96q-129 0 -242 -73t-193 -175 q1 -10 1 -22q0 -28 -5 -64l-102 -649h-21l103 645q6 36 6 70q0 100 -54 172q-72 96 -218 96q-134 0 -253 -80.5t-196 -187.5l-113 -715h-20z" />
<glyph unicode="n" horiz-adv-x="1169" d="M82 0l156 983h20l-39 -240q36 45 80 86.5t104.5 83t136.5 66.5t154 25q160 0 251 -108q70 -83 70 -210q0 -39 -7 -82l-97 -604h-20l96 604q7 44 7 83q0 119 -63 195q-84 102 -237 101q-102 0 -201 -45.5t-166 -105.5t-114 -130l-111 -702h-20z" />
<glyph unicode="o" horiz-adv-x="1210" d="M88 504q15 95 55 176.5t96.5 140t127 100.5t147.5 62.5t156 20.5q76 0 145.5 -22.5t126.5 -68t96 -107.5t54 -146q8 -42 7.5 -87.5t-7.5 -93.5q-19 -118 -75 -214t-136 -157.5t-175 -94.5t-194 -33q-95 0 -179.5 36.5t-146.5 101.5q-60 66 -88 166q-17 61 -17 129 q0 44 7 91zM109 500q-7 -46 -7 -90q0 -63 15 -119q26 -96 83.5 -158.5t138 -97.5t171.5 -35q97 0 189 32t169 91t131 152t72 208q7 46 7 90q0 63 -15 119q-26 96 -83.5 158.5t-138 97.5t-171.5 35q-97 0 -189 -32t-169 -91t-131 -152t-72 -208z" />
<glyph unicode="p" d="M10 -451l228 1434h20l-45 -281q82 133 220 217.5t290 84.5q98 0 181 -37.5t140 -104t81 -166.5q13 -55 13 -116q0 -49 -8 -101q-25 -155 -106.5 -269t-200 -172t-258.5 -58q-156 0 -267.5 85t-150.5 222l-116 -738h-21zM156 336q27 -146 136.5 -241t270.5 -95 q207 0 359 128t188 355q8 50 8 97q0 58 -12 110q-22 94 -75.5 158t-133 99.5t-174.5 35.5q-159 0 -302.5 -95.5t-215.5 -240.5z" />
<glyph unicode="q" d="M90 504q25 154 109.5 269t203.5 173t254 58q149 0 263.5 -86.5t152.5 -217.5l45 283h21l-228 -1434h-20l115 725q-80 -129 -215.5 -211.5t-290.5 -82.5q-212 0 -330 144q-89 109 -89 272q0 51 9 108zM111 500q-9 -56 -9 -106q0 -154 84 -257q110 -137 312 -137 q163 0 304.5 94t211.5 234l51 321q-25 142 -139 238t-269 96q-201 0 -355.5 -129.5t-190.5 -353.5z" />
<glyph unicode="r" horiz-adv-x="679" d="M82 0l156 983h20l-53 -334q47 95 117 172.5t174.5 130t220.5 52.5l-4 -21q-92 0 -178.5 -36t-151.5 -95t-113 -128.5t-75 -143.5l-93 -580h-20z" />
<glyph unicode="s" horiz-adv-x="927" d="M31 80l4 20q62 -45 160.5 -72.5t193.5 -27.5q146 0 251.5 56.5t123.5 168.5q3 18 3 34q0 48 -24 84q-32 48 -91 74.5t-132.5 46t-147 40.5t-132 49.5t-90.5 81.5q-23 38 -22 89q0 19 3 40q14 82 75 138t139.5 79t168.5 23q91 0 175.5 -23.5t141.5 -62.5l-2 -21 q-54 39 -140 62.5t-175 23.5q-63 0 -121.5 -12.5t-110 -38.5t-86.5 -70t-44 -102q-3 -19 -3 -36q0 -34 12 -62q18 -42 55 -68t87.5 -46t107.5 -34.5t114 -29.5t107.5 -36t87.5 -49q37 -29 55 -73q12 -30 12 -65q0 -18 -3 -38q-19 -120 -130.5 -181.5t-262.5 -61.5 q-99 0 -200.5 28t-159.5 72z" />
<glyph unicode="t" horiz-adv-x="702" d="M76 963l2 20h184l51 328l23 10l-53 -338h450l-2 -20h-450l-113 -701q-5 -32 -5 -61q1 -83 43 -133q58 -68 179 -68q129 0 219 49l-2 -20q-84 -49 -215 -49t-196 74q-49 56 -49 146q0 29 5 62l113 701h-184z" />
<glyph unicode="u" horiz-adv-x="1169" d="M129 379l96 604h21l-96 -604q-7 -43 -7 -82q0 -119 63 -196q83 -101 236 -101q148 0 278 86t204 199l110 698h21l-156 -983h-20l39 242q-34 -45 -80 -87.5t-106 -83.5t-136 -66t-152 -25q-161 0 -252 107q-70 82 -70 209q0 39 7 83z" />
<glyph unicode="v" horiz-adv-x="1058" d="M111 983h20l305 -960l613 960h22l-625 -983h-24z" />
<glyph unicode="w" horiz-adv-x="1628" d="M119 983h20l223 -948l500 928h23l198 -930l527 950h22l-545 -983h-16l-201 938l-503 -938h-17z" />
<glyph unicode="x" horiz-adv-x="983" d="M-57 0l522 506l-342 477h24l332 -463l479 463h29l-495 -479l360 -504h-25l-350 489l-506 -489h-28z" />
<glyph unicode="y" horiz-adv-x="1081" d="M-70 -459l2 21q57 -13 95 -13q92 0 168 64t165 211l105 172l-365 987h23l356 -965l588 965h25l-715 -1171q-98 -157 -176 -220t-172 -63q-50 0 -99 12z" />
<glyph unicode="z" horiz-adv-x="884" d="M-41 0l2 12l873 951h-693l2 20h725l-2 -12l-870 -951h741l-4 -20h-774z" />
<glyph unicode="{" horiz-adv-x="495" d="M70 707l2 20q75 0 144 57t85 158l86 543q16 103 63.5 147.5t139.5 26.5l-2 -21q-85 18 -125.5 -21t-54.5 -132l-86 -543q-14 -92 -68.5 -150t-124.5 -77q63 -19 99 -75.5t22 -147.5l-86 -543q-14 -93 13.5 -130.5t117.5 -23.5l-2 -20q-100 -13 -133 30.5t-17 143.5 l86 543q16 101 -34 158t-125 57z" />
<glyph unicode="|" horiz-adv-x="346" d="M37 -205l295 1864h20l-295 -1864h-20z" />
<glyph unicode="}" horiz-adv-x="493" d="M-55 -225l2 20q84 -16 125 23t55 131l86 543q14 93 69 150.5t126 74.5q-63 20 -100 76.5t-23 148.5l86 543q15 93 -12 131t-119 22l2 21q97 14 131 -30t18 -144l-86 -543q-16 -103 34 -159t126 -56l-2 -20q-75 0 -144.5 -57t-85.5 -158l-86 -543q-16 -101 -63 -146 t-139 -28z" />
<glyph unicode="~" horiz-adv-x="1173" d="M164 608q11 67 58.5 109.5t121.5 42.5q65 0 163 -38t194 -76t157 -38q66 0 109 37t51 94h20q-9 -66 -56.5 -108.5t-121.5 -42.5q-51 0 -124.5 23.5t-136 52t-134.5 52t-121 23.5q-67 0 -109 -36.5t-51 -94.5h-20z" />
<glyph unicode="&#xa2;" horiz-adv-x="1048" d="M94 494q15 101 58 185.5t101.5 142t131 98.5t146 61t147.5 23l35 225h20l-33 -225q168 0 275 -80l-4 -21q-51 40 -124 60t-147 20h-6l-155 -983q178 3 311 80l-2 -23q-133 -74 -313 -77l-35 -226h-21l35 226q-98 2 -180.5 34t-144 93t-88 161t-7.5 226zM113 313 q14 -78 50 -136.5t91 -97.5t122 -58.5t142 -20.5l156 983q-91 -4 -178.5 -35t-167 -89t-136.5 -153.5t-77 -216.5q-16 -98 -2 -176z" />
<glyph unicode="&#xa3;" horiz-adv-x="1249" d="M-12 0l4 20h61q84 0 137 52t70 155l72 459h-164l4 21h164l39 247q15 100 52.5 179.5t86.5 130.5t111.5 85t126 48t131.5 14q75 0 147 -21.5t123 -58.5l-4 -20q-113 80 -264 80q-66 0 -126.5 -13t-121 -45.5t-108 -81t-83.5 -125t-51 -172.5l-39 -247h543l-4 -21h-543 l-71 -459q-25 -166 -134 -207h910l-4 -20h-1065z" />
<glyph unicode="&#xa5;" horiz-adv-x="1261" d="M176 348l4 21h400l34 221h-399l4 20h387l-403 783h22l402 -783l651 783h22l-651 -783h389l-4 -20h-399l-35 -221h399l-4 -21h-399l-55 -348h-21l55 348h-399z" />
<glyph unicode="&#xa7;" horiz-adv-x="987" d="M76 18l2 23q139 -90 325 -90q138 0 241 59.5t118 155.5q8 50 -5.5 89.5t-36 64.5t-69.5 47.5t-82 34t-96 28.5q-151 42 -206 71q-132 68 -119 198l2 14q9 53 38.5 100t70 79.5t80.5 54.5t81 36q-92 35 -138 90t-32 146q18 107 120.5 171t237.5 64q169 0 303 -80l-2 -20 q-136 80 -301 80q-130 0 -225.5 -60t-112.5 -160q-8 -49 8.5 -88t37 -62t77 -46.5t83.5 -31.5t102 -28q9 -3 14 -4q57 -15 97 -28.5t84 -37t69.5 -50.5t38 -68.5t4.5 -91.5q-32 -182 -291 -264q217 -75 188 -252q-17 -104 -126 -168t-250 -64q-192 0 -330 88zM170 709 q-8 -48 6 -86t37.5 -61.5t69.5 -45t82.5 -33t96.5 -28.5q10 -3 15 -4q17 -5 49 -14.5t35 -10.5q273 78 303 256q7 47 -5 84.5t-34 61.5t-64.5 45.5t-78.5 33t-94 27.5q-70 18 -135 39q-39 -11 -80.5 -30.5t-85.5 -51t-76 -79t-41 -103.5z" />
<glyph unicode="&#xa8;" horiz-adv-x="552" d="M270 1712q2 11 12.5 20t20.5 9q15 0 22.5 -9.5t4.5 -23.5q-2 -11 -11.5 -20t-21.5 -9q-14 0 -22 10t-5 23zM680 1712q2 11 12.5 20t20.5 9q15 0 22 -9.5t4 -23.5q-2 -11 -11 -20t-21 -9q-14 0 -22 10t-5 23z" />
<glyph unicode="&#xa9;" horiz-adv-x="1753" d="M139 729q22 141 85.5 261.5t151.5 204.5t195.5 143.5t218 87.5t218.5 28t211 -30t192 -92.5t151 -149.5t88 -210.5t3 -266.5q-22 -141 -85.5 -261.5t-151.5 -204.5t-195.5 -143.5t-218 -87.5t-218.5 -28t-211 30t-192 92.5t-151 149.5t-88 210.5t-3 266.5zM160 725 q-21 -137 3.5 -256.5t84 -204t144.5 -145t184 -90t204 -29.5q106 0 214.5 27.5t213.5 85.5t191 140t148.5 200t84.5 256q21 137 -3.5 256.5t-84 204t-144.5 145t-184 90t-204 29.5q-106 0 -214.5 -27.5t-213.5 -85.5t-191 -140t-148.5 -200t-84.5 -256zM522 713 q14 86 50.5 156.5t86 117.5t110 79t120.5 46t119 14q142 0 235 -71l-4 -21q-93 72 -229 72q-58 0 -116 -13.5t-116 -44t-105 -75.5t-82 -113t-48 -151q-14 -91 6.5 -165t66.5 -120.5t108 -71t134 -24.5q149 0 281 69l-4 -20q-137 -70 -275 -70q-76 0 -143 26t-116.5 74.5 t-72 128t-6.5 177.5z" />
<glyph unicode="&#xab;" horiz-adv-x="813" d="M94 485l2 13l293 338h25l-299 -347l190 -342h-22zM381 485l2 13l293 338h24l-299 -347l191 -342h-23z" />
<glyph unicode="&#xad;" horiz-adv-x="997" d="M133 483l2 21h696l-2 -21h-696z" />
<glyph unicode="&#xae;" horiz-adv-x="1753" d="M139 729q22 141 85.5 261.5t151.5 204.5t195.5 143.5t218 87.5t218.5 28t211 -30t192 -92.5t151 -149.5t88 -210.5t3 -266.5q-22 -141 -85.5 -261.5t-151.5 -204.5t-195.5 -143.5t-218 -87.5t-218.5 -28t-211 30t-192 92.5t-151 149.5t-88 210.5t-3 266.5zM160 725 q-21 -137 3.5 -256.5t84 -204t144.5 -145t184 -90t204 -29.5q106 0 214.5 27.5t213.5 85.5t191 140t148.5 200t84.5 256q21 137 -3.5 256.5t-84 204t-144.5 145t-184 90t-204 29.5q-106 0 -214.5 -27.5t-213.5 -85.5t-191 -140t-148.5 -200t-84.5 -256zM573 303l127 809h299 q34 0 68 -5.5t73 -22t66.5 -43t41.5 -73t5 -106.5q-31 -184 -227 -217l186 -342h-22l-184 338q-31 -4 -82 -4h-279l-51 -334h-21zM649 657h279q271 0 305 209q9 54 -3.5 96t-37.5 66t-61 39t-68.5 20t-65.5 5h-278z" />
<glyph unicode="&#xaf;" horiz-adv-x="573" d="M264 1675l2 21h492l-2 -21h-492z" />
<glyph unicode="&#xb0;" horiz-adv-x="790" d="M197 1196q21 126 118 202.5t211 76.5q117 0 193 -81t55 -210q-21 -126 -118 -202.5t-212 -76.5q-118 0 -193 80.5t-54 210.5zM217 1192q-19 -118 49.5 -192t175.5 -74q111 0 202 71t110 191q19 118 -49.5 192t-174.5 74q-111 0 -202.5 -71t-110.5 -191z" />
<glyph unicode="&#xb4;" horiz-adv-x="327" d="M272 1597l220 267h24l-219 -267h-25z" />
<glyph unicode="&#xb6;" horiz-adv-x="1181" d="M143 1026q31 192 164 300t336 108h492l-299 -1885h-21l295 1864h-451l-294 -1864h-21l170 1065q-203 0 -302.5 109t-68.5 303z" />
<glyph unicode="&#xb7;" horiz-adv-x="364" d="M135 492q1 10 11.5 19t21.5 9q15 0 23 -9.5t6 -23.5q-2 -11 -11.5 -19.5t-21.5 -8.5q-13 0 -22 9.5t-7 23.5z" />
<glyph unicode="&#xb8;" horiz-adv-x="428" d="M-111 -424l5 21q85 -48 198 -48q103 0 155.5 35t59.5 90q7 48 -30.5 76.5t-96 28.5t-125.5 -19l97 240h20l-86 -213q61 15 117.5 11t94.5 -38.5t30 -89.5q-8 -62 -67.5 -101.5t-166.5 -39.5q-120 0 -205 47z" />
<glyph unicode="&#xbb;" horiz-adv-x="811" d="M78 147l301 347l-191 342h23l188 -338l-2 -13l-293 -338h-26zM365 147l301 347l-191 342h23l188 -338l-2 -13l-293 -338h-26z" />
<glyph unicode="&#x2c6;" horiz-adv-x="491" d="M193 1597l292 246h17l217 -246h-25l-200 228l-273 -228h-28z" />
<glyph unicode="&#x2c7;" horiz-adv-x="491" d="M227 1823h25l203 -228l272 228h29l-295 -246h-17z" />
<glyph unicode="&#x2d8;" horiz-adv-x="634" d="M299 1692l4 26q83 -90 232 -90t260 90l-4 -26q-110 -84 -252 -84q-159 0 -240 84z" />
<glyph unicode="&#x2d9;" horiz-adv-x="163" d="M262 1671q3 15 16.5 27t28.5 12q19 0 29.5 -12t7.5 -31q-3 -15 -16.5 -27t-28.5 -12q-19 0 -29.5 12t-7.5 31z" />
<glyph unicode="&#x2da;" horiz-adv-x="397" d="M270 1714q10 66 63.5 109t115.5 43q65 0 106 -44t29 -112q-10 -66 -63 -108.5t-115 -42.5q-66 0 -107 43.5t-29 111.5zM289 1710q-9 -58 26 -94.5t88 -36.5q57 0 104.5 37t57.5 98q9 58 -26 94.5t-88 36.5q-57 0 -104.5 -37t-57.5 -98z" />
<glyph unicode="&#x2db;" horiz-adv-x="409" d="M-51 -315q11 78 94 159.5t231 173.5l9 -18q-85 -53 -145 -98.5t-110.5 -105.5t-58.5 -115q-9 -61 24 -96.5t103 -35.5q83 0 164 41l-2 -22q-76 -39 -160 -39q-80 0 -120.5 42t-28.5 114z" />
<glyph unicode="&#x2dc;" horiz-adv-x="608" d="M240 1638q0 55 34.5 94.5t87.5 39.5q44 0 107.5 -31t125.5 -61.5t103 -30.5q97 0 103 110h20q-2 -57 -34.5 -94t-88.5 -37q-36 0 -83.5 19t-86 42.5t-84.5 42.5t-79 19q-46 0 -75 -31t-30 -82h-20z" />
<glyph unicode="&#x2dd;" horiz-adv-x="573" d="M250 1593l205 287h24l-205 -287h-24zM559 1593l205 287h24l-204 -287h-25z" />
<glyph unicode="&#x2000;" horiz-adv-x="940" />
<glyph unicode="&#x2001;" horiz-adv-x="1880" />
<glyph unicode="&#x2002;" horiz-adv-x="940" />
<glyph unicode="&#x2003;" horiz-adv-x="1880" />
<glyph unicode="&#x2004;" horiz-adv-x="626" />
<glyph unicode="&#x2005;" horiz-adv-x="470" />
<glyph unicode="&#x2006;" horiz-adv-x="313" />
<glyph unicode="&#x2007;" horiz-adv-x="313" />
<glyph unicode="&#x2008;" horiz-adv-x="235" />
<glyph unicode="&#x2009;" horiz-adv-x="376" />
<glyph unicode="&#x200a;" horiz-adv-x="104" />
<glyph unicode="&#x2010;" horiz-adv-x="997" d="M133 483l2 21h696l-2 -21h-696z" />
<glyph unicode="&#x2011;" horiz-adv-x="997" d="M133 483l2 21h696l-2 -21h-696z" />
<glyph unicode="&#x2012;" horiz-adv-x="997" d="M133 483l2 21h696l-2 -21h-696z" />
<glyph unicode="&#x2013;" horiz-adv-x="1161" d="M133 483l2 21h860l-2 -21h-860z" />
<glyph unicode="&#x2014;" horiz-adv-x="1529" d="M133 483l2 21h1229l-2 -21h-1229z" />
<glyph unicode="&#x2018;" horiz-adv-x="358" d="M193 1004l167 430h21l-168 -430h-20z" />
<glyph unicode="&#x2019;" horiz-adv-x="358" d="M193 1004l167 430h21l-168 -430h-20z" />
<glyph unicode="&#x201a;" horiz-adv-x="299" d="M-66 -287l168 430h21l-168 -430h-21z" />
<glyph unicode="&#x201c;" horiz-adv-x="604" d="M193 1004l167 430h21l-168 -430h-20zM438 1004l168 430h21l-168 -430h-21z" />
<glyph unicode="&#x201d;" horiz-adv-x="604" d="M193 1004l167 430h21l-168 -430h-20zM438 1004l168 430h21l-168 -430h-21z" />
<glyph unicode="&#x201e;" horiz-adv-x="544" d="M-66 -287l168 430h21l-168 -430h-21zM180 -287l168 430h21l-168 -430h-21z" />
<glyph unicode="&#x2020;" horiz-adv-x="972" d="M135 963l2 20h400l71 451h21l-72 -451h399l-2 -20h-399l-225 -1414h-21l226 1414h-400z" />
<glyph unicode="&#x2021;" horiz-adv-x="1042" d="M59 266l2 21h400l108 676h-399l2 20h399l72 451h21l-72 -451h399l-2 -20h-399l-109 -676h400l-2 -21h-400l-114 -717h-21l115 717h-400z" />
<glyph unicode="&#x2022;" horiz-adv-x="550" d="M231 719q3 25 23 42t45 17q27 0 42 -18t11 -45q-3 -24 -23 -42t-44 -18q-28 0 -43 18t-11 46z" />
<glyph unicode="&#x2026;" horiz-adv-x="782" d="M37 23q1 10 11.5 19t21.5 9q15 0 22.5 -9.5t5.5 -23.5q-3 -11 -13 -19.5t-22 -8.5q-14 0 -21.5 10t-4.5 23zM283 23q1 11 11 19.5t21 8.5q15 0 23 -9.5t6 -23.5q-3 -11 -13 -19.5t-22 -8.5q-14 0 -21.5 10t-4.5 23zM528 23q1 10 11.5 19t21.5 9q15 0 23 -9.5t6 -23.5 q-3 -11 -13 -19.5t-22 -8.5q-14 0 -22 10t-5 23z" />
<glyph unicode="&#x202f;" horiz-adv-x="376" />
<glyph unicode="&#x2039;" horiz-adv-x="526" d="M94 485l2 13l293 338h25l-299 -347l190 -342h-22z" />
<glyph unicode="&#x203a;" horiz-adv-x="524" d="M78 147l301 347l-191 342h23l188 -338l-2 -13l-293 -338h-26z" />
<glyph unicode="&#x205f;" horiz-adv-x="470" />
<glyph unicode="&#x20ac;" horiz-adv-x="1519" d="M86 532l4 21h174q-3 94 10 176q8 51 25 111h-164l4 20h166q45 136 133 245t195.5 174.5t221 99.5t222.5 34q232 0 387 -100l-4 -21q-162 101 -381 101q-106 0 -216.5 -32.5t-215 -95.5t-190 -168t-129.5 -237h856l-4 -20h-858q-19 -57 -27 -115q-13 -82 -10 -172h850 l-5 -21h-845q10 -126 61 -228t131.5 -167.5t183 -101t216.5 -35.5q247 0 415 102l-4 -20q-155 -102 -409 -102q-119 0 -225.5 36.5t-190 104.5t-136.5 174t-63 237h-178z" />
<glyph unicode="&#x2122;" horiz-adv-x="1325" d="M213 1413l4 21h410l-4 -21h-195l-78 -491h-20l78 491h-195zM664 922l81 512h23l188 -338l301 338h23l-82 -512h-20l77 481l-292 -328h-17l-184 328l-78 -481h-20z" />
<glyph unicode="&#x25ca;" horiz-adv-x="1097" d="M104 717l564 717h24l338 -717l-565 -717h-25zM129 715l326 -695l553 699l-330 694z" />
<glyph unicode="&#x25fc;" horiz-adv-x="983" d="M0 0v983h983v-983h-983z" />
<glyph unicode="&#xfb01;" horiz-adv-x="1056" d="M113 963l2 20h164l26 162q16 101 73 173t133 104t163 32q173 0 311 -98l-4 -21q-61 45 -140.5 72t-162.5 27q-138 0 -234 -77.5t-118 -211.5l-27 -162h635l-156 -983h-20l151 963h-612l-154 -963h-20l153 963h-163z" />
<glyph unicode="&#xfb02;" horiz-adv-x="1077" d="M113 963l2 20h164l26 162q24 151 126.5 230t242.5 79q180 0 321 -90l11 70l22 10l-229 -1444h-21l213 1343q-134 91 -315 91q-142 0 -235 -77.5t-115 -211.5l-27 -162h422l-2 -20h-422l-154 -963h-20l153 963h-163z" />
</font>
</defs>
</svg>
