<?xml version="1.0" standalone="no"?>
<!DOCTYPE svg PUBLIC "-//W3C//DTD SVG 1.1//EN" "http://www.w3.org/Graphics/SVG/1.1/DTD/svg11.dtd" >
<svg xmlns="http://www.w3.org/2000/svg">
<metadata></metadata>
<defs>
<font id="mullerultralight" horiz-adv-x="1259" >
<font-face units-per-em="2048" ascent="1597" descent="-451" />
<missing-glyph horiz-adv-x="538" />
<glyph horiz-adv-x="0" />
<glyph horiz-adv-x="682" />
<glyph unicode=" "  horiz-adv-x="538" />
<glyph unicode="&#x09;" horiz-adv-x="538" />
<glyph unicode="&#xa0;" horiz-adv-x="538" />
<glyph unicode="!" horiz-adv-x="419" d="M150 45q0 27 17.5 43t41.5 16q27 0 44 -16t17 -43t-17 -43t-44 -16q-24 0 -41.5 16t-17.5 43zM170 1434h82l-6 -1072h-70z" />
<glyph unicode="&#x22;" horiz-adv-x="546" d="M139 1139v295h78l-22 -295h-56zM344 1139v295h78l-23 -295h-55z" />
<glyph unicode="#" horiz-adv-x="1327" d="M82 379v70h205l119 497h-222v70h238l88 379h80l-90 -379h479l88 379h80l-90 -379h186v-70h-203l-116 -497h217v-70h-234l-90 -379h-80l90 379h-479l-88 -379h-80l90 379h-188zM367 449h479l117 497h-478z" />
<glyph unicode="$" horiz-adv-x="1165" d="M104 98v82q105 -60 234.5 -92.5t255.5 -32.5q86 0 157 15t128 46t88.5 85.5t31.5 128.5q0 73 -30.5 128.5t-82 90t-118 61.5t-140 47.5t-147 42t-140 51t-118 68t-82 99.5t-30.5 141q0 86 35 153t96.5 109t138 65t164.5 27v246h69v-246q102 -3 202 -29t177 -69v-80 q-83 47 -193.5 74.5t-215.5 27.5q-110 0 -195.5 -27t-140.5 -90.5t-55 -158.5q0 -69 30.5 -121t82 -85t118 -58t140 -45.5t147 -42t140 -52t118 -71t82 -104.5t30.5 -146q0 -75 -24.5 -135.5t-67 -101.5t-102.5 -68.5t-127.5 -40t-145.5 -13.5v-243h-69v246 q-254 13 -441 118z" />
<glyph unicode="%" horiz-adv-x="1800" d="M74 1155q0 141 91 221t220 80t219 -80t90 -221t-90 -221t-219 -80t-220 80t-91 221zM150 1155q0 -105 67 -168t170 -63q101 0 168.5 63t67.5 168t-67.5 168t-168.5 63q-103 0 -170 -63t-67 -168zM442 -123l838 1679h80l-838 -1679h-80zM1106 279q0 141 91 221t220 80 t219 -80t90 -221t-90 -221.5t-219 -80.5t-220 80.5t-91 221.5zM1182 279q0 -105 67 -168.5t170 -63.5q101 0 168.5 63.5t67.5 168.5t-67.5 168t-168.5 63q-103 0 -170 -63t-67 -168z" />
<glyph unicode="&#x26;" horiz-adv-x="1409" d="M113 334q0 71 28 135.5t79.5 117t103 91t118.5 78.5q-198 194 -198 354q0 142 115.5 244t299.5 102q158 0 257.5 -80.5t99.5 -206.5q0 -37 -12.5 -73t-29 -63.5t-51 -60t-58.5 -52t-73 -50t-73 -44.5t-80 -44.5t-74 -40.5l13 -12l491 -444q122 159 119 364h82 q0 -232 -142 -418l256 -231h-98l-203 180q-196 -203 -508 -203q-215 0 -338.5 101t-123.5 256zM195 336q0 -125 102 -204t283 -79q274 0 446 180l-518 461q-2 1 -5 4t-5 4q-51 -29 -90 -55t-81 -62t-69 -72t-45 -82t-18 -95zM324 1110q0 -80 51 -157.5t135 -159.5 q19 10 68.5 36t74 39.5t69.5 40t69 44.5t56 45.5t48.5 51.5t28.5 53.5t12 59.5q0 97 -76 157t-201 60q-153 0 -244 -79.5t-91 -190.5z" />
<glyph unicode="'" horiz-adv-x="342" d="M139 1139v295h78l-22 -295h-56z" />
<glyph unicode="(" horiz-adv-x="526" d="M100 717q0 243 82 491t221 447h78q-137 -194 -216 -444t-79 -494t79 -494t216 -444h-78q-139 199 -221 447t-82 491z" />
<glyph unicode=")" horiz-adv-x="526" d="M45 -221q137 194 216 444t79 494t-79 494t-216 444h78q140 -198 221.5 -446t81.5 -492q0 -243 -81.5 -491.5t-221.5 -446.5h-78z" />
<glyph unicode="*" horiz-adv-x="874" d="M111 1188l26 69l271 -98l-9 275h74l-8 -275l272 98l25 -69l-277 -82l179 -232l-60 -43l-168 244l-168 -244l-59 43l178 232z" />
<glyph unicode="+" horiz-adv-x="1093" d="M106 680v74h404v403h74v-403h403v-74h-403v-404h-74v404h-404z" />
<glyph unicode="," horiz-adv-x="415" d="M78 -295l104 447h82l-121 -447h-65z" />
<glyph unicode="-" horiz-adv-x="993" d="M141 463v74h711v-74h-711z" />
<glyph unicode="." horiz-adv-x="405" d="M141 47q0 27 18 43t44 16q27 0 44 -16t17 -43q0 -29 -17 -45t-44 -16q-26 0 -44 16.5t-18 44.5z" />
<glyph unicode="/" horiz-adv-x="831" d="M80 -117l608 1667h62l-609 -1667h-61z" />
<glyph unicode="0" horiz-adv-x="1437" d="M117 696q0 127 23 235.5t71.5 198t119 153t169.5 98t219 34.5q121 0 220 -34.5t169.5 -98t118.5 -153t71 -198t23 -235.5t-23 -235.5t-71 -198t-118.5 -153t-169.5 -98t-220 -34.5q-120 0 -219 34.5t-169.5 98t-119 153t-71.5 198t-23 235.5zM199 696q0 -298 131 -469.5 t389 -171.5t389 171.5t131 469.5t-131 469.5t-389 171.5t-389 -171.5t-131 -469.5z" />
<glyph unicode="1" horiz-adv-x="831" d="M111 0v78h313v1227l-313 -119v78l338 129h57v-1315h282v-78h-677z" />
<glyph unicode="2" horiz-adv-x="1150" d="M96 0v45q0 68 14 128.5t36 107.5t57.5 91t70.5 76.5t84.5 67t89 58.5t93.5 55q19 11 28 16q161 96 219 143q136 110 150 245q2 18 2 36q0 124 -102 197t-273 73q-217 0 -418 -133v80q185 129 424 129q201 0 326 -94t125 -254q0 -50 -12.5 -96t-31 -82.5t-52.5 -74 t-63 -64t-77 -59.5t-81 -53t-87 -52q-166 -97 -221 -137q-156 -114 -196 -254q-16 -55 -17 -117h854v-78h-942z" />
<glyph unicode="3" horiz-adv-x="1200" d="M123 70v80q200 -98 479 -95q184 0 295 82t111 236q0 81 -32 142t-89 96.5t-128.5 53t-156.5 17.5h-205v78l197 -2q175 0 264.5 80.5t89.5 199.5q0 131 -101 216t-278 85q-219 0 -422 -96v80q192 92 431 92q205 0 327.5 -106t122.5 -265q0 -113 -67.5 -201.5 t-192.5 -115.5q138 -27 227.5 -116t89.5 -242q0 -185 -133 -288.5t-344 -103.5q-291 0 -485 93z" />
<glyph unicode="4" horiz-adv-x="1304" d="M55 338v72l805 983h88v-977h291v-78h-291v-338h-80v338h-813zM158 416h710v866z" />
<glyph unicode="5" horiz-adv-x="1175" d="M123 72v78q196 -97 436 -97q201 0 317.5 92.5t116.5 251.5q0 91 -36.5 158.5t-101 106.5t-144 58t-174.5 19q-192 0 -377 -65l43 719h801v-78h-723l-37 -549q151 49 315 49q104 0 194 -23.5t163.5 -72t116 -131t42.5 -191.5q0 -189 -139 -304.5t-369 -115.5 q-252 0 -444 95z" />
<glyph unicode="6" horiz-adv-x="1243" d="M119 657q0 197 44.5 344.5t127 237t193 133t249.5 43.5q163 0 305 -76v-77q-141 75 -303 75q-120 0 -215 -37.5t-168 -116.5t-112 -213t-39 -315v-14q218 205 491 205q90 0 171 -26.5t146.5 -77.5t104.5 -135t39 -189q0 -103 -37.5 -187t-102 -139t-150.5 -85t-185 -30 q-274 0 -416.5 180.5t-142.5 499.5zM205 553q22 -240 142 -370t327 -130q84 0 155.5 23t125.5 67.5t85 114.5t31 158q0 91 -32 161t-88 111t-125.5 61.5t-149.5 20.5q-130 0 -254 -56.5t-217 -160.5z" />
<glyph unicode="7" horiz-adv-x="1064" d="M72 1315v78h954v-70l-639 -1323h-88l635 1315h-862z" />
<glyph unicode="8" horiz-adv-x="1316" d="M115 375q0 123 70.5 229.5t199.5 169.5q-219 105 -219 299q0 66 29 125.5t86.5 109t154.5 78.5t221 29q115 0 210.5 -31t156.5 -82.5t94.5 -116t34.5 -132.5q1 -120 -59 -218.5t-170 -162.5q132 -53 206 -131.5t74 -202.5q0 -70 -33.5 -133.5t-97.5 -115t-170.5 -82 t-240.5 -30.5t-240 31.5t-172 87t-100.5 126.5t-34.5 153zM197 381q0 -147 120 -237.5t347 -90.5q212 0 335 82.5t123 200.5q0 44 -13 81.5t-32 65t-53.5 52.5t-65.5 41.5t-81 34.5t-85.5 29t-93.5 27q-21 6 -32 9q-130 33 -207 65q-124 -53 -193 -149.5t-69 -210.5z M246 1075q0 -50 14 -91t48.5 -72.5t61 -52t84.5 -42t83.5 -30t90.5 -26.5q21 -6 31 -9q24 -6 191 -54q104 56 162.5 145.5t58.5 196.5q0 119 -111.5 209t-304.5 90q-198 0 -303.5 -76.5t-105.5 -187.5z" />
<glyph unicode="9" horiz-adv-x="1243" d="M90 975q0 136 64.5 237.5t171 152t239.5 50.5q275 0 417 -180t142 -500q0 -197 -44.5 -344.5t-127 -237t-193 -133t-249.5 -43.5q-163 0 -305 76v78q143 -76 303 -76q120 0 215.5 37.5t168.5 116.5t112.5 213t39.5 315v17q-219 -207 -493 -207q-90 0 -171 26.5 t-146.5 77.5t-104.5 135t-39 189zM172 977q0 -91 32 -161t88.5 -111t126 -61.5t150.5 -20.5q130 0 254.5 57.5t216.5 161.5q-22 238 -142.5 367.5t-328.5 129.5q-174 0 -285.5 -94t-111.5 -268z" />
<glyph unicode=":" horiz-adv-x="405" d="M141 47q0 27 18 43t44 16q27 0 44 -16t17 -43q0 -29 -17 -45t-44 -16q-26 0 -44 16.5t-18 44.5zM141 823q0 27 18 43.5t44 16.5q27 0 44 -16.5t17 -43.5t-17 -43t-44 -16q-26 0 -44 16t-18 43z" />
<glyph unicode=";" horiz-adv-x="589" d="M178 -295l105 447h82l-121 -447h-66zM240 907q0 28 17.5 45t43.5 17q27 0 44 -16.5t17 -45.5q0 -27 -17 -43t-44 -16q-26 0 -43.5 16t-17.5 43z" />
<glyph unicode="&#x3c;" horiz-adv-x="989" d="M94 676v82l740 325v-77l-660 -289l660 -289v-78z" />
<glyph unicode="=" horiz-adv-x="1112" d="M150 494v75h813v-75h-813zM150 864v76h813v-76h-813z" />
<glyph unicode="&#x3e;" horiz-adv-x="989" d="M156 350v78l659 289l-659 289v77l739 -325v-82z" />
<glyph unicode="?" horiz-adv-x="999" d="M78 1264v77q178 115 393 115q200 0 322 -88.5t122 -245.5q0 -60 -22 -120t-57.5 -111t-78.5 -101.5t-85.5 -99t-78 -95.5t-57.5 -99t-22 -103h-78q0 64 29.5 130t73.5 119.5t96 113.5t96 113t73.5 118.5t29.5 128.5q0 126 -99.5 194t-273.5 68q-195 0 -383 -114zM412 47 q0 27 17.5 43t43.5 16q27 0 44.5 -16t17.5 -43q0 -28 -17.5 -44.5t-44.5 -16.5q-26 0 -43.5 16.5t-17.5 44.5z" />
<glyph unicode="@" horiz-adv-x="2162" d="M102 492q0 149 41.5 290t125.5 263t201 214t279 144.5t349 52.5q181 0 338.5 -54.5t267.5 -144t190 -205t118 -238.5t38 -243q0 -269 -102 -411t-269 -142q-126 0 -201.5 65.5t-88.5 190.5q-48 -95 -140.5 -151.5t-206.5 -56.5q-174 0 -286.5 116.5t-112.5 304.5 q0 187 113 304.5t286 117.5q114 0 204.5 -56.5t135.5 -145.5v184h76v-574q0 -108 56.5 -168.5t164.5 -60.5q134 0 212.5 127t78.5 356q0 111 -35.5 224t-109 218t-175 186t-245 130t-307.5 49q-171 0 -319.5 -48t-256 -131.5t-185 -195.5t-115.5 -242t-38 -269 q0 -167 50.5 -310.5t140 -248t210 -179.5t262.5 -112t296 -37q248 0 456 73v-77q-209 -74 -458 -74q-164 0 -317 40t-284 121t-229 194.5t-153.5 270.5t-55.5 339zM721 487q0 -158 94 -253t236 -95q120 0 209.5 69.5t121.5 172.5v213q-32 103 -121.5 172.5t-209.5 69.5 q-141 0 -235.5 -95.5t-94.5 -253.5z" />
<glyph unicode="A" horiz-adv-x="1449" d="M29 0l651 1434h92l649 -1434h-86l-190 418h-840l-188 -418h-88zM340 494h774l-371 821q-3 6 -8 18.5t-8 18.5q-3 -6 -8 -18.5t-8 -18.5z" />
<glyph unicode="B" horiz-adv-x="1388" d="M207 0v1434h534q222 0 352 -90t130 -269q0 -71 -23 -129t-63.5 -96t-89 -61.5t-105.5 -34.5q48 -9 91 -24t89.5 -44t80 -67.5t55 -98.5t22.5 -133q0 -70 -19.5 -127t-51 -96.5t-76.5 -69.5t-92 -47.5t-103.5 -28.5t-104.5 -14.5t-100 -3.5h-526zM289 78h430q52 0 93.5 2 t93.5 10t91.5 21t79 37t65 56.5t41 81t15.5 109.5q-1 73 -30 130.5t-72.5 91.5t-100.5 56t-108 30t-101 8h-497v-633zM289 788h514q89 0 164.5 31t124.5 95.5t49 150.5q0 291 -406 291h-446v-568z" />
<glyph unicode="C" horiz-adv-x="1345" d="M104 700q1 146 43.5 271t114.5 212.5t167 150t201 92.5t216 30q219 0 401 -98v-82q-168 102 -391 102q-99 0 -194.5 -26t-181.5 -81.5t-151 -134t-103.5 -191t-39.5 -245.5q0 -128 39 -235.5t104.5 -182t152.5 -126.5t182.5 -76.5t195.5 -24.5q233 0 404 105v-82 q-184 -101 -418 -101q-109 0 -214 28t-201 87.5t-168.5 143t-115.5 203.5t-43 261z" />
<glyph unicode="D" horiz-adv-x="1497" d="M207 0v1434h424q188 0 334 -54t238.5 -150.5t140 -226.5t47.5 -286t-47.5 -286t-140 -226.5t-238.5 -150.5t-334 -54h-424zM289 78h342q334 0 506 172.5t172 466.5t-172 466.5t-506 172.5h-342v-1278z" />
<glyph unicode="E" horiz-adv-x="1277" d="M207 0v1434h940v-78h-858v-596h796v-78h-796v-604h876v-78h-958z" />
<glyph unicode="F" horiz-adv-x="1222" d="M207 0v1434h944v-78h-862v-615h803v-77h-803v-664h-82z" />
<glyph unicode="G" horiz-adv-x="1449" d="M106 717q0 149 43 273t115.5 209t170 144t205.5 86t222 27q228 0 418 -96v-80q-84 47 -192 72.5t-216 25.5q-104 0 -201 -23t-185.5 -75t-154 -127.5t-104.5 -187.5t-39 -248q0 -139 39.5 -251.5t106 -188t156.5 -126.5t188.5 -73.5t204.5 -22.5q196 0 354 76v621h80 v-676q-203 -99 -440 -99q-119 0 -228.5 25.5t-209 83.5t-173 142t-117 210t-43.5 279z" />
<glyph unicode="H" horiz-adv-x="1568" d="M207 0v1434h82v-674h991v674h82v-1434h-82v682h-991v-682h-82z" />
<glyph unicode="I" horiz-adv-x="495" d="M207 0v1434h82v-1434h-82z" />
<glyph unicode="J" horiz-adv-x="1067" d="M63 68v82q140 -93 355 -93q173 0 274 81t101 247v971h-459v78h540v-1051q0 -199 -122 -301t-322 -102q-230 0 -367 88z" />
<glyph unicode="K" horiz-adv-x="1343" d="M207 0v1434h82v-660h413l486 660h94l-516 -699l569 -735h-96l-537 696h-413v-696h-82z" />
<glyph unicode="L" horiz-adv-x="1179" d="M207 0v1434h82v-1356h856v-78h-938z" />
<glyph unicode="M" horiz-adv-x="1839" d="M207 0v1434h65l648 -949l645 949h67v-1434h-82v1276l-606 -891h-49l-606 891v-1276h-82z" />
<glyph unicode="N" horiz-adv-x="1568" d="M207 0v1434h74l999 -1297v125v1172h82v-1434h-72l-1001 1294v-120v-1174h-82z" />
<glyph unicode="O" horiz-adv-x="1689" d="M102 717q0 109 29 214.5t90 200.5t147 167t209 114.5t267 42.5q145 0 268 -42.5t209 -114.5t147 -167t90 -200.5t29 -214.5t-29 -214.5t-90 -200.5t-147 -167.5t-209 -115t-268 -42.5q-144 0 -267 42.5t-209 115t-147 167.5t-90 200.5t-29 214.5zM184 717 q0 -99 25.5 -193.5t80 -179.5t131 -149t186 -102t237.5 -38q129 0 238.5 38t186.5 102t131 149t79.5 179.5t25.5 193.5t-25.5 193.5t-79.5 179.5t-131 149t-186.5 101.5t-238.5 37.5q-128 0 -237.5 -37.5t-186 -101.5t-131 -149t-80 -179.5t-25.5 -193.5z" />
<glyph unicode="P" horiz-adv-x="1337" d="M207 0v1434h457q83 0 155.5 -9.5t141.5 -29.5t123 -55t95 -83.5t63 -117.5t22 -154q0 -102 -32.5 -181t-86.5 -129t-132.5 -82t-163 -45t-185.5 -13h-375v-535h-82zM289 612h379q514 0 514 373q0 85 -27 150.5t-73 107t-113 67.5t-140 36t-161 10h-379v-744z" />
<glyph unicode="Q" horiz-adv-x="1689" d="M102 717q0 109 29 214.5t90 200.5t147 167t209 114.5t267 42.5q145 0 268 -42.5t209 -114.5t147 -167t90 -200.5t29 -214.5q0 -156 -58.5 -301.5t-172.5 -249.5l233 -234l-53 -53l-238 238q-195 -140 -454 -140q-144 0 -267 42.5t-209 115t-147 167.5t-90 200.5 t-29 214.5zM184 717q0 -99 25.5 -193.5t80 -179.5t131 -149t186 -102t237.5 -38q230 0 397 121l-311 311l51 52l317 -316q101 93 154 223.5t53 270.5q0 99 -25.5 193.5t-79.5 179.5t-131 149t-186.5 101.5t-238.5 37.5q-128 0 -237.5 -37.5t-186 -101.5t-131 -149 t-80 -179.5t-25.5 -193.5z" />
<glyph unicode="R" horiz-adv-x="1402" d="M207 0v1434h545q76 0 146.5 -13.5t138 -45t117 -79t80 -120t30.5 -162.5q0 -82 -25.5 -150t-67.5 -114t-99.5 -79t-119 -50t-129.5 -23l533 -598h-101l-526 592h-440v-592h-82zM289 670h467q80 0 152 18t135.5 56t101 107.5t37.5 162.5q0 75 -25.5 135t-66.5 98t-97.5 63 t-115 35.5t-121.5 10.5h-467v-686z" />
<glyph unicode="S" horiz-adv-x="1163" d="M106 98v82q218 -125 484 -125q86 0 158.5 15t131 46t91.5 85.5t33 128.5q0 73 -30.5 129.5t-81.5 94t-117.5 67.5t-140.5 54t-147.5 48.5t-140 57t-117.5 73.5t-81.5 103.5t-30.5 142.5q0 89 38.5 159t103.5 112t145 63.5t169 21.5q111 0 220.5 -27t193.5 -73v-80 q-83 47 -193.5 74.5t-215.5 27.5q-76 0 -142.5 -16t-120.5 -48t-85 -86.5t-31 -125.5q0 -69 30.5 -122.5t81.5 -88.5t117.5 -63.5t140 -52.5t147 -48.5t140 -58.5t117.5 -76.5t81.5 -108t30.5 -147.5q0 -94 -40 -165t-109.5 -112.5t-155.5 -61.5t-186 -20q-273 0 -488 121z " />
<glyph unicode="T" horiz-adv-x="1216" d="M29 1356v78h1159v-78h-539v-1356h-82v1356h-538z" />
<glyph unicode="U" horiz-adv-x="1536" d="M190 502v932h82v-930q0 -98 24.5 -174.5t68 -128t106.5 -84.5t136 -47.5t161 -14.5t161 14.5t136 47.5t106.5 84.5t68 128t24.5 174.5v930h82v-932q0 -142 -44.5 -246t-125.5 -163.5t-182 -87.5t-226 -28t-226 28t-182 87.5t-125.5 163.5t-44.5 246z" />
<glyph unicode="V" horiz-adv-x="1394" d="M37 1434h88l571 -1342l574 1342h88l-619 -1434h-84z" />
<glyph unicode="W" horiz-adv-x="2033" d="M51 1434h88l414 -1330l428 1317h74l426 -1317l413 1330h88l-456 -1434h-88l-422 1286l-420 -1286h-88z" />
<glyph unicode="X" horiz-adv-x="1257" d="M16 0l566 737l-535 697h96l486 -633l485 633h96l-532 -697l563 -737h-96l-516 674l-516 -674h-97z" />
<glyph unicode="Y" horiz-adv-x="1298" d="M43 1434h92l514 -787l514 787h92l-565 -863v-571h-82v571z" />
<glyph unicode="Z" horiz-adv-x="1175" d="M55 0v72l938 1284h-903v78h1004v-72l-940 -1284h958v-78h-1057z" />
<glyph unicode="[" horiz-adv-x="509" d="M156 -225v1884h307v-78h-225v-1728h225v-78h-307z" />
<glyph unicode="\" horiz-adv-x="831" d="M82 1550h61l609 -1667h-62z" />
<glyph unicode="]" horiz-adv-x="509" d="M47 -147h227v1728h-227v78h307v-1884h-307v78z" />
<glyph unicode="^" horiz-adv-x="1013" d="M109 815l362 619h70l364 -619h-88l-311 533l-309 -533h-88z" />
<glyph unicode="_" horiz-adv-x="888" d="M0 -197h889v-73h-889v73z" />
<glyph unicode="`" horiz-adv-x="348" d="M25 1870h98l180 -281h-86z" />
<glyph unicode="a" horiz-adv-x="1105" d="M80 264q0 68 24.5 122t65 89.5t96.5 59t116 33.5t126 10q169 0 336 -54v90q0 146 -88 232t-250 86q-185 0 -350 -64v76q175 62 356 62q194 0 302 -106t108 -294v-448q0 -95 98 -95q29 0 76 15v-66q-50 -16 -97 -16q-67 0 -111 38.5t-44 121.5v26q-73 -98 -184 -151.5 t-242 -53.5q-89 0 -163.5 29.5t-124.5 96.5t-50 161zM160 266q0 -106 79.5 -162.5t192.5 -56.5q126 0 237 60.5t175 171.5v178q-164 53 -328 53q-70 0 -130.5 -13t-112.5 -40.5t-82.5 -76.5t-30.5 -114z" />
<glyph unicode="b" d="M166 0v1434h78v-676q61 109 173 178.5t257 69.5q212 0 350.5 -142.5t138.5 -371.5t-138.5 -372t-350.5 -143q-145 0 -257.5 71t-178.5 185v-233h-72zM244 348q46 -128 160.5 -212.5t261.5 -84.5q183 0 301 120t118 321q0 202 -118 321t-301 119q-147 0 -261.5 -84.5 t-160.5 -212.5v-287z" />
<glyph unicode="c" horiz-adv-x="1009" d="M96 483q0 131 46.5 234.5t123.5 164.5t168.5 92.5t190.5 31.5q171 0 293 -80v-76q-119 82 -285 82q-88 0 -167.5 -26.5t-146 -78.5t-106 -140.5t-39.5 -201.5q0 -108 37 -193t100 -136.5t140 -78t163 -26.5q176 0 314 78v-78q-139 -74 -322 -74q-98 0 -187.5 31 t-162.5 91t-116.5 159t-43.5 225z" />
<glyph unicode="d" d="M96 492q0 229 138.5 371.5t351.5 142.5q143 0 256 -70t174 -178v676h78v-1434h-72v233q-65 -114 -178.5 -185t-257.5 -71q-213 0 -351.5 143t-138.5 372zM174 492q0 -201 118.5 -321t299.5 -120q148 0 262 84t162 213v287q-48 129 -162 213t-262 84q-182 0 -300 -119 t-118 -321z" />
<glyph unicode="e" horiz-adv-x="1118" d="M96 492q0 121 41 220.5t109.5 162.5t154 97t177.5 34q89 0 163.5 -24t124.5 -65.5t87.5 -96.5t53.5 -116q15 -62 21 -126q2 -18 2 -36q0 -45 -10 -89h-846q4 -103 44.5 -182.5t106.5 -126t146.5 -70t171.5 -23.5q186 0 320 78v-78q-135 -74 -330 -74q-108 0 -203 31 t-170.5 91.5t-119.5 161.5t-44 231zM174 522h778q3 23 3 46q0 32 -5 62q-8 54 -34.5 109t-68.5 97.5t-110.5 69t-154.5 26.5q-166 0 -284 -109.5t-124 -300.5z" />
<glyph unicode="f" horiz-adv-x="729" d="M47 909v74h172v158q0 85 27 148t74 98.5t102 52t119 16.5q136 0 235 -47v-74q-83 47 -221 47q-55 0 -99 -12t-81 -39t-57.5 -76t-20.5 -118v-154h420v-74h-420v-909h-78v909h-172z" />
<glyph unicode="g" d="M96 492q0 229 138.5 371.5t351.5 142.5q144 0 257.5 -71t178.5 -185v233h72v-983q0 -121 -43.5 -214t-118 -148.5t-165.5 -83t-194 -27.5q-209 0 -389 94v76q187 -96 381 -96q73 0 138 13.5t123 44.5t99.5 76.5t66 113t24.5 151.5v227q-61 -110 -173.5 -180t-256.5 -70 q-213 0 -351.5 143t-138.5 372zM174 492q0 -201 118.5 -321t299.5 -120q148 0 262 82.5t162 206.5v295q-48 129 -162 213t-262 84q-182 0 -300 -119t-118 -321z" />
<glyph unicode="h" horiz-adv-x="1181" d="M166 0v1434h78v-646q63 88 163.5 153t231.5 65q168 0 278.5 -109.5t110.5 -292.5v-604h-78v596q0 159 -89 247.5t-228 88.5q-69 0 -132 -21.5t-111 -58.5t-83.5 -78t-62.5 -88v-686h-78z" />
<glyph unicode="i" horiz-adv-x="425" d="M156 1270q0 27 16 41t41 14t41 -14t16 -41q0 -28 -16 -43t-41 -15t-41 15t-16 43zM174 0v983h78v-983h-78z" />
<glyph unicode="j" horiz-adv-x="425" d="M-141 -375q51 -22 125 -22q39 0 71 8.5t60 28.5t43.5 57t15.5 88v1198h78v-1206q0 -70 -21.5 -121t-58.5 -78t-79 -39t-91 -12q-73 0 -143 24v74zM154 1270q0 26 16.5 40.5t40.5 14.5q25 0 41 -14t16 -41q0 -28 -16 -43t-41 -15q-24 0 -40.5 15t-16.5 43z" />
<glyph unicode="k" horiz-adv-x="1019" d="M166 0v1434h78v-891h252l368 440h92l-399 -479l455 -504h-94l-429 469h-245v-469h-78z" />
<glyph unicode="l" horiz-adv-x="425" d="M174 0v1495h78v-1495h-78z" />
<glyph unicode="m" horiz-adv-x="1826" d="M166 0v983h72v-188q56 81 154 146t222 65q115 0 200 -57t122 -154q69 88 166 149.5t217 61.5q160 0 257 -104.5t97 -268.5v-633h-78v631q0 133 -77 217t-207 84q-113 0 -201 -62.5t-149 -150.5q8 -36 8 -86v-633h-78v631q0 133 -77.5 217t-207.5 84q-63 0 -121.5 -22 t-103.5 -58t-78.5 -73.5t-58.5 -78.5v-700h-78z" />
<glyph unicode="n" horiz-adv-x="1181" d="M166 0v983h72v-203q38 56 89 103t135.5 85t176.5 38q168 0 278.5 -109.5t110.5 -292.5v-604h-78v596q0 159 -89 247.5t-228 88.5q-69 0 -132 -21.5t-111 -58.5t-83.5 -78t-62.5 -88v-686h-78z" />
<glyph unicode="o" horiz-adv-x="1210" d="M94 492q0 120 42.5 219t114 162.5t162.5 98t191 34.5q101 0 192.5 -34.5t163 -98t114 -162.5t42.5 -219t-42.5 -219t-114 -163t-163 -98.5t-192.5 -34.5q-100 0 -191 34.5t-162.5 98.5t-114 163t-42.5 219zM172 492q0 -135 60.5 -236.5t157.5 -152t214 -50.5 q118 0 215.5 50.5t158 152t60.5 236.5t-60.5 236.5t-158 151.5t-215.5 50q-117 0 -214 -50t-157.5 -151.5t-60.5 -236.5z" />
<glyph unicode="p" d="M166 -451v1434h72v-233q66 114 178.5 185t257.5 71q212 0 350.5 -142.5t138.5 -371.5t-138.5 -372t-350.5 -143q-145 0 -257 69.5t-173 178.5v-676h-78zM244 348q46 -128 160.5 -212.5t261.5 -84.5q183 0 301 119t118 322q0 201 -118 320.5t-301 119.5 q-147 0 -261.5 -84.5t-160.5 -212.5v-287z" />
<glyph unicode="q" d="M96 492q0 229 138.5 371.5t351.5 142.5q144 0 257.5 -71t178.5 -185v233h72v-1434h-78v676q-61 -108 -174 -178t-256 -70q-213 0 -351.5 143t-138.5 372zM174 492q0 -202 118 -321.5t300 -119.5q148 0 262 84t162 213v287q-48 129 -162 213t-262 84q-181 0 -299.5 -119.5 t-118.5 -320.5z" />
<glyph unicode="r" horiz-adv-x="704" d="M166 0v983h72v-268q53 127 171 210q113 79 257 79h14v-78h-17q-76 0 -144 -24q-75 -26 -128.5 -73.5t-91 -108.5t-55.5 -130v-590h-78z" />
<glyph unicode="s" horiz-adv-x="931" d="M98 76v78q70 -48 173 -75.5t200 -27.5q85 0 151 17.5t109 59.5t43 105q0 59 -37 100.5t-96 65.5t-130.5 43.5t-143 42t-130.5 52.5t-96 83.5t-37 127.5q0 66 30.5 117.5t81.5 81t112 44.5t127 15q92 0 182 -23.5t156 -62.5v-74q-61 39 -153.5 63.5t-180.5 24.5 q-53 0 -100.5 -10.5t-88 -31.5t-64.5 -57.5t-24 -84.5q0 -60 37 -102.5t96 -67t130.5 -44t143 -41.5t130.5 -51.5t96 -82t37 -125.5q0 -67 -31 -118t-84.5 -81t-119.5 -45t-142 -15q-100 0 -205.5 27.5t-171.5 71.5z" />
<glyph unicode="t" horiz-adv-x="770" d="M31 909v74h184v320l78 22v-342h426v-74h-426v-620q0 -236 242 -236q120 0 210 49v-73q-92 -47 -231 -47q-141 0 -220 76t-79 221v630h-184z" />
<glyph unicode="u" horiz-adv-x="1181" d="M154 379v604h77v-596q0 -160 87.5 -248t230.5 -88q69 0 132 21.5t111 58.5t83.5 78t62.5 88v686h78v-983h-72v203q-38 -56 -89 -103t-135.5 -85t-176.5 -38q-173 0 -281 108.5t-108 293.5z" />
<glyph unicode="v" horiz-adv-x="1075" d="M41 983h86l412 -895l409 895h86l-454 -983h-84z" />
<glyph unicode="w" horiz-adv-x="1636" d="M51 983h82l328 -891l319 879h74l322 -879l327 891h82l-368 -983h-80l-320 866l-317 -866h-80z" />
<glyph unicode="x" horiz-adv-x="989" d="M31 0l418 504l-396 479h90l351 -422l350 422h92l-395 -479l415 -504h-90l-372 449l-371 -449h-92z" />
<glyph unicode="y" horiz-adv-x="1087" d="M31 983h84l450 -901l398 901h81l-512 -1155q-72 -162 -152 -231.5t-183 -69.5q-54 0 -103 14v70q58 -14 94 -14q88 0 155 63t126 199l59 137z" />
<glyph unicode="z" horiz-adv-x="919" d="M66 0v68l665 845h-639v70h733v-68l-663 -845h692v-70h-788z" />
<glyph unicode="{" horiz-adv-x="555" d="M55 682v70q70 -3 126.5 47t56.5 147v514q0 115 57.5 169t177.5 30v-70q-87 13 -120.5 -25.5t-33.5 -131.5v-490q0 -95 -40.5 -152.5t-100.5 -72.5q60 -15 100.5 -72.5t40.5 -152.5v-490q0 -93 33.5 -132t120.5 -26v-69q-120 -22 -177.5 30.5t-57.5 167.5v514 q0 96 -56.5 147t-126.5 48z" />
<glyph unicode="|" horiz-adv-x="393" d="M156 -205v1864h82v-1864h-82z" />
<glyph unicode="}" horiz-adv-x="555" d="M82 -156q87 -13 121.5 26t34.5 132v490q0 96 39.5 153t101.5 72q-62 15 -101.5 72t-39.5 153v490q0 92 -34.5 131t-121.5 26v70q120 24 177.5 -30t57.5 -169v-514q0 -97 56.5 -147t126.5 -47v-70q-70 3 -126.5 -48t-56.5 -147v-514q0 -115 -57.5 -167.5t-177.5 -30.5v69z " />
<glyph unicode="~" horiz-adv-x="1189" d="M158 594q-2 85 47.5 135.5t134.5 50.5q51 0 123.5 -21t134 -46.5t133 -46.5t121.5 -21q54 0 85 29.5t30 81.5h75q2 -83 -47.5 -135t-134.5 -52q-63 0 -160.5 34.5l-195 69t-158.5 34.5q-55 0 -85 -30.5t-28 -82.5h-75z" />
<glyph unicode="&#xa2;" horiz-adv-x="1046" d="M104 483q0 123 41 222t110.5 160.5t153.5 96.5t177 42v225h69v-223q159 -7 271 -80v-76q-113 79 -271 82v-881q162 10 281 78v-78q-120 -64 -281 -74v-223h-69v223q-94 5 -178.5 38t-153.5 93t-109.5 157t-40.5 218zM182 485q0 -102 33.5 -184t90.5 -133.5t128 -80.5 t152 -34v877q-80 -8 -150.5 -38t-128.5 -83t-91.5 -136.5t-33.5 -187.5z" />
<glyph unicode="&#xa3;" horiz-adv-x="1239" d="M78 0v78h67q73 0 116.5 50.5t43.5 141.5v383h-168v78h168v217q0 121 38 213t103 145.5t143 80t167 26.5q166 0 293 -78v-78q-129 80 -285 80q-76 0 -141.5 -22t-119.5 -67t-85 -122.5t-31 -179.5v-215h506v-78h-506v-383q0 -145 -88 -192h848v-78h-1069z" />
<glyph unicode="&#xa5;" horiz-adv-x="1300" d="M72 1393h90l487 -746l490 746h90l-500 -760h340v-70h-379v-178h379v-70h-379v-315h-80v315h-377v70h377v178h-377v70h336z" />
<glyph unicode="&#xa7;" horiz-adv-x="995" d="M121 698q0 166 201 273q-86 36 -133.5 89.5t-47.5 139.5q0 121 101 188.5t245 67.5q86 0 173 -23t149 -59v-74q-60 39 -147 62.5t-170 23.5q-115 0 -194 -49t-79 -135q0 -41 18.5 -73.5t40.5 -52.5t71 -40.5t78.5 -29.5t94.5 -26l33 -9q61 -17 99.5 -29.5t88 -36.5 t78 -51.5t48.5 -70.5t20 -97q0 -162 -213 -266q88 -36 138 -92.5t50 -147.5q0 -81 -51.5 -139t-133 -84.5t-181.5 -26.5q-96 0 -191.5 25t-159.5 68v73q66 -45 161.5 -70.5t185.5 -25.5q128 0 210 46.5t82 133.5q0 26 -6 48.5t-20.5 41.5t-28 33.5t-41 29t-45 23t-54 20.5 t-55.5 18t-61 18q-50 13 -75.5 20.5t-69.5 23t-68 29t-55 35.5t-47 46.5t-27.5 58t-11.5 73.5zM197 709q0 -35 10 -63.5t34.5 -51t46.5 -37.5t64 -30.5t68 -23.5t78 -22q11 -3 31.5 -9t37 -11t31.5 -10q40 15 74.5 33.5t68 46t53 65t19.5 80.5q0 41 -16.5 74t-39 54 t-64 40.5t-74.5 30.5t-87 26q-92 26 -133 39q-79 -27 -140.5 -88t-61.5 -143z" />
<glyph unicode="&#xa8;" horiz-adv-x="577" d="M20 1712q0 25 19 44.5t45 19.5t44.5 -19.5t18.5 -44.5q0 -26 -18.5 -44.5t-44.5 -18.5t-45 18.5t-19 44.5zM432 1712q0 25 19 44.5t45 19.5t44.5 -19.5t18.5 -44.5q0 -26 -18.5 -44.5t-44.5 -18.5t-45 18.5t-19 44.5z" />
<glyph unicode="&#xa9;" horiz-adv-x="1748" d="M111 717q0 143 45 265.5t120.5 208t174.5 146.5t206.5 90t216.5 29t217 -29t207 -90t174.5 -146.5t120.5 -208t45 -265.5t-45 -265.5t-121 -208t-174.5 -147t-206.5 -90.5t-217 -29t-216.5 29t-206.5 90.5t-174.5 147t-120.5 208t-45 265.5zM150 717q0 -136 42.5 -252 t113.5 -197.5t164.5 -140t196 -86t207.5 -27.5t208.5 27.5t197.5 86t165.5 140t114 197.5t42.5 252t-42.5 252t-114 197.5t-165.5 139.5t-197.5 85.5t-208.5 27.5t-207.5 -27.5t-196 -85.5t-164.5 -139.5t-113.5 -197.5t-42.5 -252zM498 700q0 87 24.5 159.5t66 121.5 t97 82.5t115.5 49t123 15.5q140 0 250 -71v-62q-109 70 -240 70q-71 0 -134.5 -20.5t-117 -62t-85.5 -114t-32 -166.5q0 -85 29.5 -151t80 -104.5t111.5 -58t129 -19.5q135 0 259 67v-61q-133 -70 -273 -70q-60 0 -117 14.5t-109 46.5t-91.5 77.5t-62.5 111.5t-23 145z" />
<glyph unicode="&#xab;" horiz-adv-x="888" d="M104 481v21l244 346h86l-252 -356l252 -357h-86zM430 481v21l244 346h86l-252 -356l252 -357h-86z" />
<glyph unicode="&#xad;" horiz-adv-x="993" d="M141 463v74h711v-74h-711z" />
<glyph unicode="&#xae;" horiz-adv-x="1748" d="M111 717q0 143 45 265.5t120.5 208t174.5 146.5t206.5 90t216.5 29t217 -29t207 -90t174.5 -146.5t120.5 -208t45 -265.5t-45 -265.5t-121 -208t-174.5 -147t-206.5 -90.5t-217 -29t-216.5 29t-206.5 90.5t-174.5 147t-120.5 208t-45 265.5zM150 717q0 -136 42.5 -252 t113.5 -197.5t164.5 -140t196 -86t207.5 -27.5t208.5 27.5t197.5 86t165.5 140t114 197.5t42.5 252t-42.5 252t-114 197.5t-165.5 139.5t-197.5 85.5t-208.5 27.5t-207.5 -27.5t-196 -85.5t-164.5 -139.5t-113.5 -197.5t-42.5 -252zM604 307v809h318q49 0 95.5 -10.5t95 -36 t78.5 -78t30 -125.5q0 -185 -187 -225l234 -334h-70l-225 324q-23 -2 -60 -2h-247v-322h-62zM666 688h252q27 0 49.5 2t52.5 7.5t52.5 17.5t43.5 31t32 49.5t11 70.5q0 48 -17 84t-42 55.5t-60 31t-63 15t-59 3.5h-252v-367z" />
<glyph unicode="&#xaf;" horiz-adv-x="638" d="M49 1647v73h541v-73h-541z" />
<glyph unicode="&#xb0;" horiz-adv-x="802" d="M100 1174q0 133 89 213.5t212 80.5t212 -80.5t89 -213.5q0 -134 -89 -214.5t-212 -80.5t-212 80.5t-89 214.5zM162 1174q0 -106 69.5 -170t169.5 -64t170 64.5t70 169.5t-70 169t-170 64t-169.5 -64t-69.5 -169z" />
<glyph unicode="&#xb4;" horiz-adv-x="348" d="M57 1589l183 281h96l-191 -281h-88z" />
<glyph unicode="&#xb6;" horiz-adv-x="1230" d="M72 1016q0 196 118 307t324 111h543v-1885h-80v1807h-381v-1807h-82v1049q-206 0 -324 111t-118 307z" />
<glyph unicode="&#xb7;" horiz-adv-x="407" d="M143 489q0 27 18 43.5t44 16.5q27 0 44 -16.5t17 -43.5t-17 -43t-44 -16q-26 0 -44 16t-18 43z" />
<glyph unicode="&#xb8;" horiz-adv-x="432" d="M0 -360q85 -48 193 -48q91 0 136.5 29.5t43.5 75.5q0 59 -81 78.5t-173 -6.5l55 231h70l-43 -176q64 10 117.5 0.5t88 -44t35.5 -85.5q2 -77 -61.5 -122.5t-179.5 -45.5q-113 0 -201 45v68z" />
<glyph unicode="&#xbb;" horiz-adv-x="888" d="M129 135l252 357l-252 356h84l246 -346v-21l-246 -346h-84zM455 135l252 357l-252 356h84l245 -346v-21l-245 -346h-84z" />
<glyph unicode="&#x2c6;" horiz-adv-x="563" d="M-14 1589l262 269h67l263 -269h-91l-204 207l-207 -207h-90z" />
<glyph unicode="&#x2c7;" horiz-adv-x="563" d="M-14 1837h90l207 -207l204 207h91l-263 -268h-67z" />
<glyph unicode="&#x2d8;" horiz-adv-x="657" d="M68 1679v80q114 -90 262 -90t262 90v-80q-106 -86 -262 -86t-262 86z" />
<glyph unicode="&#x2d9;" horiz-adv-x="188" d="M20 1679q0 33 21.5 52.5t52.5 19.5q32 0 53 -19.5t21 -52.5t-21 -53t-53 -20q-30 0 -52 20t-22 53z" />
<glyph unicode="&#x2da;" horiz-adv-x="421" d="M20 1729q0 79 56.5 129.5t134.5 50.5q76 0 132 -50.5t56 -129.5q0 -82 -55.5 -133.5t-132.5 -51.5q-78 0 -134.5 51.5t-56.5 133.5zM84 1726q0 -56 37.5 -90t89.5 -34t89.5 34t37.5 90t-37.5 90.5t-89.5 34.5t-89.5 -34.5t-37.5 -90.5z" />
<glyph unicode="&#x2db;" horiz-adv-x="421" d="M35 -309q0 76 58.5 156.5t162.5 152.5h86q-103 -70 -168 -147.5t-65 -147.5q0 -52 33 -82.5t94 -30.5q73 0 141 41v-65q-68 -41 -158 -41q-87 -1 -135.5 44.5t-48.5 119.5z" />
<glyph unicode="&#x2dc;" horiz-adv-x="653" d="M23 1612q-10 75 28 121.5t101 46.5q60 0 176.5 -54.5t156.5 -54.5q42 0 61.5 25.5t14.5 70.5h70q9 -75 -27 -120t-102 -45q-49 0 -114 27t-125 54t-95 27q-40 0 -60.5 -26.5t-15.5 -71.5h-69z" />
<glyph unicode="&#x2dd;" horiz-adv-x="651" d="M49 1595l152 293h88l-156 -293h-84zM362 1595l152 293h88l-156 -293h-84z" />
<glyph unicode="&#x2000;" horiz-adv-x="954" />
<glyph unicode="&#x2001;" horiz-adv-x="1909" />
<glyph unicode="&#x2002;" horiz-adv-x="954" />
<glyph unicode="&#x2003;" horiz-adv-x="1909" />
<glyph unicode="&#x2004;" horiz-adv-x="636" />
<glyph unicode="&#x2005;" horiz-adv-x="477" />
<glyph unicode="&#x2006;" horiz-adv-x="318" />
<glyph unicode="&#x2007;" horiz-adv-x="318" />
<glyph unicode="&#x2008;" horiz-adv-x="238" />
<glyph unicode="&#x2009;" horiz-adv-x="381" />
<glyph unicode="&#x200a;" horiz-adv-x="106" />
<glyph unicode="&#x2010;" horiz-adv-x="993" d="M141 463v74h711v-74h-711z" />
<glyph unicode="&#x2011;" horiz-adv-x="993" d="M141 463v74h711v-74h-711z" />
<glyph unicode="&#x2012;" horiz-adv-x="993" d="M141 463v74h711v-74h-711z" />
<glyph unicode="&#x2013;" horiz-adv-x="1163" d="M141 463v74h881v-74h-881z" />
<glyph unicode="&#x2014;" horiz-adv-x="1540" d="M141 463v74h1258v-74h-1258z" />
<glyph unicode="&#x2018;" horiz-adv-x="387" d="M111 987l120 447h66l-104 -447h-82z" />
<glyph unicode="&#x2019;" horiz-adv-x="380" d="M113 987l104 447h82l-121 -447h-65z" />
<glyph unicode="&#x201a;" horiz-adv-x="415" d="M78 -295l104 447h82l-121 -447h-65z" />
<glyph unicode="&#x201c;" horiz-adv-x="649" d="M111 987l120 447h66l-104 -447h-82zM373 987l121 447h65l-104 -447h-82z" />
<glyph unicode="&#x201d;" horiz-adv-x="643" d="M113 987l104 447h82l-121 -447h-65zM375 987l104 447h82l-121 -447h-65z" />
<glyph unicode="&#x201e;" horiz-adv-x="677" d="M78 -295l104 447h82l-121 -447h-65zM340 -295l104 447h82l-120 -447h-66z" />
<glyph unicode="&#x2020;" horiz-adv-x="999" d="M70 905v78h389v451h82v-451h389v-78h-389v-1356h-82v1356h-389z" />
<glyph unicode="&#x2021;" horiz-adv-x="1062" d="M102 221v78h390v606h-390v78h390v451h79v-451h390v-78h-390v-606h390v-78h-390v-672h-79v672h-390z" />
<glyph unicode="&#x2022;" horiz-adv-x="600" d="M197 717q0 46 29.5 74t72.5 28q44 0 74 -28t30 -74t-30 -74.5t-74 -28.5q-43 0 -72.5 28.5t-29.5 74.5z" />
<glyph unicode="&#x2026;" horiz-adv-x="1007" d="M141 47q0 27 18 43t44 16q27 0 44 -16t17 -43q0 -29 -17 -45t-44 -16q-26 0 -44 16.5t-18 44.5zM442 47q0 27 18 43t44 16q27 0 44 -16t17 -43q0 -29 -17 -45t-44 -16q-26 0 -44 16.5t-18 44.5zM743 47q0 27 18 43t44 16q27 0 44 -16t17 -43q0 -29 -17 -45t-44 -16 q-26 0 -44 16.5t-18 44.5z" />
<glyph unicode="&#x202f;" horiz-adv-x="381" />
<glyph unicode="&#x2039;" horiz-adv-x="563" d="M104 481v21l244 346h86l-252 -356l252 -357h-86z" />
<glyph unicode="&#x203a;" horiz-adv-x="563" d="M129 135l252 357l-252 356h84l246 -346v-21l-246 -346h-84z" />
<glyph unicode="&#x205f;" horiz-adv-x="477" />
<glyph unicode="&#x20ac;" horiz-adv-x="1507" d="M90 516v70h168q-6 50 -6 104q0 68 8 117h-170v70h182q24 103 74.5 190.5t118 151t150.5 108t173 66.5t183 22q219 0 401 -98v-82q-164 102 -389 102q-140 0 -266 -50.5t-223.5 -157t-135.5 -252.5h777v-70h-791q-10 -46 -10 -117q0 -54 6 -104h795v-70h-779 q27 -113 90 -202.5t149 -145t185.5 -84.5t206.5 -29q214 0 385 105v-82q-184 -101 -401 -101q-118 0 -230 34.5t-207.5 100t-165.5 170t-98 234.5h-180z" />
<glyph unicode="&#x2122;" horiz-adv-x="1351" d="M94 1384v50h424v-50h-186v-466h-51v466h-187zM627 918v516h59l219 -310l219 310h60v-516h-51v442l-213 -297h-31l-211 297v-442h-51z" />
<glyph unicode="&#x25ca;" horiz-adv-x="1120" d="M80 717l436 717h88l436 -717l-436 -717h-88zM170 717l391 -637l393 637l-393 637z" />
<glyph unicode="&#x25fc;" horiz-adv-x="983" d="M0 0v983h983v-983h-983z" />
<glyph unicode="&#xfb01;" horiz-adv-x="1095" d="M47 909v74h172v150q0 155 98 239t250 84q160 0 314 -88v-80q-148 94 -312 94q-123 0 -197.5 -65t-74.5 -184v-150h625v-983h-78v909h-547v-909h-78v909h-172z" />
<glyph unicode="&#xfb02;" horiz-adv-x="1116" d="M47 909v74h172v150q0 155 98 239t250 84q156 0 297 -72v33l78 23v-1440h-78v1311q-133 71 -295 71q-123 0 -197.5 -65t-74.5 -184v-150h377v-74h-377v-909h-78v909h-172z" />
</font>
</defs>
</svg>
