<?xml version="1.0" standalone="no"?>
<!DOCTYPE svg PUBLIC "-//W3C//DTD SVG 20010904//EN"
 "http://www.w3.org/TR/2001/REC-SVG-20010904/DTD/svg10.dtd">
<svg version="1.0" xmlns="http://www.w3.org/2000/svg"
 width="16.000000pt" height="16.000000pt" viewBox="0 0 16.000000 16.000000"
 preserveAspectRatio="xMidYMid meet">
<metadata>
Created by potrace 1.11, written by Peter Selinger 2001-2013
</metadata>
<g transform="translate(0.000000,16.000000) scale(0.004533,-0.004533)"
fill="#000000" stroke="none">
<path d="M1829 3526 c-2 -2 -24 -6 -49 -10 -25 -3 -63 -9 -84 -12 -49 -8 -187
-48 -216 -64 -17 -9 -25 -7 -48 10 -23 19 -38 21 -117 19 -49 -2 -106 -6 -125
-10 -19 -4 -48 -10 -65 -12 -140 -22 -299 -89 -430 -182 -179 -127 -322 -349
-360 -560 -10 -54 -13 -277 -11 -970 2 -897 2 -900 24 -973 105 -344 349 -570
720 -666 80 -21 107 -25 233 -32 100 -6 108 -5 128 15 l22 22 69 -25 c150 -54
260 -71 465 -71 230 1 348 22 523 93 314 128 565 438 608 751 14 97 9 127 -28
178 -42 58 -179 259 -224 328 -18 28 -37 55 -41 60 -5 6 -61 87 -125 181
l-117 172 88 128 c48 71 141 208 206 304 65 96 146 213 179 260 l61 85 -1 75
c-2 130 -64 307 -152 436 -164 241 -392 388 -698 450 -70 14 -424 30 -435 20z
m305 -141 c44 -3 83 -8 86 -10 4 -2 22 -7 41 -10 51 -8 155 -43 225 -75 186
-84 349 -247 432 -432 17 -38 29 -68 26 -68 -3 0 -2 -6 3 -12 9 -16 10 -18 24
-103 14 -81 28 -49 -116 -262 -43 -65 -82 -120 -85 -123 -3 -3 -63 -92 -135
-197 -71 -106 -132 -193 -136 -193 -4 0 -42 52 -85 115 -44 64 -128 187 -187
273 -60 86 -142 207 -183 267 -41 61 -121 178 -177 260 -57 83 -156 228 -221
323 -65 95 -116 175 -114 177 10 11 185 55 254 64 129 18 174 19 348 6z m-909
-88 c-165 -132 -287 -316 -347 -522 l-23 -80 0 -925 c0 -738 3 -936 13 -980
53 -216 168 -397 352 -553 44 -37 44 -38 15 -33 -16 3 -50 8 -74 11 -64 7
-216 61 -291 102 -219 119 -367 325 -405 563 -13 78 -8 1748 5 1805 65 288
284 519 570 601 43 12 175 40 199 42 25 1 24 0 -14 -31z m358 -312 c31 -44
109 -159 174 -255 64 -96 120 -177 123 -180 4 -3 53 -75 111 -160 57 -85 107
-156 112 -158 4 -2 7 -10 7 -17 0 -7 3 -15 8 -17 8 -3 18 -17 132 -188 46 -69
86 -127 89 -130 15 -13 71 -102 71 -111 0 -9 -163 -251 -655 -974 -34 -49
-110 -162 -170 -250 -153 -225 -176 -260 -180 -263 -6 -7 -100 62 -154 113
-122 115 -217 276 -246 420 -5 22 -10 47 -12 55 -6 24 -5 1752 1 1785 3 17 8
45 11 63 9 53 68 192 108 254 51 80 151 184 226 234 l65 43 62 -92 c34 -51 87
-128 117 -172z m938 -1373 c9 -15 71 -106 137 -202 298 -433 324 -474 325
-505 3 -80 -63 -257 -134 -362 -41 -60 -200 -219 -228 -228 -12 -3 -21 -11
-21 -16 0 -5 -6 -9 -14 -9 -7 0 -24 -8 -37 -19 -60 -47 -257 -107 -411 -126
-60 -7 -251 -8 -298 -1 -19 3 -56 8 -83 11 -26 3 -60 10 -75 16 -15 6 -28 10
-30 9 -9 -5 -112 33 -112 41 0 5 73 118 163 250 396 584 573 845 679 1002 62
92 115 167 118 167 3 0 12 -12 21 -28z"/>
</g>
</svg>
