<?xml version="1.0" encoding="UTF-8"?>
<svg width="142px" height="116px" viewBox="0 0 142 116" version="1.1" xmlns="http://www.w3.org/2000/svg" xmlns:xlink="http://www.w3.org/1999/xlink">
    <title>Group</title>
    <g id="Mocks" stroke="none" stroke-width="1" fill="none" fill-rule="evenodd">
        <g id="07.5_02" transform="translate(-653.000000, -318.000000)">
            <g id="Group" transform="translate(653.000000, 318.000000)">
                <rect id="Rectangle" fill="#E4E6EC" x="15" y="0" width="127" height="100" rx="4"></rect>
                <g id="ion:card-sharp" transform="translate(0.000000, 19.000000)">
                    <path d="M0,91.6571429 C0,94.0556366 1.9507593,96 4.35714286,96 L117.642857,96 C120.049241,96 122,94.0556366 122,91.6571429 L122,39 L0,39 L0,91.6571429 Z M17.9732143,54.2 C17.9732143,53.0007531 18.9485939,52.0285714 20.1517857,52.0285714 L45.2053571,52.0285714 C46.4085489,52.0285714 47.3839286,53.0007531 47.3839286,54.2 L47.3839286,71.5714286 C47.3839286,72.7706755 46.4085489,73.7428571 45.2053571,73.7428571 L20.1517857,73.7428571 C18.9485939,73.7428571 17.9732143,72.7706755 17.9732143,71.5714286 L17.9732143,54.2 Z" id="Shape" fill="#D1D9E2" fill-rule="nonzero"></path>
                    <path d="M117.642857,0.875 L4.35714286,0.875 C1.9507593,0.875 0,2.83375422 0,5.25 L0,23.296875 L122,23.296875 L122,5.25 C122,2.83375422 120.049241,0.875 117.642857,0.875 Z" id="Path" fill="#D1D9E2" fill-rule="nonzero"></path>
                    <rect id="Rectangle" fill="#B8C0C9" x="0" y="23" width="122" height="17"></rect>
                </g>
            </g>
        </g>
    </g>
</svg>