<?xml version="1.0" encoding="UTF-8"?>
<svg width="143px" height="140px" viewBox="0 0 143 140" version="1.1" xmlns="http://www.w3.org/2000/svg" xmlns:xlink="http://www.w3.org/1999/xlink">
    <title>Group</title>
    <g id="Mocks" stroke="none" stroke-width="1" fill="none" fill-rule="evenodd">
        <g id="12_05" transform="translate(-643.000000, -386.000000)">
            <g id="Group-2" transform="translate(413.000000, 286.000000)">
                <g id="Group" transform="translate(230.000000, 100.000000)">
                    <circle id="Oval" fill="#E4E6EC" cx="73" cy="70" r="70"></circle>
                    <g id="ion:rocket-sharp">
                        <rect id="ViewBox" x="0" y="0" width="140" height="140"></rect>
                        <path d="M130.604688,10.4617187 C130.502757,9.96801223 130.124352,9.57788143 129.633984,9.4609375 C113.61875,5.5453125 76.6144531,19.4988281 56.5660156,39.5390625 C52.9902106,43.0859665 49.7303496,46.9377809 46.8234375,51.0507812 C40.6410156,50.5039062 34.4585938,50.9605469 29.1894531,53.2574219 C14.3226563,59.8007812 9.99414063,76.8742187 8.78828125,84.21875 C8.64961753,85.0337132 8.90131166,85.8665244 9.46813733,86.4682729 C10.034963,87.0700215 10.8512575,87.3709993 11.6730469,87.28125 L35.546875,84.6480469 C35.5639232,86.4479759 35.6725271,88.2458723 35.8722656,90.0347656 C35.9924027,91.2770412 36.5438583,92.4380004 37.4308594,93.3160156 L46.6757813,102.539062 C47.5546079,103.424919 48.7151302,103.976167 49.9570313,104.097656 C51.7359257,104.296645 53.5237709,104.405249 55.3136719,104.423047 L52.6941406,128.266797 C52.6055627,129.088296 52.9069049,129.903856 53.5083513,130.470397 C54.1097978,131.036938 54.9418973,131.28904 55.7566406,131.151562 C63.0875,129.975781 80.1910156,125.647266 86.6960938,110.780469 C88.9929688,105.511328 89.4632813,99.3589844 88.9328125,93.2066406 C93.0557804,90.2995388 96.9176461,87.0387738 100.474609,83.4613281 C120.585938,63.4511719 134.460156,27.2726562 130.604688,10.4617187 Z" id="Shape" fill="#D1D9E2" fill-rule="nonzero"></path>
                        <path d="M46.046875,109.219141 C44.5484375,110.720312 42.1449219,111.305469 39.2519531,111.805859 C32.7523438,112.913281 27.0128906,107.296875 28.1804688,100.726172 C28.6261719,98.2351562 29.9441406,94.7433594 30.7644531,93.9230469 C31.132192,93.5624109 31.2274626,93.0067188 31.0008519,92.5441847 C30.7742412,92.0816506 30.2767501,91.8163718 29.7664062,91.8859375 C26.1317652,92.3306537 22.7503696,93.9785186 20.1605469,96.5671875 C13.7320313,103.001172 13.125,126.875 13.125,126.875 C13.125,126.875 37.0125,126.267969 43.4410156,119.833984 C46.0377405,117.246272 47.6876825,113.859701 48.125,110.219922 C48.2261719,109.076953 46.834375,108.396094 46.046875,109.219141 L46.046875,109.219141 Z" id="Path" fill="#B8C0C9" fill-rule="nonzero"></path>
                        <path d="M80.4097656,59.5902344 C76.6542581,55.8371877 75.5297618,50.1912163 77.5607582,45.2856838 C79.5917546,40.3801513 84.3781501,37.1814167 89.6875,37.1814167 C94.9968499,37.1814167 99.7832454,40.3801513 101.814242,45.2856838 C103.845238,50.1912163 102.720742,55.8371877 98.9652344,59.5902344 C96.5058467,62.0531409 93.1680885,63.4370836 89.6875,63.4370836 C86.2069115,63.4370836 82.8691533,62.0531409 80.4097656,59.5902344 Z" id="Path" fill="#F6F6F8" fill-rule="nonzero"></path>
                    </g>
                </g>
            </g>
        </g>
    </g>
</svg>