<?xml version="1.0" encoding="UTF-8"?>
<svg width="1538px" height="390px" viewBox="0 0 1538 390" version="1.1" xmlns="http://www.w3.org/2000/svg" xmlns:xlink="http://www.w3.org/1999/xlink">
    <title>Group</title>
    <g id="Page-1" stroke="none" stroke-width="1" fill="none" fill-rule="evenodd">
        <g id="Group" fill="#FFFFFF" fill-rule="nonzero">
            <g id="primary" transform="translate(0.000000, 102.000000)">
                <path d="M199.131241,0 L56.8797786,0 C46.302108,-0.00292250249 36.1568316,4.19774584 28.6772887,11.6772888 C21.1977458,19.1568318 16.9970775,29.3021082 17,39.8797789 L17,78.2388573 C17.0115974,84.7812049 19.6292538,91.049349 24.2739739,95.6568452 C28.918694,100.264341 35.2076977,102.831477 41.7499267,102.790431 L121.399285,102.327609 C128.01102,102.327609 136.683411,111 136.683411,117.600715 L136.20957,197.250075 C136.171442,203.799046 138.745568,210.093037 143.361968,214.738393 C147.978367,219.383748 154.25614,221.997178 160.805221,222 L199.131241,222 C209.707002,222 219.849447,217.798041 227.326606,210.318815 C234.803766,202.83959 239.002922,192.695984 239,182.120223 L239,39.8797789 C239.002922,29.3040177 234.803766,19.160412 227.326606,11.6811861 C219.849447,4.20196011 209.707002,0 199.131241,0 Z" id="Path"></path>
                <path d="M21.168608,124 L102.922475,124 C109.592708,124 115,129.407292 115,136.077525 L115,217.831392 C115,229.522491 105.522491,239 93.831392,239 L21.168608,239 C9.47750862,239 0,229.522491 0,217.831392 L0,145.135669 C0.0181715478,133.457435 9.49035991,124 21.168608,124 Z" id="Path"></path>
            </g>
            <g id="logo_wordmark" transform="translate(319.000000, 0.000000)" font-family="Varela" font-size="300" font-weight="normal" letter-spacing="-15">
                <g id="complect">
                    <text>
                        <tspan x="0" y="304">complect</tspan>
                    </text>
                </g>
            </g>
        </g>
    </g>
</svg>