<?xml version="1.0" encoding="UTF-8"?>
<svg width="1555px" height="390px" viewBox="0 0 1555 390" version="1.1" xmlns="http://www.w3.org/2000/svg" xmlns:xlink="http://www.w3.org/1999/xlink">
    <title>Group 3</title>
    <g id="Assets" stroke="none" stroke-width="1" fill="none" fill-rule="evenodd">
        <g id="Artboard" transform="translate(-325.000000, -219.000000)">
            <g id="Group-3" transform="translate(325.000000, 219.000000)">
                <g id="Group-2" transform="translate(335.000000, 0.000000)" fill="#303132" font-family="Varela" font-size="300" font-weight="normal" letter-spacing="-15">
                    <text id="complect">
                        <tspan x="0.65" y="304">complect</tspan>
                    </text>
                </g>
                <g id="primary" transform="translate(0.000000, 86.000000)" fill-rule="nonzero">
                    <path d="M212.078228,0 L58.9336355,0 C47.5459631,-0.0031331333 36.6237962,4.50028608 28.5714955,12.5188952 C20.5191948,20.5375043 15.9968537,31.4139718 16,42.7539972 L16,83.8776939 C16.0124855,90.891562 18.830593,97.6114642 23.8309899,102.551032 C28.8313868,107.4906 35.6019808,110.242755 42.6451914,110.19875 L128.393825,109.702572 C135.511863,109.702572 144.848357,119 144.848357,126.076443 L144.338231,211.466296 C144.297183,218.487265 147.068427,225.234877 152.038334,230.215033 C157.008242,235.195189 163.766745,237.996975 170.817333,238 L212.078228,238 C223.463845,238 234.382963,233.495198 242.432698,225.476928 C250.482432,217.458659 255.003145,206.583983 255,195.246004 L255,42.7539972 C255.003145,31.416019 250.482432,20.5413426 242.432698,12.5230733 C234.382963,4.50480408 223.463845,0 212.078228,0 Z" id="Path" fill="#2D3051"></path>
                    <path d="M22.8252816,133 L110.977277,133 C118.169528,133 124,138.830472 124,146.022723 L124,234.174718 C124,246.780773 113.780773,257 101.174718,257 L22.8252816,257 C10.2192267,257 0,246.780773 0,234.174718 L0,155.789765 C0.019593669,143.197582 10.2330837,133 22.8252816,133 Z" id="Path" fill="#5F62AC"></path>
                </g>
            </g>
        </g>
    </g>
</svg>