<?xml version="1.0" encoding="UTF-8"?>
<svg width="1557px" height="390px" viewBox="0 0 1557 390" version="1.1" xmlns="http://www.w3.org/2000/svg" xmlns:xlink="http://www.w3.org/1999/xlink">
    <title>Group 3</title>
    <g id="Assets" stroke="none" stroke-width="1" fill="none" fill-rule="evenodd">
        <g id="Artboard" transform="translate(-347.000000, -219.000000)" fill="#FFFFFF">
            <g id="Group-3" transform="translate(347.000000, 219.000000)">
                <g id="Group-2" transform="translate(337.000000, 0.000000)" font-family="Varela" font-size="300" font-weight="normal" letter-spacing="-15">
                    <text id="complect">
                        <tspan x="0.65" y="304">complect</tspan>
                    </text>
                </g>
                <g id="primary-white" transform="translate(0.000000, 84.000000)" fill-rule="nonzero">
                    <path d="M213.898638,0 L60.1132753,0 C48.6779558,-0.00314465709 37.7100897,4.51919646 29.6240975,12.5714972 C21.5381051,20.6237979 16.9968422,31.5459647 17,42.9336372 L17,84.2301206 C17.0125394,91.2734603 19.8424381,98.0215974 24.8637571,102.98192 C29.8850761,107.942242 36.6839989,110.705961 43.7566789,110.661771 L129.864093,110.163508 C137.011913,110.163508 146.387471,119.5 146.387471,126.606176 L145.875211,212.354809 C145.833992,219.405279 148.61683,226.181242 153.607533,231.182324 C158.598234,236.183404 165.385016,238.996962 172.465103,239 L213.898638,239 C225.331893,239 236.296699,234.47627 244.380115,226.42431 C252.463529,218.372351 257.003158,207.451983 257,196.066366 L257,42.9336372 C257.003158,31.5480205 252.463529,20.6276523 244.380115,12.5756928 C236.296699,4.52373344 225.331893,0 213.898638,0 Z" id="Path"></path>
                    <path d="M23.0093565,134 L111.872255,134 C119.122508,134 125,139.830472 125,147.022723 L125,235.174718 C125,247.780773 114.69836,258 101.990643,258 L23.0093565,258 C10.3016398,258 0,247.780773 0,235.174718 L0,156.789765 C0.0197516824,144.197583 10.3156086,134 23.0093565,134 Z" id="Path"></path>
                </g>
            </g>
        </g>
    </g>
</svg>