<?xml version="1.0" standalone="no"?>
<!DOCTYPE svg PUBLIC "-//W3C//DTD SVG 20010904//EN"
 "http://www.w3.org/TR/2001/REC-SVG-20010904/DTD/svg10.dtd">
<svg version="1.0" xmlns="http://www.w3.org/2000/svg"
 width="46.000000pt" height="38.000000pt" viewBox="0 0 46.000000 38.000000"
 preserveAspectRatio="xMidYMid meet">

<g transform="translate(0.000000,38.000000) scale(0.100000,-0.100000)"
fill="#000000" stroke="none">
<path d="M124 348 c-34 -16 -44 -51 -44 -148 0 -144 16 -160 160 -160 144 0
160 16 160 160 0 99 -10 132 -47 149 -30 14 -200 13 -229 -1z m183 -53 c15
-14 34 -29 41 -35 7 -7 12 -36 12 -75 0 -53 -4 -69 -21 -86 -19 -19 -30 -21
-109 -17 -49 1 -92 7 -97 11 -4 5 -10 50 -11 101 -5 117 2 126 93 126 54 0 68
-4 92 -25z"/>
<path d="M150 200 l0 -90 68 0 67 0 -3 90 -3 90 -65 0 -64 0 0 -90z m58 48
c-2 -15 -11 -24 -25 -26 -19 -3 -23 1 -23 22 0 21 5 26 26 26 21 0 25 -4 22
-22z m62 12 c0 -5 -9 -10 -19 -10 -11 0 -23 5 -26 10 -4 6 5 10 19 10 14 0 26
-4 26 -10z m0 -30 c0 -5 -11 -10 -25 -10 -14 0 -25 5 -25 10 0 6 11 10 25 10
14 0 25 -4 25 -10z m0 -30 c0 -5 -25 -10 -55 -10 -30 0 -55 5 -55 10 0 6 25
10 55 10 30 0 55 -4 55 -10z m0 -30 c0 -5 -25 -10 -55 -10 -30 0 -55 5 -55 10
0 6 25 10 55 10 30 0 55 -4 55 -10z m0 -36 c0 -12 -10 -14 -52 -12 -74 4 -77
28 -4 28 44 0 56 -3 56 -16z"/>
<path d="M310 180 c0 -40 4 -70 10 -70 6 0 10 30 10 70 0 40 -4 70 -10 70 -6
0 -10 -30 -10 -70z"/>
</g>
</svg>
