<?xml version="1.0" encoding="UTF-8"?>
<svg width="218px" height="218px" viewBox="0 0 218 218" version="1.1" xmlns="http://www.w3.org/2000/svg" xmlns:xlink="http://www.w3.org/1999/xlink">
    <title>primary</title>
    <g id="Page-1" stroke="none" stroke-width="1" fill="none" fill-rule="evenodd">
        <g id="primary" fill-rule="nonzero">
            <path d="M181.28,-1.38436519e-06 L52.19,-1.38436519e-06 C42.591002,-0.00265348957 33.3843921,3.80935845 26.5968753,10.5968753 C19.8093584,17.3843921 15.9973465,26.591002 15.9999986,36.19 L15.9999986,70.9999986 C16.010523,76.9370331 18.3859872,82.6252327 22.6009662,86.8064318 C26.8159451,90.9876308 32.5230744,93.3172488 38.46,93.28 L110.74,92.86 C116.74,92.86 124.61,100.73 124.61,106.72 L124.18,178.999999 C124.1454,184.943044 126.481361,190.654699 130.67064,194.870255 C134.859918,199.08581 140.556856,201.457439 146.499999,201.46 L181.28,201.46 C190.877265,201.46 200.081306,197.646817 206.86666,190.859588 C213.652013,184.072359 217.462653,174.867265 217.460001,165.27 L217.460001,36.19 C217.462653,26.5927349 213.652013,17.3876411 206.86666,10.6004119 C200.081306,3.8131828 190.877265,-1.38436519e-06 181.28,-1.38436519e-06 Z" id="Path" fill="#2D3051"></path>
            <path d="M19.28,112.75 L93.74,112.75 C99.8151322,112.75 104.74,117.674868 104.74,123.75 L104.74,198.21 C104.74,208.85805 96.10805,217.49 85.46,217.49 L19.28,217.49 C8.63195002,217.49 0,208.85805 0,198.21 L0,132 C0.0165503297,121.363668 8.64365476,112.75 19.28,112.75 Z" id="Path" fill="#5F62AC"></path>
        </g>
    </g>
</svg>