<?xml version="1.0" encoding="UTF-8"?>
<svg width="216px" height="218px" viewBox="0 0 216 218" version="1.1" xmlns="http://www.w3.org/2000/svg" xmlns:xlink="http://www.w3.org/1999/xlink">
    <title>primary</title>
    <g id="Page-1" stroke="none" stroke-width="1" fill="none" fill-rule="evenodd">
        <g id="primary" fill="#FFFFFF" fill-rule="nonzero">
            <path d="M179.28,-1.38436515e-06 L50.19,-1.38436515e-06 C40.591002,-0.00265348957 31.3843921,3.80935845 24.5968753,10.5968753 C17.8093584,17.3843921 13.9973465,26.591002 13.9999986,36.19 L13.9999986,70.9999986 C14.010523,76.9370331 16.3859872,82.6252327 20.6009662,86.8064318 C24.8159451,90.9876308 30.5230744,93.3172488 36.46,93.28 L108.74,92.86 C114.74,92.86 122.61,100.73 122.61,106.72 L122.18,178.999999 C122.1454,184.943044 124.481361,190.654699 128.67064,194.870255 C132.859918,199.08581 138.556856,201.457439 144.499999,201.46 L179.28,201.46 C188.877265,201.46 198.081306,197.646817 204.86666,190.859588 C211.652013,184.072359 215.462653,174.867265 215.460001,165.27 L215.460001,36.19 C215.462653,26.5927349 211.652013,17.3876411 204.86666,10.6004119 C198.081306,3.8131828 188.877265,-1.38436515e-06 179.28,-1.38436515e-06 Z" id="Path"></path>
            <path d="M19.28,112.75 L93.74,112.75 C99.8151322,112.75 104.74,117.674868 104.74,123.75 L104.74,198.21 C104.74,208.85805 96.10805,217.49 85.46,217.49 L19.28,217.49 C8.63195002,217.49 0,208.85805 0,198.21 L0,132 C0.0165503297,121.363668 8.64365476,112.75 19.28,112.75 Z" id="Path"></path>
        </g>
    </g>
</svg>