<svg xmlns="http://www.w3.org/2000/svg" viewBox="0 0 215.46 217.48"><defs><style>.cls-1{fill:#2d3051;}.cls-2{fill:#5f62ac;}</style></defs><g id="Layer_2" data-name="Layer 2"><g id="Layer_1-2" data-name="Layer 1"><path class="cls-1" d="M179.28,0H50.19A36.18,36.18,0,0,0,14,36.19V71A22.32,22.32,0,0,0,36.46,93.28l72.28-.42c6,0,13.87,7.87,13.87,13.86L122.18,179a22.33,22.33,0,0,0,22.32,22.46h34.78a36.18,36.18,0,0,0,36.18-36.19V36.19A36.18,36.18,0,0,0,179.28,0Z"/><path class="cls-2" d="M19.28,112.75H93.74a11,11,0,0,1,11,11v74.46a19.28,19.28,0,0,1-19.28,19.28H19.28A19.28,19.28,0,0,1,0,198.21V132A19.28,19.28,0,0,1,19.28,112.75Z"/></g></g></svg>