<?xml version="1.0" encoding="utf-8"?>
<svg version="1.1" id="Layer_1" xmlns="http://www.w3.org/2000/svg" xmlns:xlink="http://www.w3.org/1999/xlink" x="0px" y="0px"
	 viewBox="0 0 512 512" style="enable-background:new 0 0 512 512;" xml:space="preserve">
<style type="text/css">
.st0{fill:#FFFFFF;}
</style>
<path class="st0" d="M511.8,186.3V0H0v511.8h511.8v-323c-0.2,1-0.7,2-1.5,2.8L376.1,325.8l44.7,178.9c0.8,3-1.1,6.1-4.1,6.9
	c-0.4,0.1-0.9,0.2-1.4,0.2c0,0,0,0,0,0h0c0,0,0,0,0,0c-1.2,0-2.3-0.4-3.3-1.1L256,399.3L100,510.8c-2.6,1.8-6.1,1.2-7.9-1.3
	c-1-1.3-1.3-3-0.9-4.7l44.7-178.9L1.7,191.6c-2.2-2.2-2.2-5.8,0-8c1.1-1.1,2.5-1.7,4-1.7h178.1L250.7,3.5c1.7-4.4,9-4.4,10.7,0
	l66.9,178.3h178.1C509,181.9,511.3,183.8,511.8,186.3z"/>
</svg>
