<?xml version="1.0" ?><svg viewBox="0 0 400 400" xmlns="http://www.w3.org/2000/svg"><g data-name="Layer 30" id="Layer_30"><path d="M200,371.25c-8.11,0-15.65-3.83-21.24-10.8l-47.45-59.23c-7.92-9.88-6.36-17.06-4.73-20.46s6.26-9.1,18.92-9.1h15.78a1.54,1.54,0,0,0,1.54-1.54V129.88a1.54,1.54,0,0,0-1.54-1.54H145.5c-12.66,0-17.28-5.7-18.92-9.1s-3.19-10.58,4.73-20.46l47.45-59.23c5.59-7,13.13-10.8,21.24-10.8s15.65,3.83,21.24,10.8l47.45,59.23c7.92,9.88,6.36,17.06,4.73,20.46s-6.26,9.1-18.92,9.1H238.11a1.54,1.54,0,0,0-1.54,1.54V270.12a1.54,1.54,0,0,0,1.54,1.54H254.5c12.66,0,17.28,5.7,18.92,9.1s3.19,10.58-4.73,20.46l-47.45,59.23C215.65,367.42,208.11,371.25,200,371.25ZM145.5,281c-5.41,0-9.33,1.41-10.47,3.79s.21,6.31,3.59,10.54l47.46,59.23c3.77,4.7,8.71,7.29,13.92,7.29s10.15-2.59,13.92-7.29l47.46-59.23c3.38-4.23,4.73-8.17,3.59-10.54S259.91,281,254.5,281H238.11a10.92,10.92,0,0,1-10.91-10.91V129.88A10.92,10.92,0,0,1,238.11,119H254.5c5.41,0,9.33-1.42,10.47-3.79s-.21-6.31-3.59-10.54L213.92,45.41c-3.77-4.7-8.71-7.29-13.92-7.29s-10.15,2.59-13.92,7.29l-47.46,59.23c-3.38,4.23-4.73,8.17-3.59,10.54S140.09,119,145.5,119h15.78a10.92,10.92,0,0,1,10.91,10.91V270.12A10.92,10.92,0,0,1,161.28,281Z"/></g></svg>